<svg xmlns="http://www.w3.org/2000/svg" width="431.441" height="382.033" viewBox="0 0 431.441 382.033"><g transform="translate(0 296.867)"><path d="M303.569,604.128a8.108,8.108,0,0,1-3.088-3.4,11.428,11.428,0,0,1-1.094-5.133v-7.2a11.45,11.45,0,0,1,1.094-5.139,8.159,8.159,0,0,1,3.088-3.434,8.635,8.635,0,0,1,4.618-1.218,8.4,8.4,0,0,1,4,.963,8.566,8.566,0,0,1,3.048,2.731,10.471,10.471,0,0,1,1.66,4.1h-3.632a5.894,5.894,0,0,0-1.1-2.193,5.441,5.441,0,0,0-1.819-1.49,4.941,4.941,0,0,0-4.867.255,5.1,5.1,0,0,0-1.807,2.17,7.706,7.706,0,0,0-.646,3.258v7.2a7.677,7.677,0,0,0,.646,3.241,5.026,5.026,0,0,0,1.807,2.176,4.832,4.832,0,0,0,2.714.765,5.065,5.065,0,0,0,3.966-1.927,5.87,5.87,0,0,0,1.1-2.266h3.632a10.4,10.4,0,0,1-1.666,4.091,8.641,8.641,0,0,1-3.06,2.731,8.364,8.364,0,0,1-3.966.963,8.732,8.732,0,0,1-4.629-1.241Z" transform="translate(-129.752 -547.632)" fill="#f2f2f2"/><path d="M341.264,604.094a8.085,8.085,0,0,1-3.122-3.4,11.1,11.1,0,0,1-1.1-5.071v-7.428a11.1,11.1,0,0,1,1.1-5.1,8.085,8.085,0,0,1,3.122-3.4,9.683,9.683,0,0,1,9.321,0,8.085,8.085,0,0,1,3.122,3.4,11.1,11.1,0,0,1,1.133,5.1v7.434a11.1,11.1,0,0,1-1.133,5.071,8.085,8.085,0,0,1-3.122,3.4,9.683,9.683,0,0,1-9.321,0Zm7.417-3.156a4.833,4.833,0,0,0,1.841-2.074,7.02,7.02,0,0,0,.657-3.082V588.07a7.021,7.021,0,0,0-.652-3.111,4.834,4.834,0,0,0-1.841-2.074,5.564,5.564,0,0,0-5.513,0,4.867,4.867,0,0,0-1.841,2.074,7.02,7.02,0,0,0-.652,3.111v7.711a7.02,7.02,0,0,0,.652,3.111,4.867,4.867,0,0,0,1.841,2.074,5.564,5.564,0,0,0,5.513,0Z" transform="translate(-146.069 -547.586)" fill="#f2f2f2"/><path d="M377.92,579h3.547v26.24H377.92Zm1.547,11.649h8.624a3.241,3.241,0,0,0,1.79-.5,3.286,3.286,0,0,0,1.213-1.434,5.581,5.581,0,0,0,0-4.272,3.3,3.3,0,0,0-1.2-1.434,3.2,3.2,0,0,0-1.8-.5h-8.624V579h8.5a7.637,7.637,0,0,1,3.847.941,6.476,6.476,0,0,1,2.578,2.657,8.408,8.408,0,0,1,.912,3.966,8.278,8.278,0,0,1-.924,3.966,6.488,6.488,0,0,1-2.584,2.657,7.672,7.672,0,0,1-3.83.935h-8.5Zm6.884,2.686,3.53-.827,6.471,12.732H392.13Z" transform="translate(-163.789 -547.801)" fill="#f2f2f2"/><path d="M418.89,579h3.547v26.222H418.89Zm1.824,12.55H428.8a3.547,3.547,0,0,0,3.366-2.142,6.148,6.148,0,0,0,0-4.742,3.745,3.745,0,0,0-1.349-1.6,3.592,3.592,0,0,0-2.017-.567h-8.085V579h7.966a7.739,7.739,0,0,1,3.966,1,6.8,6.8,0,0,1,2.669,2.833,9.808,9.808,0,0,1,0,8.431,6.8,6.8,0,0,1-2.669,2.833,7.848,7.848,0,0,1-3.966.991h-7.966Z" transform="translate(-181.545 -547.802)" fill="#f2f2f2"/><path d="M460.7,604.094a8.084,8.084,0,0,1-3.122-3.4,11.1,11.1,0,0,1-1.1-5.071v-7.428a11.1,11.1,0,0,1,1.1-5.1,8.086,8.086,0,0,1,3.122-3.4,9.683,9.683,0,0,1,9.321,0,8.086,8.086,0,0,1,3.122,3.4,11.174,11.174,0,0,1,1.1,5.1v7.434a11.175,11.175,0,0,1-1.1,5.071,8.085,8.085,0,0,1-3.122,3.4,9.683,9.683,0,0,1-9.321,0Zm7.4-3.156a4.867,4.867,0,0,0,1.841-2.074,7.02,7.02,0,0,0,.652-3.111V588.07a7.02,7.02,0,0,0-.652-3.111,4.867,4.867,0,0,0-1.841-2.074,5.564,5.564,0,0,0-5.513,0,4.833,4.833,0,0,0-1.841,2.074,7.02,7.02,0,0,0-.652,3.111v7.712a7.021,7.021,0,0,0,.652,3.111,4.834,4.834,0,0,0,1.841,2.074,5.564,5.564,0,0,0,5.513,0Z" transform="translate(-197.834 -547.586)" fill="#f2f2f2"/><path d="M497.36,579h3.547v26.24H497.36Zm1.547,11.649h8.624a3.241,3.241,0,0,0,1.79-.5,3.275,3.275,0,0,0,1.207-1.434,5.513,5.513,0,0,0,0-4.272,3.292,3.292,0,0,0-1.2-1.434,3.2,3.2,0,0,0-1.8-.5h-8.624V579h8.5a7.655,7.655,0,0,1,3.853.941,6.425,6.425,0,0,1,2.572,2.657,9.066,9.066,0,0,1,0,7.932,6.521,6.521,0,0,1-2.584,2.657,7.678,7.678,0,0,1-3.836.935h-8.5Zm6.884,2.686,3.53-.827,6.471,12.732h-4.21Z" transform="translate(-215.553 -547.801)" fill="#f2f2f2"/><path d="M541.815,579h3.026l9.321,26.223h-3.813l-7.02-21.123-7,21.151H532.5Zm-5.02,17h13.3v3.5h-13.3Z" transform="translate(-230.783 -547.803)" fill="#f2f2f2"/><path d="M570.12,579h17.837v3.5H570.12Zm7.145,2.147h3.553v24.075h-3.547Z" transform="translate(-247.087 -547.803)" fill="#f2f2f2"/><path d="M611.287,605.24H607.74V579h3.547Z" transform="translate(-263.392 -547.803)" fill="#f2f2f2"/><path d="M628.334,604.094a8.051,8.051,0,0,1-3.122-3.4,11.1,11.1,0,0,1-1.133-5.071v-7.428a11.1,11.1,0,0,1,1.133-5.1,8.051,8.051,0,0,1,3.122-3.4,9.683,9.683,0,0,1,9.321,0,8.04,8.04,0,0,1,3.116,3.4,11.1,11.1,0,0,1,1.133,5.1v7.434a11.1,11.1,0,0,1-1.133,5.071,8.04,8.04,0,0,1-3.116,3.4,9.683,9.683,0,0,1-9.321,0Zm7.417-3.156a4.867,4.867,0,0,0,1.841-2.074,7.02,7.02,0,0,0,.652-3.111V588.07a7.02,7.02,0,0,0-.652-3.111,4.867,4.867,0,0,0-1.841-2.074,5.564,5.564,0,0,0-5.513,0,4.878,4.878,0,0,0-1.847,2.074,7.1,7.1,0,0,0-.652,3.111v7.711a7.1,7.1,0,0,0,.652,3.111,4.878,4.878,0,0,0,1.875,2.046,5.564,5.564,0,0,0,5.513,0Z" transform="translate(-270.472 -547.586)" fill="#f2f2f2"/><path d="M665,579h3.213l12.369,20.284-.414.47V579h3.53v26.2h-3.252l-12.329-19.956.419-.47v20.4H665Z" transform="translate(-288.208 -547.803)" fill="#f2f2f2"/><path d="M119.163,606.17a5.659,5.659,0,0,0-.822.742,8.138,8.138,0,0,0-1.785,5.626,4.89,4.89,0,0,0,1.949,4.131,10.009,10.009,0,0,0,10.273.091l-8.969-9.882C119.565,606.64,119.367,606.408,119.163,606.17Z" transform="translate(-50.513 -559.578)" fill="#f2f2f2"/><path d="M206.293,574.791a9.274,9.274,0,0,0-6.476-2.091H193.21v29.769h6.607a9.274,9.274,0,0,0,6.476-2.091,7.516,7.516,0,0,0,2.266-5.915V580.706A7.516,7.516,0,0,0,206.293,574.791Z" transform="translate(-83.736 -545.072)" fill="#f2f2f2"/><path d="M59.723,574.791a9.219,9.219,0,0,0-6.482-2.091h-6.6v29.769h6.6a9.27,9.27,0,0,0,6.482-2.091,7.542,7.542,0,0,0,2.266-5.915V580.706A7.516,7.516,0,0,0,59.723,574.791Z" transform="translate(-20.214 -545.072)" fill="#f2f2f2"/><path d="M0,523.94v85.166H150.649V523.94Zm50.609,49.13a18.449,18.449,0,0,1-2,8.811,13.9,13.9,0,0,1-6,5.853,20.972,20.972,0,0,1-9.8,2.091H17.933V543.08h14.93a21.707,21.707,0,0,1,9.632,1.96,13.661,13.661,0,0,1,6.057,5.728,18.523,18.523,0,0,1,2.079,9.066Zm35.515,16.755-2.6-2.833c-.153.108-.312.232-.482.34a19.647,19.647,0,0,1-11.066,2.992,16.551,16.551,0,0,1-7.53-1.581,10.828,10.828,0,0,1-4.771-4.572,14.919,14.919,0,0,1-1.649-7.258,12.886,12.886,0,0,1,3.213-9.156,11.553,11.553,0,0,1,3.632-2.6,21.942,21.942,0,0,1-1.666-4.085,19.638,19.638,0,0,1-.776-5.5c0-4.091,1.133-7.264,3.32-9.5s5.343-3.36,9.389-3.36,7.145,1.071,9.355,3.224,3.3,5.2,3.3,9.151v1.286H79.325v-1.286a7.683,7.683,0,0,0-1.082-4.408,3.49,3.49,0,0,0-3.071-1.57,4.227,4.227,0,0,0-3.564,1.7,7.913,7.913,0,0,0-1.269,4.782,10.766,10.766,0,0,0,.8,3.808,24.365,24.365,0,0,0,2.34,4.465,42.934,42.934,0,0,0,3.672,4.81l5.57,6.289c.057-.164.119-.317.17-.487a28.8,28.8,0,0,0,1.269-9.015h8.193a34.011,34.011,0,0,1-2.351,13.264,22.122,22.122,0,0,1-1.462,2.833l7.2,8.221Zm47.521-16.755a18.517,18.517,0,0,1-2,8.811,13.854,13.854,0,0,1-5.995,5.853,20.993,20.993,0,0,1-9.8,2.091H100.98V543.08h14.907a21.572,21.572,0,0,1,9.632,1.96,13.689,13.689,0,0,1,6.068,5.728,18.522,18.522,0,0,1,2.074,9.066Z" transform="translate(0 -523.94)" fill="#f2f2f2"/><path d="M739.028,556.617l2.442.861a5.156,5.156,0,0,1-4.266,4.085,6,6,0,0,1-3.677-.527,5.536,5.536,0,0,1-2.771-3.4,8.839,8.839,0,0,1,.13-6.012,5.258,5.258,0,0,1,4.816-3.6,7.367,7.367,0,0,1,2.385.227,5.136,5.136,0,0,1,3.4,3.592c-.686.17-1.36.323-2.017.516-.363.108-.538.068-.72-.34a2.756,2.756,0,0,0-4.408-1.133,3.8,3.8,0,0,0-1.2,2.4,8.238,8.238,0,0,0,.306,4.012,2.72,2.72,0,0,0,5.167.283A6.911,6.911,0,0,0,739.028,556.617Z" transform="translate(-316.505 -534.372)" fill="#f2f2f2"/><path d="M731.522,538.26a12.281,12.281,0,1,0,11.842,12.29A12.041,12.041,0,0,0,731.522,538.26Zm0,22.143a9.871,9.871,0,1,1,9.542-9.836A9.645,9.645,0,0,1,731.522,560.4Z" transform="translate(-311.923 -530.146)" fill="#f2f2f2"/></g><g transform="translate(101.791 0)"><path d="M313.522,344.8c-3.094.595-6.2,1.133-9.3,1.7H283a11.233,11.233,0,0,0-2.193-.708c-48.2-5.541-88.209-42.932-98.374-92.056-1.088-5.269-1.864-10.59-2.788-15.865V218.685c.941-5.417,1.7-10.862,2.833-16.233a117.633,117.633,0,0,1,20.171-45.328c2.561-3.536,5.876-5.184,10.137-4.091a8.354,8.354,0,0,1,6.607,8.04,14.647,14.647,0,0,1-2.4,7.774,102.052,102.052,0,0,0-18.964,60.264c.068,41.521,26.336,79.546,64.327,92.923,55.584,19.559,114.454-15.763,125.186-75.545,5.048-28.1-.963-53.975-17.1-77.262a16.839,16.839,0,0,1-2.833-6.652c-.635-3.966,1.875-7.678,5.49-9.27a8.6,8.6,0,0,1,10.72,2.952A110.97,110.97,0,0,1,400,186.117C425.313,255.769,384.138,331.332,313.522,344.8Z" transform="translate(-179.65 -66.093)" fill="#f2f2f2"/><path d="M388.586,145.232c-5.779,22.432-18.063,41.022-32.013,58.638a21.129,21.129,0,0,1-6.312,5.173c1.762-4.165,3.592-8.3,5.264-12.5a75.211,75.211,0,0,0,4.946-38.863c-1.5-10.335-5.031-20.137-12.035-27.7-8.794-9.513-18.42-18.211-27.7-27.237-10.04-9.78-20.9-18.732-28.676-30.789-8.816-13.661-10.884-28.1-4.125-43.527,5.915-13.423,15.9-22.2,28.653-27.979A9.456,9.456,0,0,1,317.863,0a7.677,7.677,0,0,1,.844.193c-2.833,3.111-5.564,5.938-8.068,8.975-6.4,7.762-10.5,16.5-10.159,27.021.278,8.935,4.238,16.29,10.2,22.143,6.267,6.136,13.31,11.44,20.143,16.936,10.692,8.624,21.531,17.026,32.195,25.724,2.459,2.006,4.312,4.788,6.448,7.219.317-.17.646-.329.963-.5-1.36-2.589-2.334-5.524-4.159-7.689a205.9,205.9,0,0,0-15.213-16.732c-6.675-6.42-14-12.114-20.777-18.42-8.737-8.136-13.032-18.307-11.984-30.659C324,47.867,335.184,55.743,346.5,63.5c11.695,8.029,23.287,16.245,32.036,27.939C390.632,107.6,393.635,125.588,388.586,145.232Z" transform="translate(-224.843 0)" fill="#f2f2f2"/><path d="M347.249,271.64c-4.029,14.851-13,26.579-22.132,38.212a15.831,15.831,0,0,1-5.037,3.938c1.824-4.533,3.966-8.952,5.405-13.6,6.074-19.831.215-35.957-14.335-49.623-8.17-7.666-15.82-15.956-23.367-24.3a31.974,31.974,0,0,1-8.714-20.63c-.453-11.842,4.924-20.59,13.678-27.378,3.116-2.408,6.743-4.1,10.131-6.114.181.283.357.567.567.861-.516.5-1.014,1-1.541,1.473-5.74,5.3-10.42,11.513-11.61,19.474a18.817,18.817,0,0,0,4.782,15.706c5.128,5.456,10.822,10.375,16.432,15.355,7.814,6.986,15.757,13.825,24.024,20.721-1.994-3.031-3.655-6.4-6.074-9-5.978-6.454-12.193-12.686-18.534-18.772-5.847-5.632-9.134-12.222-8.629-21.78,4.9,9.887,12.335,15.735,20.109,21.418s15.106,11.774,20.347,20.211C349.278,248.375,350.5,259.634,347.249,271.64Z" transform="translate(-222.727 -74.609)" fill="#f2f2f2"/><circle cx="6.924" cy="6.924" r="6.924" transform="translate(177.376 72.486)" fill="#f2f2f2"/><circle cx="4.946" cy="4.946" r="4.946" transform="translate(166.995 63.584)" fill="#f2f2f2"/><circle cx="2.969" cy="2.969" r="2.969" transform="translate(160.072 59.137)" fill="#f2f2f2"/></g></svg>