<svg id="undraw_code_review_l1q9" xmlns="http://www.w3.org/2000/svg" width="254.999" height="193.593" viewBox="0 0 254.999 193.593">
    <path id="Tracé_855" data-name="Tracé 855" d="M181.6,193.663c-54.885-4.177-120.338-46.7-117.006-90.492S131.32,18.619,186.206,22.8s86.479,86.01,83.147,129.8S236.487,197.84,181.6,193.663Z" transform="translate(-58.231 -22.5)" fill="#f2f2f2"/>
    <ellipse id="Ellipse_158" data-name="Ellipse 158" cx="114.571" cy="7.019" rx="114.571" ry="7.019" transform="translate(13.403 164.158)" fill="#3f3d56"/>
    <ellipse id="Ellipse_159" data-name="Ellipse 159" cx="97.589" cy="4.642" rx="97.589" ry="4.642" transform="translate(30.385 166.422)" opacity="0.1"/>
    <ellipse id="Ellipse_160" data-name="Ellipse 160" cx="48.046" cy="4.189" rx="48.046" ry="4.189" transform="translate(0 185.215)" fill="#3f3d56"/>
    <ellipse id="Ellipse_161" data-name="Ellipse 161" cx="40.924" cy="2.77" rx="40.924" ry="2.77" transform="translate(7.122 186.567)" opacity="0.1"/>
    <rect id="Rectangle_165" data-name="Rectangle 165" width="170.271" height="133.591" transform="translate(44.423 36.681)" fill="#3f3d56"/>
    <path id="Tracé_856" data-name="Tracé 856" d="M455.288,261.646H413.282a.51.51,0,0,1,0-1.02h42.006a.51.51,0,1,1,0,1.02Z" transform="translate(-327.666 -206.708)" fill="#f2f2f2"/>
    <path id="Tracé_857" data-name="Tracé 857" d="M576.161,286.412H510.093a.51.51,0,1,1,0-1.02h66.067a.51.51,0,0,1,0,1.02Z" transform="translate(-402.557 -225.867)" fill="#f2f2f2"/>
    <path id="Tracé_858" data-name="Tracé 858" d="M456.188,311.178H414.182a.51.51,0,1,1,0-1.02h42.006a.51.51,0,1,1,0,1.02Z" transform="translate(-328.363 -245.025)" fill="#f2f2f2"/>
    <path id="Tracé_859" data-name="Tracé 859" d="M658.366,311.628H616.36a.51.51,0,0,1,0-1.02h42.006a.51.51,0,0,1,0,1.02Z" transform="translate(-484.763 -245.373)" fill="#f2f2f2"/>
    <path id="Tracé_860" data-name="Tracé 860" d="M456.638,335.943H414.632a.51.51,0,0,1,0-1.02h42.006a.51.51,0,0,1,0,1.02Z" transform="translate(-328.711 -264.183)" fill="#f2f2f2"/>
    <path id="Tracé_861" data-name="Tracé 861" d="M457.089,360.709H415.083a.51.51,0,0,1,0-1.02h42.006a.51.51,0,0,1,0,1.02Z" transform="translate(-329.06 -283.341)" fill="#f2f2f2"/>
    <path id="Tracé_862" data-name="Tracé 862" d="M643.7,262.1H631.67a.51.51,0,0,1,0-1.02H643.7a.51.51,0,0,1,0,1.02Z" transform="translate(-496.606 -207.057)" fill="#f2f2f2"/>
    <path id="Tracé_863" data-name="Tracé 863" d="M643.7,335.943H631.67a.51.51,0,0,1,0-1.02H643.7a.51.51,0,0,1,0,1.02Z" transform="translate(-496.606 -264.183)" fill="#f2f2f2"/>
    <path id="Tracé_864" data-name="Tracé 864" d="M643.7,360.259H631.67a.51.51,0,0,1,0-1.02H643.7a.51.51,0,0,1,0,1.02Z" transform="translate(-496.606 -282.993)" fill="#f2f2f2"/>
    <path id="Tracé_865" data-name="Tracé 865" d="M732.858,360.259H720.827a.51.51,0,0,1,0-1.02h12.031a.51.51,0,0,1,0,1.02Z" transform="translate(-565.576 -282.993)" fill="#f2f2f2"/>
    <path id="Tracé_866" data-name="Tracé 866" d="M424.862,286.412H412.831a.51.51,0,0,1,0-1.02h12.031a.51.51,0,0,1,0,1.02Z" transform="translate(-327.318 -225.867)" fill="#f2f2f2"/>
    <path id="Tracé_867" data-name="Tracé 867" d="M455.513,626.378H413.507a.51.51,0,1,1,0-1.02h42.006a.51.51,0,1,1,0,1.019Z" transform="translate(-327.84 -488.856)" fill="#f2f2f2"/>
    <path id="Tracé_868" data-name="Tracé 868" d="M454.612,675.909H412.606a.51.51,0,1,1,0-1.02h42.006a.51.51,0,1,1,0,1.019Z" transform="translate(-327.143 -527.172)" fill="#f2f2f2"/>
    <path id="Tracé_869" data-name="Tracé 869" d="M455.062,700.675H413.056a.51.51,0,1,1,0-1.02h42.006a.51.51,0,1,1,0,1.02Z" transform="translate(-327.492 -546.331)" fill="#f2f2f2"/>
    <path id="Tracé_870" data-name="Tracé 870" d="M636.722,676.359H624.691a.51.51,0,1,1,0-1.02h12.031a.51.51,0,0,1,0,1.02Z" transform="translate(-491.207 -527.52)" fill="#f2f2f2"/>
    <path id="Tracé_871" data-name="Tracé 871" d="M636.722,700.675H624.691a.51.51,0,0,1,0-1.02h12.031a.51.51,0,0,1,0,1.02Z" transform="translate(-491.207 -546.331)" fill="#f2f2f2"/>
    <path id="Tracé_872" data-name="Tracé 872" d="M725.878,676.359H713.847a.51.51,0,0,1,0-1.02h12.031a.51.51,0,0,1,0,1.02Z" transform="translate(-560.176 -527.52)" fill="#f2f2f2"/>
    <path id="Tracé_873" data-name="Tracé 873" d="M576.386,651.143H510.318a.51.51,0,0,1,0-1.02h66.067a.51.51,0,0,1,0,1.02Z" transform="translate(-402.731 -508.014)" fill="#f2f2f2"/>
    <path id="Tracé_874" data-name="Tracé 874" d="M425.087,651.143H413.056a.51.51,0,1,1,0-1.02h12.031a.51.51,0,1,1,0,1.02Z" transform="translate(-327.492 -508.014)" fill="#f2f2f2"/>
    <path id="Tracé_875" data-name="Tracé 875" d="M576.386,725.891H510.318a.51.51,0,0,1,0-1.02h66.067a.51.51,0,0,1,0,1.02Z" transform="translate(-402.731 -565.837)" fill="#f2f2f2"/>
    <path id="Tracé_876" data-name="Tracé 876" d="M425.087,725.891H413.056a.51.51,0,1,1,0-1.02h12.031a.51.51,0,1,1,0,1.02Z" transform="translate(-327.492 -565.837)" fill="#f2f2f2"/>
    <path id="Tracé_877" data-name="Tracé 877" d="M463.327,401.13l-16.313,16.109,16.313,16.109,3.67-3.67-12.337-12.337L467.1,404.9Z" transform="translate(-345.799 -310.304)" fill="#6c63ff"/>
    <path id="Tracé_878" data-name="Tracé 878" d="M612.439,401.13l16.313,16.109-16.313,16.109-3.67-3.67,12.337-12.337L608.667,404.9Z" transform="translate(-470.85 -310.304)" fill="#6c63ff"/>
    <circle id="Ellipse_162" data-name="Ellipse 162" cx="2.038" cy="2.038" r="2.038" transform="translate(46.914 38.039)" fill="#6c63ff"/>
    <circle id="Ellipse_163" data-name="Ellipse 163" cx="2.038" cy="2.038" r="2.038" transform="translate(52.348 38.039)" fill="#6c63ff"/>
    <circle id="Ellipse_164" data-name="Ellipse 164" cx="2.038" cy="2.038" r="2.038" transform="translate(57.782 38.039)" fill="#6c63ff"/>
    <rect id="Rectangle_166" data-name="Rectangle 166" width="170.271" height="0.679" transform="translate(44.423 43.474)" opacity="0.1"/>
    <path id="Tracé_879" data-name="Tracé 879" d="M1032.093,517.864c0,14.439-8.584,19.481-19.173,19.481s-19.173-5.042-19.173-19.481,19.173-32.808,19.173-32.808S1032.093,503.425,1032.093,517.864Z" transform="translate(-777.094 -380.322)" fill="#f2f2f2"/>
    <path id="Tracé_880" data-name="Tracé 880" d="M1012.105,512.637l.2-12.085,8.172-14.95-8.14,13.055.088-5.434,5.631-10.816-5.609,9.378h0l.158-9.773,6.032-8.611-6.007,7.074.1-17.919-.623,23.722.05-.979-6.132-9.386,6.034,11.264-.573,10.914-.016-.29-7.069-9.877,7.046,10.9-.07,1.365-.014.021.007.112-1.449,27.691h1.936l.231-14.3,7.03-10.874Z" transform="translate(-776.979 -357.822)" fill="#3f3d56"/>
    <path id="Tracé_881" data-name="Tracé 881" d="M137.042,769.049a9.771,9.771,0,0,1-1.852.793c-1.15.314-2.379.2-3.541.467a1.456,1.456,0,0,0-1.144.8,1.688,1.688,0,0,0,.125,1.047c1.283,3.763,2.057,7.759,4.1,11.167a16.9,16.9,0,0,0,3.168,3.846,3.02,3.02,0,0,0,1.616.9,1.641,1.641,0,0,0,1.669-2.305c-.184-.408-.525-.724-.745-1.113a4.246,4.246,0,0,1-.412-1.583,10.291,10.291,0,0,1,.161-4.815,16.181,16.181,0,0,1,1.632-2.818,4.92,4.92,0,0,0,.919-3.067,5.326,5.326,0,0,0-.826-2.05c-.381-.639-1.133-2.357-1.9-2.57C139.224,767.526,137.735,768.694,137.042,769.049Z" transform="translate(-109.278 -598.983)" fill="#2f2e41"/>
    <path id="Tracé_882" data-name="Tracé 882" d="M246.7,815.706a3.174,3.174,0,0,1-.15,1.074c-.239.632-.833,1.066-1.14,1.668a3.685,3.685,0,0,0,.049,2.747,2.816,2.816,0,0,0,.886,1.5,2.919,2.919,0,0,0,1.348.432c4.084.565,8.232.241,12.353.359a4.218,4.218,0,0,0,2.2-.319,1.388,1.388,0,0,0,.615-1.895c-.4-.543-1.192-.538-1.866-.57a7.679,7.679,0,0,1-4.735-1.951,3.423,3.423,0,0,1-.664-.765,4.7,4.7,0,0,1-.347-.8,35.506,35.506,0,0,0-2.057-4.555,2.413,2.413,0,0,0-.884-1.059,2.337,2.337,0,0,0-.96-.21c-1.027-.067-3.687-.416-4.481.383C246.135,812.484,246.717,814.769,246.7,815.706Z" transform="translate(-198.007 -632.642)" fill="#2f2e41"/>
    <circle id="Ellipse_165" data-name="Ellipse 165" cx="6.561" cy="6.561" r="6.561" transform="translate(48.454 78.738)" fill="#fbbebe"/>
    <path id="Tracé_883" data-name="Tracé 883" d="M246.824,412.749a4.932,4.932,0,0,1-2.015,2.588l9.074,1.851a9.612,9.612,0,0,1-.127-4.046,2.333,2.333,0,0,0,.054-1c-.171-.658-.912-.975-1.575-1.126a21.044,21.044,0,0,1-4.66-1.311C247.1,410.512,247.171,411.821,246.824,412.749Z" transform="translate(-197.734 -322.033)" fill="#fbbebe"/>
    <path id="Tracé_884" data-name="Tracé 884" d="M216.394,421.571a7.1,7.1,0,0,1,6.184.162,14,14,0,0,1,3.073,2.451,4.907,4.907,0,0,1,1.865,3.016,8.448,8.448,0,0,1-.245,1.74,5.834,5.834,0,0,0,3.12,5.993,7.94,7.94,0,0,1,.881,4.056c.042,5.306-1.632,10.678-.437,15.849.281,1.214.716,2.39.958,3.612.314,1.583.3,3.211.463,4.816a21.571,21.571,0,0,0,1.158,5.093,2.116,2.116,0,0,1-1.957.818,5.527,5.527,0,0,1-2.093-.71c-3.2-1.636-6.127-3.794-9.439-5.185-2.191-.92-4.526-1.493-6.651-2.556a8.712,8.712,0,0,1-4.753-5.035,11.786,11.786,0,0,1-.314-3.057,55.5,55.5,0,0,1,.817-12.927c.831-3.725,2.432-7.289,2.781-11.09a7.547,7.547,0,0,1,.807-3.594C213.59,423.562,215.7,423.184,216.394,421.571Z" transform="translate(-169.394 -330.723)" fill="#2f2e41"/>
    <path id="Tracé_885" data-name="Tracé 885" d="M239.062,365.439a1.7,1.7,0,0,1,1.75-.424c.618.149,1.187.467,1.811.588a1.058,1.058,0,0,0,.848-.119,1.233,1.233,0,0,0,.366-.808,15.434,15.434,0,0,0,.152-3.935,1.165,1.165,0,0,1,.036-.552c.154-.372.626-.461,1.01-.58a3.015,3.015,0,0,0,2.041-3.087,1.227,1.227,0,0,0-.375-.847,1.543,1.543,0,0,0-.982-.233q-2.645-.021-5.291,0a3.842,3.842,0,0,0-1.9.347,9.249,9.249,0,0,0-1.105.931,10.833,10.833,0,0,1-3.5,1.356,3.466,3.466,0,0,0-1.532.914,1.614,1.614,0,0,0-.338,1.674,5.947,5.947,0,0,0,.427.658c.7,1.124.235,2.582.34,3.9.131,1.65,2.573,4.327,4.229,4.718C239.721,370.575,238.177,366.523,239.062,365.439Z" transform="translate(-187.778 -280.048)" fill="#2f2e41"/>
    <path id="Tracé_886" data-name="Tracé 886" d="M242.7,679.879a19.58,19.58,0,0,1,.327,3.629c-.081,1.7-.693,3.332-.806,5.026-.084,1.266.111,2.546-.065,3.8-.113.8-.375,1.58-.537,2.376a9.826,9.826,0,0,0,1.579,7.532,1.234,1.234,0,0,0,.458.444,1.3,1.3,0,0,0,.568.075,40.773,40.773,0,0,0,5.7-.518.547.547,0,0,0,.366-.161.513.513,0,0,0,.079-.216c.35-1.8-.448-3.6-.65-5.418a16.816,16.816,0,0,1,.712-5.789,25.7,25.7,0,0,1,.785-2.769c.224-.611.494-1.2.688-1.826a13.916,13.916,0,0,0,.5-2.989q.2-2.394.214-4.8a20.142,20.142,0,0,0-.377-4.531,24.154,24.154,0,0,0-2.159-5.373,3.4,3.4,0,0,0-1.272.6,28.392,28.392,0,0,1-3.476,1.92c-.808.375-2.382.641-2.895,1.423s-.179,2.344-.141,3.194Q242.4,677.706,242.7,679.879Z" transform="translate(-195.125 -522.133)" fill="#2f2e41"/>
    <path id="Tracé_887" data-name="Tracé 887" d="M242.7,679.879a19.58,19.58,0,0,1,.327,3.629c-.081,1.7-.693,3.332-.806,5.026-.084,1.266.111,2.546-.065,3.8-.113.8-.375,1.58-.537,2.376a9.826,9.826,0,0,0,1.579,7.532,1.234,1.234,0,0,0,.458.444,1.3,1.3,0,0,0,.568.075,40.773,40.773,0,0,0,5.7-.518.547.547,0,0,0,.366-.161.513.513,0,0,0,.079-.216c.35-1.8-.448-3.6-.65-5.418a16.816,16.816,0,0,1,.712-5.789,25.7,25.7,0,0,1,.785-2.769c.224-.611.494-1.2.688-1.826a13.916,13.916,0,0,0,.5-2.989q.2-2.394.214-4.8a20.142,20.142,0,0,0-.377-4.531,24.154,24.154,0,0,0-2.159-5.373,3.4,3.4,0,0,0-1.272.6,28.392,28.392,0,0,1-3.476,1.92c-.808.375-2.382.641-2.895,1.423s-.179,2.344-.141,3.194Q242.4,677.706,242.7,679.879Z" transform="translate(-195.125 -522.133)" opacity="0.1"/>
    <path id="Tracé_888" data-name="Tracé 888" d="M178.433,605.518c-.871,2.346.409,4.88,1.522,7.122a124.52,124.52,0,0,1,6.538,17.28,2.119,2.119,0,0,1,.125,1.353,1.772,1.772,0,0,1-.639.758,15.084,15.084,0,0,1-4.523,1.863,20.418,20.418,0,0,0-4.289,2.011c-1.127.7-2.182,1.5-3.236,2.309l-3.354,2.561a2.24,2.24,0,0,0-.561.543,2.192,2.192,0,0,0-.03,1.75,29.757,29.757,0,0,0,1.642,4.481,1.565,1.565,0,0,0,.6.78c.523.281,1.164-.092,1.564-.531s.745-.987,1.309-1.176,1.182.04,1.77-.043c.951-.134,1.582-1.009,2.267-1.682,2.8-2.747,7.474-2.548,10.554-4.976a13.406,13.406,0,0,1,1.411-1.1c.521-.308,1.111-.477,1.651-.749a7,7,0,0,0,3.229-4.292c.553-1.754.711-3.606,1.109-5.4a23.492,23.492,0,0,0,.568-2.794,14.967,14.967,0,0,0-.057-2.642l-1.111-13.747c-.09-1.119-.181-2.24-.357-3.349-3.3.118-6.6.251-9.9.29C183.6,606.165,180.926,606.349,178.433,605.518Z" transform="translate(-139.723 -473.508)" fill="#2f2e41"/>
    <path id="Tracé_889" data-name="Tracé 889" d="M201.417,601.3a1.763,1.763,0,0,0,2.288.31c.75-.395,1.333-1.058,2.086-1.449a6.776,6.776,0,0,1,3.346-.474,21.747,21.747,0,0,1,5.363.6c1.794.511,3.541,1.5,5.4,1.3a1.11,1.11,0,0,0,.852-.4,1.256,1.256,0,0,0,.14-.642l.061-1.621a1.464,1.464,0,0,0-.129-.821,1.377,1.377,0,0,0-.615-.471,21.222,21.222,0,0,0-8.585-1.617q-2.236-.077-4.474-.063a16.3,16.3,0,0,0-4.016.163C201.478,596.567,200.579,599.952,201.417,601.3Z" transform="translate(-163.921 -466.074)" fill="#2f2e41"/>
    <path id="Tracé_890" data-name="Tracé 890" d="M216.745,424.107c-3.46-.031-6.6-2.315-10.056-2.37a2.607,2.607,0,0,0-1.221.211,4.546,4.546,0,0,0-1.165,1.109c-1.023,1.108-2.5,1.7-3.556,2.781a4.124,4.124,0,0,0-1.144,3.884,2.886,2.886,0,0,0,3.233,2.075,8.333,8.333,0,0,1,3.246-4.411,16.505,16.505,0,0,1,2.537-1.332c1.555-.7,3.294-1.423,4.917-.894a6.937,6.937,0,0,1,1.678.915l2.707,1.818A18.845,18.845,0,0,0,216.745,424.107Z" transform="translate(-162.666 -331.335)" fill="#6c63ff"/>
    <path id="Tracé_891" data-name="Tracé 891" d="M196.1,440.214c-.46.573.2,1.4.1,2.131-.067.483-.465.853-.631,1.312a7.031,7.031,0,0,0-.146,1.5,6.452,6.452,0,0,1-.289,1.071,19.24,19.24,0,0,0-.608,3.176l-.606,4.523a17.136,17.136,0,0,0-.192,2.055,6.137,6.137,0,0,1-.1,1.537,11.35,11.35,0,0,1-.631,1.4,1.639,1.639,0,0,0-.022,1.477,2.582,2.582,0,0,0-.541,3.223,1.789,1.789,0,0,1,.279.513,1.318,1.318,0,0,1-.123.756l-.612,1.632c-.157.418-.206,1.054.229,1.149a3.85,3.85,0,0,0-.827,1.306,1.555,1.555,0,0,0,.22,1.473,1.876,1.876,0,0,1,.384.466,1.239,1.239,0,0,1-.044.734,2.7,2.7,0,0,0,.334,2.113,1.9,1.9,0,0,0,1.906.817,8.71,8.71,0,0,1,3.561-.486,63.623,63.623,0,0,1,7.9,1.8c2.94.939,5.787,2.315,8.859,2.6a.86.86,0,0,0,.592-.092.89.89,0,0,0,.274-.563l.95-4.453a45.813,45.813,0,0,0,.873-4.988c.108-1.083.139-2.171.17-3.259l.245-8.656a8.649,8.649,0,0,0-.5-3.763l-1.408-4.494c-.8-2.565-2.646-4.839-3.3-7.445-.415-1.65-.722-3.42-1.836-4.705-1.588-1.833-4.335-2.118-6.739-1.8a8.051,8.051,0,0,0-3.121.951,10.229,10.229,0,0,0-2.661,2.68C197.406,438.735,196.756,439.4,196.1,440.214Z" transform="translate(-156.332 -340.955)" fill="#6c63ff"/>
    <path id="Tracé_892" data-name="Tracé 892" d="M236.58,554.139c.2.854.614,1.642.869,2.481.427,1.406.39,2.92.816,4.326.179.59.438,1.157.566,1.76a7.293,7.293,0,0,1-.68,4.193,16.38,16.38,0,0,0-1.379,4.071,3.118,3.118,0,0,0,.829,2.792,4.08,4.08,0,0,0,3.02.541,3.174,3.174,0,0,0,1.1-.228,2.96,2.96,0,0,0,1.326-2.193,32.543,32.543,0,0,0,.266-8.875l-.477-7.751a18.143,18.143,0,0,0-.65-4.448,4.242,4.242,0,0,0-.935-1.907,6.292,6.292,0,0,0-2.4-.372C236.106,548.4,236.136,552.222,236.58,554.139Z" transform="translate(-191.195 -429.419)" fill="#fbbebe"/>
    <path id="Tracé_893" data-name="Tracé 893" d="M232.017,446.361a1.886,1.886,0,0,0-1.805.16,5.563,5.563,0,0,0-1.352,1.313c-1.209,1.476-2.489,3.169-2.309,5.068a12.853,12.853,0,0,0,.525,2.077c.81,3.029-.086,6.233.017,9.368a29.335,29.335,0,0,0,.846,5.362c.08.361.208.779.558.9a1.211,1.211,0,0,0,.805-.125,6.424,6.424,0,0,1,5.879.741c.649-.346.406-1.441.26-2.161a12.422,12.422,0,0,1,.867-6.416,23.634,23.634,0,0,0,1.683-6.309,19.279,19.279,0,0,0-1.494-7.224,2.323,2.323,0,0,0-1.957-1.937A13.5,13.5,0,0,1,232.017,446.361Z" transform="translate(-183.597 -350.261)" fill="#2f2e41"/>
</svg>
