<svg id="undraw_experience_design_eq3j" xmlns="http://www.w3.org/2000/svg" width="735.274" height="498.141" viewBox="0 0 735.274 498.141">
    <circle id="Ellipse_8" data-name="Ellipse 8" cx="54.924" cy="54.924" r="54.924" transform="translate(443.31 199.616)" fill="#6c63ff" opacity="0.4"/>
    <rect id="Rectangle_6" data-name="Rectangle 6" width="306.276" height="83.009" transform="translate(193.211 330.536)" fill="#3f3d56"/>
    <path id="Tracé_185" data-name="Tracé 185" d="M711.736,268.339l-12.229,5.788,10.824-8.093a61.072,61.072,0,0,0-5.91-7.777l-53.038,13.183,47.908-18.275a61.058,61.058,0,0,0-6.957-5.3l-80.817,13.017a60.567,60.567,0,0,0-13.265,37.8H719.9a60.535,60.535,0,0,0-8.167-30.338Z" transform="translate(-231.866 -143.462)" fill="#f2f2f2"/>
    <path id="Tracé_186" data-name="Tracé 186" d="M599.5,137.89a356.611,356.611,0,0,0-429.955,92.422C281.48,205.785,476.374,163.328,599.5,137.89Z" transform="translate(-109.94 -101.97)" fill="#f2f2f2"/>
    <rect id="Rectangle_7" data-name="Rectangle 7" width="729.909" height="1.431" transform="translate(0 496.555)" fill="#2f2e41"/>
    <path id="Tracé_187" data-name="Tracé 187" d="M665.66,294.428l-41.408-61.506s62.709,21.892,55.592,61.506Z" transform="translate(-239.261 -139.213)" fill="#3f3d56"/>
    <path id="Tracé_188" data-name="Tracé 188" d="M678.527,294.428l41.408-61.506s-62.709,21.892-55.592,61.506Z" transform="translate(-250.502 -139.213)" fill="#6c63ff"/>
    <path id="Tracé_189" data-name="Tracé 189" d="M662.743,615.855H355.752V157.873H662.743Zm-305.56-1.431H661.312V159.3H357.183Z" transform="translate(-162.898 -117.869)" fill="#2f2e41"/>
    <rect id="Rectangle_8" data-name="Rectangle 8" width="305.56" height="1.431" transform="translate(193.927 50.867)" fill="#2f2e41"/>
    <circle id="Ellipse_9" data-name="Ellipse 9" cx="2.862" cy="2.862" r="2.862" transform="translate(198.936 42.866)" fill="#6c63ff"/>
    <circle id="Ellipse_10" data-name="Ellipse 10" cx="2.862" cy="2.862" r="2.862" transform="translate(206.808 42.866)" fill="#6c63ff"/>
    <circle id="Ellipse_11" data-name="Ellipse 11" cx="2.862" cy="2.862" r="2.862" transform="translate(214.679 42.866)" fill="#6c63ff"/>
    <rect id="Rectangle_9" data-name="Rectangle 9" width="12.881" height="7.156" transform="translate(204.661 60.756)" fill="#6c63ff"/>
    <rect id="Rectangle_10" data-name="Rectangle 10" width="62.973" height="7.156" transform="translate(204.661 117.288)" fill="#6c63ff"/>
    <rect id="Rectangle_11" data-name="Rectangle 11" width="62.973" height="7.156" transform="translate(491.616 67.911) rotate(180)" fill="#f2f2f2"/>
    <rect id="Rectangle_12" data-name="Rectangle 12" width="105.908" height="4.294" transform="translate(204.661 129.453)" fill="#f2f2f2"/>
    <rect id="Rectangle_13" data-name="Rectangle 13" width="100.184" height="4.294" transform="translate(204.661 138.756)" fill="#f2f2f2"/>
    <rect id="Rectangle_14" data-name="Rectangle 14" width="72.991" height="4.294" transform="translate(204.661 148.059)" fill="#f2f2f2"/>
    <rect id="Rectangle_15" data-name="Rectangle 15" width="41.505" height="4.294" transform="translate(228.991 275.435)" fill="#f2f2f2"/>
    <rect id="Rectangle_16" data-name="Rectangle 16" width="39.261" height="4.294" transform="translate(228.991 284.738)" fill="#f2f2f2"/>
    <rect id="Rectangle_17" data-name="Rectangle 17" width="28.605" height="4.294" transform="translate(228.991 294.041)" fill="#f2f2f2"/>
    <rect id="Rectangle_18" data-name="Rectangle 18" width="41.505" height="4.294" transform="translate(325.597 275.435)" fill="#f2f2f2"/>
    <rect id="Rectangle_19" data-name="Rectangle 19" width="39.261" height="4.294" transform="translate(325.597 284.738)" fill="#f2f2f2"/>
    <rect id="Rectangle_20" data-name="Rectangle 20" width="28.605" height="4.294" transform="translate(325.597 294.041)" fill="#f2f2f2"/>
    <rect id="Rectangle_21" data-name="Rectangle 21" width="41.505" height="4.294" transform="translate(425.78 275.435)" fill="#f2f2f2"/>
    <rect id="Rectangle_22" data-name="Rectangle 22" width="39.261" height="4.294" transform="translate(425.78 284.738)" fill="#f2f2f2"/>
    <rect id="Rectangle_23" data-name="Rectangle 23" width="28.605" height="4.294" transform="translate(425.78 294.041)" fill="#f2f2f2"/>
    <rect id="Rectangle_24" data-name="Rectangle 24" width="62.973" height="7.156" transform="translate(293.395 437.876)" fill="#6c63ff"/>
    <rect id="Rectangle_25" data-name="Rectangle 25" width="105.908" height="4.294" transform="translate(293.395 450.041)" fill="#f2f2f2"/>
    <rect id="Rectangle_26" data-name="Rectangle 26" width="100.184" height="4.294" transform="translate(293.395 459.344)" fill="#f2f2f2"/>
    <rect id="Rectangle_27" data-name="Rectangle 27" width="72.991" height="4.294" transform="translate(293.395 468.646)" fill="#f2f2f2"/>
    <rect id="Rectangle_28" data-name="Rectangle 28" width="249.028" height="1.431" transform="translate(223.624 194.573)" fill="#6c63ff" opacity="0.3"/>
    <rect id="Rectangle_29" data-name="Rectangle 29" width="52.954" height="47.229" transform="translate(223.266 219.618)" fill="#6c63ff" opacity="0.3"/>
    <rect id="Rectangle_30" data-name="Rectangle 30" width="52.954" height="47.229" transform="translate(319.872 219.618)" fill="#3f3d56"/>
    <rect id="Rectangle_31" data-name="Rectangle 31" width="52.954" height="47.229" transform="translate(420.056 219.618)" fill="#3f3d56"/>
    <path id="Tracé_190" data-name="Tracé 190" d="M560.333,465.033l-.7-.014c.015-.774.452-19.007,7.63-24.047l.4.572C560.777,446.38,560.336,464.846,560.333,465.033Z" transform="translate(-220.883 -198.383)" fill="#6c63ff"/>
    <circle id="Ellipse_12" data-name="Ellipse 12" cx="3.493" cy="3.493" r="3.493" transform="translate(346.582 235.372)" fill="#6c63ff"/>
    <path id="Tracé_191" data-name="Tracé 191" d="M572.241,451.594a10.875,10.875,0,0,1-5.611.242,9.911,9.911,0,0,1,10.19-3.5,10.875,10.875,0,0,1-4.579,3.253Z" transform="translate(-222.873 -200.395)" fill="#6c63ff"/>
    <path id="Tracé_192" data-name="Tracé 192" d="M700.333,465.033l-.7-.014c.015-.774.452-19.007,7.63-24.047l.4.572C700.777,446.38,700.336,464.846,700.333,465.033Z" transform="translate(-260.7 -198.383)" fill="#6c63ff"/>
    <circle id="Ellipse_13" data-name="Ellipse 13" cx="3.493" cy="3.493" r="3.493" transform="translate(446.765 235.372)" fill="#6c63ff"/>
    <path id="Tracé_193" data-name="Tracé 193" d="M712.241,451.594a10.876,10.876,0,0,1-5.611.242,9.911,9.911,0,0,1,10.19-3.5A10.875,10.875,0,0,1,712.241,451.594Z" transform="translate(-262.689 -200.395)" fill="#6c63ff"/>
    <rect id="Rectangle_32" data-name="Rectangle 32" width="62.973" height="7.156" transform="translate(204.661 357.013)" fill="#6c63ff"/>
    <rect id="Rectangle_33" data-name="Rectangle 33" width="105.908" height="4.294" transform="translate(204.661 369.178)" fill="#f2f2f2"/>
    <rect id="Rectangle_34" data-name="Rectangle 34" width="100.184" height="4.294" transform="translate(204.661 378.481)" fill="#f2f2f2"/>
    <rect id="Rectangle_35" data-name="Rectangle 35" width="72.991" height="4.294" transform="translate(204.661 387.784)" fill="#f2f2f2"/>
    <circle id="Ellipse_14" data-name="Ellipse 14" cx="22.361" cy="22.361" r="22.361" transform="translate(415.407 344.527)" fill="#6c63ff" opacity="0.4"/>
    <circle id="Ellipse_15" data-name="Ellipse 15" cx="15.686" cy="15.686" r="15.686" transform="translate(380.698 361.882)" fill="#6c63ff" opacity="0.4"/>
    <circle id="Ellipse_16" data-name="Ellipse 16" cx="56.532" cy="56.532" r="56.532" transform="translate(63.33 360.233)" fill="#2f2e41"/>
    <rect id="Rectangle_36" data-name="Rectangle 36" width="17.174" height="30.771" transform="translate(94.101 461.133)" fill="#2f2e41"/>
    <rect id="Rectangle_37" data-name="Rectangle 37" width="17.174" height="30.771" transform="translate(128.45 461.133)" fill="#2f2e41"/>
    <ellipse id="Ellipse_17" data-name="Ellipse 17" cx="14.312" cy="5.367" rx="14.312" ry="5.367" transform="translate(94.101 486.894)" fill="#2f2e41"/>
    <ellipse id="Ellipse_18" data-name="Ellipse 18" cx="14.312" cy="5.367" rx="14.312" ry="5.367" transform="translate(128.45 486.178)" fill="#2f2e41"/>
    <circle id="Ellipse_19" data-name="Ellipse 19" cx="19.321" cy="19.321" r="19.321" transform="translate(101.973 383.132)" fill="#fff"/>
    <ellipse id="Ellipse_20" data-name="Ellipse 20" cx="6.44" cy="6.44" rx="6.44" ry="6.44" transform="translate(114.853 387.426)" fill="#3f3d56"/>
    <path id="Tracé_194" data-name="Tracé 194" d="M176.787,592.125c-4.565-20.443,10.027-41.1,32.591-46.138s44.557,7.449,49.121,27.892S248.11,601.861,225.546,606.9,181.352,612.567,176.787,592.125Z" transform="translate(-111.763 -227.932)" fill="#6c63ff"/>
    <ellipse id="Ellipse_21" data-name="Ellipse 21" cx="28.266" cy="8.874" rx="28.266" ry="8.874" transform="translate(142.678 376.105) rotate(-65.077)" fill="#2f2e41"/>
    <ellipse id="Ellipse_22" data-name="Ellipse 22" cx="8.874" cy="28.266" rx="8.874" ry="28.266" transform="translate(37.812 350.554) rotate(-27.893)" fill="#2f2e41"/>
    <ellipse id="Ellipse_23" data-name="Ellipse 23" cx="8.874" cy="28.266" rx="8.874" ry="28.266" transform="translate(568.345 351.544) rotate(-21.078)" fill="#2f2e41"/>
    <circle id="Ellipse_24" data-name="Ellipse 24" cx="56.532" cy="56.532" r="56.532" transform="translate(582.632 360.736)" fill="#2f2e41"/>
    <rect id="Rectangle_38" data-name="Rectangle 38" width="17.174" height="30.771" transform="translate(665.134 492.33) rotate(179.84)" fill="#2f2e41"/>
    <rect id="Rectangle_39" data-name="Rectangle 39" width="17.174" height="30.771" transform="translate(630.785 492.427) rotate(179.84)" fill="#2f2e41"/>
    <ellipse id="Ellipse_25" data-name="Ellipse 25" cx="14.312" cy="5.367" rx="14.312" ry="5.367" transform="translate(636.5 487.407) rotate(-0.16)" fill="#2f2e41"/>
    <ellipse id="Ellipse_26" data-name="Ellipse 26" cx="14.312" cy="5.367" rx="14.312" ry="5.367" transform="translate(602.149 486.788) rotate(-0.16)" fill="#2f2e41"/>
    <circle id="Ellipse_27" data-name="Ellipse 27" cx="19.321" cy="19.321" r="19.321" transform="translate(618.372 383.638)" fill="#fff"/>
    <ellipse id="Ellipse_28" data-name="Ellipse 28" cx="6.44" cy="6.44" rx="6.44" ry="6.44" transform="translate(631.253 396.519)" fill="#3f3d56"/>
    <path id="Tracé_195" data-name="Tracé 195" d="M1023.056,592.659c4.507-20.456-10.142-41.071-32.72-46.047s-44.536,7.574-49.043,28.03,10.468,27.953,33.046,32.929S1018.548,613.115,1023.056,592.659Z" transform="translate(-329.2 -228.118)" fill="#6c63ff"/>
    <ellipse id="Ellipse_29" data-name="Ellipse 29" cx="28.266" cy="8.874" rx="28.266" ry="8.874" transform="translate(673.433 395.032) rotate(-25.535)" fill="#2f2e41"/>
    <path id="Tracé_196" data-name="Tracé 196" d="M994.206,710.8c.016,5.533-14.2,16.5-30.009,16.543s-30.674-15.491-30.69-21.024,14.825,1.032,30.634.988S994.185,705.27,994.206,710.8Z" transform="translate(-327.214 -273.218)" fill="#fff"/>
    <circle id="Ellipse_30" data-name="Ellipse 30" cx="78.893" cy="78.893" r="78.893" transform="translate(577.487 256.509)" fill="#6c63ff" opacity="0.4"/>
    <circle id="Ellipse_31" data-name="Ellipse 31" cx="56.532" cy="56.532" r="56.532" transform="translate(79.721 192.918)" fill="#2f2e41"/>
    <rect id="Rectangle_40" data-name="Rectangle 40" width="17.174" height="30.771" transform="translate(103.003 288.52) rotate(10.261)" fill="#2f2e41"/>
    <rect id="Rectangle_41" data-name="Rectangle 41" width="17.174" height="30.771" transform="translate(136.802 294.639) rotate(10.261)" fill="#2f2e41"/>
    <ellipse id="Ellipse_32" data-name="Ellipse 32" cx="5.367" cy="14.312" rx="5.367" ry="14.312" transform="matrix(0.646, -0.763, 0.763, 0.646, 128.326, 325.097)" fill="#2f2e41"/>
    <ellipse id="Ellipse_33" data-name="Ellipse 33" cx="5.367" cy="14.312" rx="5.367" ry="14.312" transform="matrix(0.646, -0.763, 0.763, 0.646, 95.231, 319.106)" fill="#2f2e41"/>
    <circle id="Ellipse_34" data-name="Ellipse 34" cx="19.321" cy="19.321" r="19.321" transform="translate(120.89 216.301)" fill="#fff"/>
    <ellipse id="Ellipse_35" data-name="Ellipse 35" cx="6.44" cy="6.44" rx="6.44" ry="6.44" transform="translate(141.711 222.256)" fill="#3f3d56"/>
    <path id="Tracé_197" data-name="Tracé 197" d="M214.326,348.865c-.85-20.929,17.188-38.656,40.289-39.594s42.517,15.267,43.367,36.2-15.208,25.684-38.309,26.623S215.176,369.794,214.326,348.865Z" transform="translate(-122.668 -160.916)" fill="#6c63ff"/>
    <ellipse id="Ellipse_36" data-name="Ellipse 36" cx="28.266" cy="8.874" rx="28.266" ry="8.874" transform="matrix(0.975, -0.223, 0.223, 0.975, 158.918, 236.817)" fill="#2f2e41"/>
    <ellipse id="Ellipse_37" data-name="Ellipse 37" cx="28.266" cy="8.874" rx="28.266" ry="8.874" transform="matrix(0.975, -0.223, 0.223, 0.975, 47.947, 255.271)" fill="#2f2e41"/>
    <path id="Tracé_198" data-name="Tracé 198" d="M254.877,479.025a12.881,12.881,0,1,0,25.35,4.589c1.267-7-4.145-9.477-11.145-10.744S256.144,472.025,254.877,479.025Z" transform="translate(-134.15 -207.296)" fill="#fff"/>
    <rect id="Rectangle_42" data-name="Rectangle 42" width="52.954" height="47.229" transform="translate(218.641 188.321) rotate(16.689)" fill="#3f3d56"/>
    <path id="Tracé_199" data-name="Tracé 199" d="M398.856,427.579l-.665-.214c.237-.737,5.891-18.077,14.214-20.843l.22.663C404.637,409.84,398.912,427.4,398.856,427.579Z" transform="translate(-174.968 -188.586)" fill="#6c63ff"/>
    <circle id="Ellipse_38" data-name="Ellipse 38" cx="3.493" cy="3.493" r="3.493" transform="translate(238.551 211.938)" fill="#6c63ff"/>
    <path id="Tracé_200" data-name="Tracé 200" d="M416.433,417.98a10.875,10.875,0,0,1-5.445-1.379,9.911,9.911,0,0,1,10.764-.422A10.876,10.876,0,0,1,416.433,417.98Z" transform="translate(-178.608 -190.938)" fill="#6c63ff"/>
</svg>
