<svg id="undraw_Artificial_intelligence_re_enpp" xmlns="http://www.w3.org/2000/svg" width="407.031" height="185.497" viewBox="0 0 407.031 185.497">
    <circle id="Ellipse_149" data-name="Ellipse 149" cx="18.248" cy="18.248" r="18.248" transform="translate(355.959 68.338)" fill="#f2f2f2"/>
    <circle id="Ellipse_150" data-name="Ellipse 150" cx="4.802" cy="4.802" r="4.802" transform="translate(369.405 81.784)" fill="#e6e6e6"/>
    <path id="Tracé_831" data-name="Tracé 831" d="M845.577,383.623a7.129,7.129,0,0,1,2.263,6.762,11.742,11.742,0,0,1-4.031,7.05,39.417,39.417,0,0,1-8.17,5.062,59.427,59.427,0,0,0-7.479,4.54,57.963,57.963,0,0,0-19.92,26.555c-3.93,10.5-4.985,22.412-2,33.291,1.478,5.383,4.467,11.19,10.035,13.216,4.439,1.615,10.5.574,12.759-4,2.428-4.914-.959-10.438-5.323-12.878-5.656-3.162-12.412-.852-17.5,2.35-5.6,3.524-10.1,8.582-15.95,11.74a20.043,20.043,0,0,1-8.569,2.5,21.459,21.459,0,0,1-8.12-1.254,27.5,27.5,0,0,1-13.283-10.311c-3.714-5.4-5.376-12.017-5.68-18.5-.678-14.505,5.052-28.075,9.649-41.527a126.88,126.88,0,0,0,5.532-21.542,111.6,111.6,0,0,0,1.222-22.276c-.3-6.585-.954-13.472-3.86-19.486-2.556-5.289-7.227-9.617-13.132-10.708a13.1,13.1,0,0,0-7.894.907c-.842.384-.111,1.626.727,1.244,5.226-2.384,11.4-.064,15.263,3.785,4.507,4.5,6.163,11.133,6.9,17.258a108.33,108.33,0,0,1-3.826,43.215c-4.008,13.615-10.313,26.661-11.768,40.926a46.762,46.762,0,0,0,1.758,19.479,30.425,30.425,0,0,0,9.642,14.2,26.1,26.1,0,0,0,14.969,6.032c6.173.292,11.586-2.459,16.375-6.12,5.129-3.921,9.848-8.758,16.061-10.957a14.032,14.032,0,0,1,8.967-.505,11.252,11.252,0,0,1,5.98,4.808,7.214,7.214,0,0,1,.576,6.983,7.477,7.477,0,0,1-5.489,3.768,10.651,10.651,0,0,1-7.071-1.2,14.933,14.933,0,0,1-5.63-6.378c-2.564-5.066-3.426-11.1-3.557-16.719a55.362,55.362,0,0,1,2.088-16.257,57.363,57.363,0,0,1,17.33-27.626,50.878,50.878,0,0,1,6.71-4.941c2.583-1.592,5.341-2.865,7.975-4.367a21.644,21.644,0,0,0,6.93-5.678,12.213,12.213,0,0,0,2.347-7.179A8.051,8.051,0,0,0,846.6,382.6c-.712-.581-1.738.432-1.019,1.019Z" transform="translate(-472.247 -296.935)" fill="#ccc"/>
    <path id="Tracé_832" data-name="Tracé 832" d="M597.1,612.166a41.941,41.941,0,0,0,21.355,6.694,10.015,10.015,0,0,1-.456.941,11.991,11.991,0,0,1-22.541-5.7v-1.935Z" transform="translate(-394.123 -441.544)" fill="#3f3d56"/>
    <path id="Tracé_833" data-name="Tracé 833" d="M667.263,613.346v1.369a11.986,11.986,0,0,1-22.512,5.738,10.033,10.033,0,0,1-.476-.965c.351.01.7.014,1.047.014A42,42,0,0,0,667.263,613.346Z" transform="translate(-419.499 -442.158)" fill="#3f3d56"/>
    <path id="Tracé_834" data-name="Tracé 834" d="M724.606,311.846c-.36-.053-.725-.086-1.09-.11a40.329,40.329,0,0,1,.8,30.114c.365-.043.725-.1,1.085-.168a15.128,15.128,0,0,0-.8-29.835Z" transform="translate(-460.688 -285.382)" fill="#3f3d56"/>
    <path id="Tracé_835" data-name="Tracé 835" d="M554.093,311.736c-.365.024-.73.058-1.09.11a15.128,15.128,0,0,0-.8,29.835c.36.067.72.125,1.085.168A40.328,40.328,0,0,1,554.093,311.736Z" transform="translate(-365.274 -285.382)" fill="#3f3d56"/>
    <path id="Tracé_836" data-name="Tracé 836" d="M639.845,284.518a41.3,41.3,0,1,0,3.2,15.943,41.3,41.3,0,0,0-3.2-15.943Zm-.288,30a40.328,40.328,0,1,1,2.531-14.06A40.328,40.328,0,0,1,639.557,314.521Z" transform="translate(-375.927 -258.054)" fill="#3f3d56"/>
    <path id="Tracé_837" data-name="Tracé 837" d="M635.618,325.666H593.36a8.4,8.4,0,0,0,0,16.807h42.258a8.4,8.4,0,1,0,0-16.807Z" transform="translate(-388.665 -292.623)" fill="#3f3d56"/>
    <path id="Tracé_838" data-name="Tracé 838" d="M599.7,448.166a43.217,43.217,0,0,0-1.95,86.389c.456.024.917.038,1.378.038.192.01.379.01.571.01a43.218,43.218,0,1,0,0-86.437Zm21.94,79.32a42,42,0,0,1-21.94,6.156c-.351,0-.7,0-1.047-.014q-.223,0-.446-.014a42.283,42.283,0,1,1,23.434-6.127Z" transform="translate(-373.872 -356.298)" fill="#3f3d56"/>
    <path id="Tracé_839" data-name="Tracé 839" d="M683.806,505.256H664.918a4.962,4.962,0,0,1,0-9.924h18.888a4.962,4.962,0,1,1,0,9.924Z" transform="translate(-427.65 -380.815)" fill="#3f3d56"/>
    <circle id="Ellipse_151" data-name="Ellipse 151" cx="2.518" cy="2.518" r="2.518" transform="translate(236.01 116.961)" fill="#f2f2f2"/>
    <circle id="Ellipse_152" data-name="Ellipse 152" cx="2.518" cy="2.518" r="2.518" transform="translate(244.194 116.961)" fill="#f2f2f2"/>
    <circle id="Ellipse_153" data-name="Ellipse 153" cx="2.518" cy="2.518" r="2.518" transform="translate(252.379 116.961)" fill="#6c63ff"/>
    <path id="Tracé_840" data-name="Tracé 840" d="M255.245,568.676a17.429,17.429,0,0,0,6.253-15.025c-.688-5.611-4.948-10.77-10.475-11.962s-11.826,2.107-13.5,7.506c-.924-10.408-1.988-21.253-7.522-30.116a31.894,31.894,0,0,0-23.094-14.8,28.617,28.617,0,0,0-25.174,10.277c-5.866,7.424-7.3,18.216-3.194,26.739,3.026,6.279,8.6,10.951,14.444,14.753,18.638,12.128,41.758,16.225,63.758,12.988Z" transform="translate(-176.191 -385.383)" fill="#f2f2f2"/>
    <path id="Tracé_841" data-name="Tracé 841" d="M205.4,510.616a152.525,152.525,0,0,1,21.256,21.107A152.971,152.971,0,0,1,250.6,571.731c.431,1.056-1.284,1.516-1.711.472a152.113,152.113,0,0,0-44.74-60.332c-.886-.721.376-1.97,1.254-1.254Z" transform="translate(-190.567 -388.648)" fill="#fff"/>
    <circle id="Ellipse_154" data-name="Ellipse 154" cx="14.886" cy="14.886" r="14.886" transform="translate(62.703 1.921)" fill="#2f2e41"/>
    <path id="Tracé_842" data-name="Tracé 842" d="M408.462,385.688a5.178,5.178,0,0,1-1.032,1.139,5.283,5.283,0,0,1-7.792-1.2,4.922,4.922,0,0,1-.258-.45l-23.458-2.263a8.65,8.65,0,0,1-7.629-6.963l-1.331-7.019,9.155-1.424,1.643,5.622,22.871,5.618a5.027,5.027,0,0,1,.562-.427,5.283,5.283,0,0,1,7.27,7.367Z" transform="translate(-275.353 -314.373)" fill="#ffb8b8"/>
    <path id="Tracé_843" data-name="Tracé 843" d="M372.579,356.313l-10.226,2.763a2.163,2.163,0,0,1-2.65-1.523l-3.582-13.259a5.954,5.954,0,0,1,11.047-4.268l6.771,13.216a2.161,2.161,0,0,1-1.36,3.072Z" transform="translate(-269.61 -298.403)" fill="#2f2e41"/>
    <path id="Tracé_844" data-name="Tracé 844" d="M202.09,349.553h5.887l2.8-22.708h-8.689Z" transform="translate(-105.045 -169.892)" fill="#ffb8b8"/>
    <path id="Tracé_845" data-name="Tracé 845" d="M0,0H18.5V7.149H7.149A7.149,7.149,0,0,1,0,0H0Z" transform="translate(114.285 185.127) rotate(179.997)" fill="#2f2e41"/>
    <path id="Tracé_846" data-name="Tracé 846" d="M92.822,339.19l5.508,2.079,10.642-20.254-8.129-3.069Z" transform="translate(-48.249 -165.267)" fill="#ffb8b8"/>
    <path id="Tracé_847" data-name="Tracé 847" d="M0,0H18.5V7.149H7.149A7.149,7.149,0,0,1,0,0H0Z" transform="translate(58.77 185.126) rotate(-159.315)" fill="#2f2e41"/>
    <path id="Tracé_848" data-name="Tracé 848" d="M322.12,507.094a2.16,2.16,0,0,1-2.053-1.5l-15.015-46.37a.72.72,0,0,0-1.337-.085L282.9,503.419a2.163,2.163,0,0,1-2.639,1.131l-8.2-2.732a2.165,2.165,0,0,1-1.406-2.6l12.747-48.283a110.012,110.012,0,0,0,2.883-15.571,35.3,35.3,0,0,1,11.389-22.511,16.425,16.425,0,0,0,5.17-9.826l.034-.242,18.667,2.947,11.824,96.487a2.171,2.171,0,0,1-1.583,2.349l-9.111,2.453A2.15,2.15,0,0,1,322.12,507.094Z" transform="translate(-225.261 -332.708)" fill="#2f2e41"/>
    <circle id="Ellipse_155" data-name="Ellipse 155" cx="11.794" cy="11.794" r="11.794" transform="translate(71.709 8.034)" fill="#ffb8b8"/>
    <path id="Tracé_849" data-name="Tracé 849" d="M349.141,370.149l-.111,0-18.5-.925a2.149,2.149,0,0,1-2.042-1.938l-2.528-24.648a11.127,11.127,0,0,1,14.082-11.847h0a10.793,10.793,0,0,1,3.96,2.037c13.017,10.69,8.82,30.06,7.224,35.742A2.152,2.152,0,0,1,349.141,370.149Z" transform="translate(-254.007 -295.07)" fill="#6c63ff"/>
    <path id="Tracé_850" data-name="Tracé 850" d="M322.675,400.223a5.178,5.178,0,0,1-1.521-.228,5.283,5.283,0,0,1-3.317-7.152,4.92,4.92,0,0,1,.232-.464l-11.11-20.784a8.65,8.65,0,0,1,1.571-10.209l5.106-5,6.257,6.833-3.771,4.482,7.992,22.154a5.031,5.031,0,0,1,.667.231,5.283,5.283,0,0,1-2.107,10.133Z" transform="translate(-243.641 -308.593)" fill="#ffb8b8"/>
    <path id="Tracé_851" data-name="Tracé 851" d="M319.835,355.715l-7.965-6.984a2.163,2.163,0,0,1-.2-3.049l9.055-10.327a5.954,5.954,0,0,1,9.672,6.833l-7.253,12.958a2.161,2.161,0,0,1-3.31.569Z" transform="translate(-246.334 -296.605)" fill="#2f2e41"/>
    <path id="Tracé_852" data-name="Tracé 852" d="M325.137,290.83c1.076.382,2.4.718,3.242-.073.827-.773.676-2.185.189-3.226a14.584,14.584,0,0,1-1.474-3.1,4.771,4.771,0,0,1,1.751-4.369,12.955,12.955,0,0,1,4.272-2.15l8.256-2.935c2.044-.726,4.246-1.58,5.39-3.492,1.655-2.766.142-6.721-2.572-8.335s-6.143-1.313-9.071-.178a46.859,46.859,0,0,1-4.836,1.935c-3.306.872-7.065.09-9.97,1.954-2.529,1.623-3.7,4.933-3.617,8.031a24.825,24.825,0,0,0,2.429,8.881,16.514,16.514,0,0,0,2.693,4.731,5.57,5.57,0,0,0,4.714,2.032Z" transform="translate(-249.223 -259.546)" fill="#2f2e41"/>
    <circle id="Ellipse_156" data-name="Ellipse 156" cx="9.604" cy="9.604" r="9.604" transform="translate(55.5)" fill="#2f2e41"/>
    <path id="Path_22" data-name="Path 22" d="M454.091,382.4l-.17-.023.642-4.669a2.728,2.728,0,0,0-2.331-3.074l-9.892-1.36a2.728,2.728,0,0,0-3.074,2.331l-3.521,25.614a2.728,2.728,0,0,0,2.331,3.074l9.892,1.36a2.728,2.728,0,0,0,3.074-2.331l2.423-17.622.17.023Z" transform="translate(-311.092 -317.356)" fill="#3f3d56"/>
    <path id="Path_23" data-name="Path 23" d="M453.176,377.555l-1.232-.169a.923.923,0,0,1-1.02,1.143l-5.405-.743a.923.923,0,0,1-.674-1.376l-1.15-.158a1.943,1.943,0,0,0-2.19,1.66l-3.354,24.4a1.943,1.943,0,0,0,1.66,2.189l9.481,1.3a1.943,1.943,0,0,0,2.19-1.66h0l3.354-24.4a1.943,1.943,0,0,0-1.66-2.189Z" transform="translate(-312.347 -318.908)" fill="#fff"/>
    <circle id="Ellipse_157" data-name="Ellipse 157" cx="5.282" cy="5.282" r="5.282" transform="translate(128.822 68.338)" fill="#6c63ff"/>
    <path id="Tracé_853" data-name="Tracé 853" d="M452.425,410.013a.548.548,0,0,1-.33-.109l-.006,0-1.241-.95a.552.552,0,0,1,.671-.876l.8.617,1.9-2.478a.551.551,0,0,1,.773-.1l-.012.016.012-.016a.552.552,0,0,1,.1.773l-2.235,2.915a.552.552,0,0,1-.439.215Z" transform="translate(-318.844 -334.378)" fill="#fff"/>
    <path id="Tracé_854" data-name="Tracé 854" d="M585.74,641.906H182.707a.572.572,0,1,1,0-1.143H585.74a.572.572,0,1,1,0,1.143Z" transform="translate(-179.281 -456.409)" fill="#ccc"/>
</svg>
