<svg id="undraw_authentication_fsn5" xmlns="http://www.w3.org/2000/svg" xmlns:xlink="http://www.w3.org/1999/xlink" width="1008.88" height="696.457" viewBox="0 0 1008.88 696.457">
    <defs>
        <linearGradient id="linear-gradient" y1="0.5" x2="1" y2="0.5" gradientUnits="objectBoundingBox">
            <stop offset="0" stop-color="gray" stop-opacity="0.251"/>
            <stop offset="0.54" stop-color="gray" stop-opacity="0.122"/>
            <stop offset="1" stop-color="gray" stop-opacity="0.102"/>
        </linearGradient>
    </defs>
    <path id="Tracé_502"  d="M587.56,142.285c-64.668.087-126.913-18.245-186.45-38.61S282.493,60.505,219.028,50.842C178.211,44.63,131.8,45.2,99.892,67.755,69.18,89.452,60.287,125.363,56,158.54c-3.227,24.959-4.715,51.154,7.371,73.985,8.392,15.849,22.753,28.912,32.875,44.017,35.331,52.547,14.084,119.672-20.252,173.439-16.1,25.227-34.959,49.407-47.132,76.079S11.693,582.976,24.108,609.3c12.3,26.092,40.09,45.029,69.91,57.963,60.558,26.317,131.065,31.957,199.678,34.129,151.88,4.819,304.055-5.009,455.822-14.837,56.163-3.633,112.578-7.293,167.582-17.821,30.539-5.84,61.986-14.508,83.64-33.506,27.485-24.12,33.108-63.5,13.107-91.806-33.541-47.478-121.982-56.432-146.032-107.8-13.262-28.281-1.825-60.714,15.018-87.974,36.127-58.491,98.312-110.882,99.359-176.3.718-44.926-31.62-88.753-79.92-108.278C851.646,42.615,782.618,47.874,747.148,85.992,710.675,125.259,644.657,142.224,587.56,142.285Z" transform="translate(-16.91 -47.454)" fill="#6c63ff" opacity="0.1"/>
    <path id="Tracé_503"  d="M1006.139,692.225s-10.632-7.016-21.169-2.024c0,0,3.244,6.246,16.584,5.658Z" transform="translate(-147.483 -133.907)" fill="#6c63ff"/>
    <path id="Tracé_504"  d="M1009.9,693.25s3.236,12.319-4.879,20.7c0,0-4.879-5.078,0-17.519Z" transform="translate(-149.895 -134.56)" fill="#6c63ff"/>
    <path id="Tracé_505"  d="M1022.468,678.379s-.787-10.477-24.448-7c0,0-.113,6.756,8.193,9.957S1018.324,681.839,1022.468,678.379Z" transform="translate(-149.243 -131.515)" fill="#6c63ff"/>
    <path id="Tracé_506"  d="M1026.918,679.5s10,3.21,1.081,25.4c0,0-6.6-1.471-7.786-10.3S1022.541,682.718,1026.918,679.5Z" transform="translate(-152.206 -132.705)" fill="#6c63ff"/>
    <path id="Tracé_507"  d="M1039.876,659.887s1.358-17.242-22.822-15.477c0,0-1.73,15.572,18.557,19.621Z" transform="translate(-151.806 -127.955)" fill="#6c63ff"/>
    <path id="Tracé_508"  d="M1057.625,637.512s-3.313-19.543-27.485-13.721c0,0-.086,16.9,23.54,18.375Z" transform="translate(-153.576 -125.045)" fill="#6c63ff"/>
    <path id="Tracé_509"  d="M1070.811,614.314s-5.554-19.033-29.5-13.34c0,0,5.7,17.121,27.909,16.852Z" transform="translate(-155.083 -121.97)" fill="#6c63ff"/>
    <path id="Tracé_510"  d="M1083.779,591.51s-5.424-19.751-28.549-13.842c0,0,7.717,18.764,27.018,17.181Z" transform="translate(-156.96 -118.821)" fill="#6c63ff"/>
    <path id="Tracé_511"  d="M1092.479,569.207s-4.17-24.154-25.729-18.808c0,0,6.264,21.974,24.145,22.329Z" transform="translate(-158.514 -115.188)" fill="#6c63ff"/>
    <path id="Tracé_512"  d="M1100.059,543.293s-5.009-24.344-26.819-17.3c0,0,8.547,23.012,25.27,20.633Z" transform="translate(-159.389 -111.827)" fill="#6c63ff"/>
    <path id="Tracé_513"  d="M1105.132,518.234s-7.95-24.353-24.812-23.7c0,0,8.123,25.72,23.4,28.549Z" transform="translate(-160.344 -107.756)" fill="#6c63ff"/>
    <path id="Tracé_514"  d="M1108.592,494.013s-8.651-29.31-22.372-27.052c0,0,5.987,22.407,21.887,31.62Z" transform="translate(-161.14 -104.021)" fill="#6c63ff"/>
    <path id="Tracé_515"  d="M1110.448,466.04s-8.115-24.422-21.628-25.4c0,0,5.52,24.033,21.36,31.75Z" transform="translate(-161.491 -100.487)" fill="#6c63ff"/>
    <path id="Tracé_516"  d="M1112.742,439.742s-10.113-24.448-19.032-25c0,0,4.395,24.076,18.167,29.016Z" transform="translate(-162.15 -96.994)" fill="#6c63ff"/>
    <path id="Tracé_517"  d="M1114.637,414.637s-6.22-26.551-15.157-28.757c0,0,1.22,21.723,14.257,30.746Z" transform="translate(-162.929 -93.101)" fill="#6c63ff"/>
    <path id="Tracé_518"  d="M1118.751,383.2s-6.541-21.169-13.781-24.4c0,0,1.427,24.959,12.112,29.57Z" transform="translate(-163.669 -89.449)" fill="#6c63ff"/>
    <path id="Tracé_519"  d="M1123.281,360.181l1.315-37.321s-13.539,28.134-2.293,43.87Z" transform="translate(-165.405 -84.601)" fill="#6c63ff"/>
    <path id="Tracé_520"  d="M1135.389,318.6s9.75-27.251,12.112-28.774c0,0-19.119,17.683-17.25,40.427Z" transform="translate(-167.062 -80.146)" fill="#6c63ff"/>
    <path id="Tracé_521"  d="M1043.589,662.161s17.147-2.241,16.636,21.991c0,0-15.494,2.526-20.555-17.519Z" transform="translate(-154.861 -130.359)" fill="#6c63ff"/>
    <path id="Tracé_522"  d="M1062.234,639.06S1082.045,639,1080.4,663.8c0,0-16.636,2.976-22.121-20.054Z" transform="translate(-157.371 -127.251)" fill="#6c63ff"/>
    <path id="Tracé_523"  d="M1075.382,618.159s17.986-8.435,29.492,13.34c0,0-16.61,7.025-31.084-9.819Z" transform="translate(-159.463 -124.215)" fill="#6c63ff"/>
    <path id="Tracé_524"  d="M1088.453,593.757s18.419-8.971,29.232,12.293c0,0-19.188,6.61-30.755-8.928Z" transform="translate(-161.236 -120.887)" fill="#6c63ff"/>
    <path id="Tracé_525"  d="M1096.093,571.706s17.726-16.93,31.871.19c0,0-18.107,13.937-32.684,3.582Z" transform="translate(-162.362 -117.158)" fill="#6c63ff"/>
    <path id="Tracé_526"  d="M1102.98,544.357s17.83-17.3,31.862.8c0,0-20.01,14.214-32.5,2.838Z" transform="translate(-163.314 -113.471)" fill="#6c63ff"/>
    <path id="Tracé_527"  d="M1106.93,518.4s13.738-21.628,29.916-16.8c0,0-14.257,22.9-29.76,21.879Z" transform="translate(-163.933 -108.615)" fill="#6c63ff"/>
    <path id="Tracé_528"  d="M1111.555,494.5s13.842-27.234,26.94-22.493c0,0-9.984,20.936-27.295,27.087Z" transform="translate(-164.509 -104.643)" fill="#6c63ff"/>
    <path id="Tracé_529"  d="M1112.5,465.392s14.231-21.438,27.563-18.816c0,0-11.636,21.74-28.947,25.019Z" transform="translate(-164.498 -101.258)" fill="#6c63ff"/>
    <path id="Tracé_530"  d="M1114,439.313s11.03-24.059,19.993-24.223c0,0-5.295,23.886-19.249,28.307Z" transform="translate(-164.887 -97.041)" fill="#6c63ff"/>
    <path id="Tracé_531"  d="M1116.5,414.714s12.259-24.362,21.472-24.414c0,0-6.272,20.832-21.066,26.55Z" transform="translate(-165.224 -93.698)" fill="#6c63ff"/>
    <path id="Tracé_532"  d="M1118.63,385.261s9.17-20.157,16.766-22.441c0,0-4.585,24.569-15.754,27.788Z" transform="translate(-165.511 -89.991)" fill="#6c63ff"/>
    <path id="Tracé_533"  d="M1124.923,360.282l20.495-31.222s-5.251,30.8-23.488,37.2Z" transform="translate(-165.957 -85.437)" fill="#6c63ff"/>
    <path id="Tracé_534"  d="M1140.1,323.023s23.817-16.437,24.682-19.093c0,0-12.112,23.021-34.6,27.087Z" transform="translate(-167.069 -82.048)" fill="#6c63ff"/>
    <path id="Tracé_535"  d="M1143.2,313.355s27.346-26.291,34.328-26.265c0,0-22.553,1.029-34.985,24.863Z" transform="translate(-168.736 -79.776)" fill="#6c63ff"/>
    <path id="Tracé_536"  d="M1118.94,382.706l.995.13c5.139-40.219,12.631-64.019,21.092-66.934l-.329-.952C1131.726,318.064,1124.183,341.5,1118.94,382.706Z" transform="translate(-165.553 -83.534)" fill="#444053"/>
    <path id="Tracé_537"  d="M1110.2,488.989l1.506.121c.32-3.755.562-7.6.727-11.428,1.436-33.29,3.659-63.863,6.583-86.78l-.865-1.081c-2.933,22.969-5.788,54.459-7.224,87.8C1110.762,481.427,1110.52,485.251,1110.2,488.989Z" transform="translate(-164.374 -93.633)" fill="#444053"/>
    <path id="Tracé_538"  d="M976.873,686.153c.26-.112,26.758-11.947,54.26-40.168a218.2,218.2,0,0,0,39.665-56.233c12.717-25.893,20.469-57.712,23.064-88.623l-1.566.735c-5.84,69.382-37.425,116.791-62.539,142.615-27.234,27.969-53.438,39.683-53.7,39.8Z" transform="translate(-146.282 -108.646)" fill="#444053"/>
    <path id="Tracé_539"  d="M925.551,132.69H94.275A7.405,7.405,0,0,0,86.87,140.1v21.576H932.956V140.1A7.405,7.405,0,0,0,925.551,132.69Z" transform="translate(-26.346 -58.951)" fill="#3f3d56"/>
    <path id="Tracé_540"  d="M86.87,166.19V651.729A14.932,14.932,0,0,0,101.8,666.661H918.024a14.932,14.932,0,0,0,14.932-14.932V166.19Z" transform="translate(-26.346 -63.469)" fill="#fff"/>
    <circle id="Ellipse_111" cx="3.46" cy="3.46" r="3.46" transform="translate(70.464 84.553)" fill="#fa5959" opacity="0.8"/>
    <circle id="Ellipse_112" cx="3.46" cy="3.46" r="3.46" transform="translate(79.98 84.553)" fill="#fed253" opacity="0.8"/>
    <circle id="Ellipse_113" cx="3.46" cy="3.46" r="3.46" transform="translate(89.496 84.553)" fill="#8ccf4d" opacity="0.8"/>
    <rect id="Rectangle_98"  width="679.983" height="299.002" transform="translate(139.172 183.678)" opacity="0.05"/>
    <rect id="Rectangle_99"  width="669.602" height="292.41" transform="translate(144.362 185.945)" fill="#3f3d56"/>
    <path id="Tracé_541"  d="M384.394,349.38a66.614,66.614,0,1,0,66.614,66.614A66.614,66.614,0,0,0,384.394,349.38Zm11.947,68.215v31.542H372.793V417.595a19.508,19.508,0,1,1,23.549,0Z" transform="translate(-57.492 -88.178)" fill="#6c63ff"/>
    <path id="Tracé_542"  d="M384.394,349.38a66.614,66.614,0,1,0,66.614,66.614A66.614,66.614,0,0,0,384.394,349.38Zm11.947,68.215v31.542H372.793V417.595a19.508,19.508,0,1,1,23.549,0Z" transform="translate(-57.492 -88.178)" opacity="0.05"/>
    <path id="Tracé_543"  d="M381.427,327.38a85.647,85.647,0,1,0,85.647,85.647,85.647,85.647,0,0,0-85.647-85.647Zm15.356,87.706v40.548H366.5V415.086a25.088,25.088,0,1,1,30.279,0Z" transform="translate(-54.524 -85.211)" fill="#6c63ff"/>
    <rect id="Rectangle_100"  width="276.838" height="29.414" transform="translate(448.019 316.578)" fill="#fff"/>
    <rect id="Rectangle_101"  width="59.693" height="29.414" transform="translate(665.164 370.215)" fill="#6c63ff"/>
    <path id="Tracé_544"  d="M564.324,428.936h-5.009l4.455-4.447a.442.442,0,0,0,0-.614.433.433,0,0,0-.614,0L558.7,428.33v-5.018a.433.433,0,0,0-.432-.433.441.441,0,0,0-.433.433v5.018l-4.447-4.481a.432.432,0,0,0-.614,0,.441.441,0,0,0,0,.614l4.455,4.447h-5.018a.441.441,0,0,0-.433.433.432.432,0,0,0,.433.433h5.018l-4.455,4.455a.441.441,0,0,0,0,.614.45.45,0,0,0,.614,0l4.447-4.455V435.4a.433.433,0,1,0,.865,0v-5.009l4.455,4.455a.45.45,0,0,0,.614,0,.441.441,0,0,0,0-.614l-4.455-4.455h5.009a.42.42,0,1,0,0-.839Z" transform="translate(-89.054 -98.092)" fill="#6c63ff"/>
    <path id="Tracé_545"  d="M585.324,428.936h-5.009l4.455-4.447a.442.442,0,0,0,0-.614.433.433,0,0,0-.614,0L579.7,428.33v-5.018a.433.433,0,0,0-.432-.433.441.441,0,0,0-.433.433v5.018l-4.447-4.481a.432.432,0,0,0-.614,0,.441.441,0,0,0,0,.614l4.455,4.447h-5.018a.441.441,0,0,0-.433.433.432.432,0,0,0,.433.433h5.018l-4.455,4.455a.441.441,0,0,0,0,.614.45.45,0,0,0,.614,0l4.447-4.455V435.4a.433.433,0,1,0,.865,0v-5.009l4.455,4.455a.45.45,0,0,0,.614,0,.441.441,0,0,0,0-.614l-4.455-4.455h5.009a.42.42,0,1,0,0-.839Z" transform="translate(-91.887 -98.092)" fill="#6c63ff"/>
    <path id="Tracé_546"  d="M606.324,428.936h-5.009l4.455-4.447a.441.441,0,0,0,0-.614.433.433,0,0,0-.614,0L600.7,428.33v-5.018a.433.433,0,0,0-.433-.433.441.441,0,0,0-.433.433v5.018l-4.447-4.481a.432.432,0,0,0-.614,0,.441.441,0,0,0,0,.614l4.455,4.447h-5.018a.441.441,0,0,0-.433.433.433.433,0,0,0,.433.433h5.018l-4.455,4.455a.441.441,0,0,0,0,.614.45.45,0,0,0,.614,0l4.447-4.455V435.4a.433.433,0,0,0,.865,0v-5.009l4.455,4.455a.45.45,0,0,0,.614,0,.441.441,0,0,0,0-.614l-4.455-4.455h5.009a.42.42,0,1,0,0-.839Z" transform="translate(-94.719 -98.092)" fill="#6c63ff"/>
    <path id="Tracé_547"  d="M627.324,428.936h-5.009l4.455-4.447a.441.441,0,0,0,0-.614.433.433,0,0,0-.614,0L621.7,428.33v-5.018a.433.433,0,0,0-.432-.433.441.441,0,0,0-.433.433v5.018l-4.447-4.481a.432.432,0,0,0-.614,0,.441.441,0,0,0,0,.614l4.455,4.447h-5.018a.441.441,0,0,0-.433.433.433.433,0,0,0,.433.433h5.018l-4.455,4.455a.441.441,0,0,0,0,.614.45.45,0,0,0,.614,0l4.447-4.455V435.4a.433.433,0,1,0,.865,0v-5.009l4.455,4.455a.45.45,0,0,0,.614,0,.441.441,0,0,0,0-.614l-4.455-4.455h5.009a.42.42,0,1,0,0-.839Z" transform="translate(-97.552 -98.092)" fill="#6c63ff"/>
    <path id="Tracé_548"  d="M648.324,428.936h-5.009l4.455-4.447a.441.441,0,0,0,0-.614.433.433,0,0,0-.614,0L642.7,428.33v-5.018a.433.433,0,0,0-.432-.433.441.441,0,0,0-.433.433v5.018l-4.447-4.481a.432.432,0,0,0-.614,0,.441.441,0,0,0,0,.614l4.455,4.447h-5.018a.441.441,0,0,0-.433.433.433.433,0,0,0,.433.433h5.018l-4.455,4.455a.441.441,0,0,0,0,.614.45.45,0,0,0,.614,0l4.447-4.455V435.4a.433.433,0,1,0,.865,0v-5.009l4.455,4.455a.45.45,0,0,0,.614,0,.441.441,0,0,0,0-.614l-4.455-4.455h5.009a.42.42,0,1,0,0-.839Z" transform="translate(-100.384 -98.092)" fill="#6c63ff"/>
    <path id="Tracé_549"  d="M669.324,428.936h-5.009l4.455-4.447a.441.441,0,0,0,0-.614.433.433,0,0,0-.614,0L663.7,428.33v-5.018a.433.433,0,0,0-.433-.433.441.441,0,0,0-.433.433v5.018l-4.447-4.481a.432.432,0,0,0-.614,0,.441.441,0,0,0,0,.614l4.455,4.447h-5.018a.441.441,0,0,0-.433.433.433.433,0,0,0,.433.433h5.018l-4.455,4.455a.441.441,0,0,0,0,.614.45.45,0,0,0,.614,0l4.447-4.455V435.4a.433.433,0,0,0,.865,0v-5.009l4.455,4.455a.45.45,0,0,0,.614,0,.441.441,0,0,0,0-.614l-4.455-4.455h5.009a.42.42,0,1,0,0-.839Z" transform="translate(-103.217 -98.092)" fill="#6c63ff"/>
    <path id="Tracé_550"  d="M690.324,428.936h-5.009l4.455-4.447a.442.442,0,0,0,0-.614.433.433,0,0,0-.614,0L684.7,428.33v-5.018a.433.433,0,0,0-.432-.433.441.441,0,0,0-.432.433v5.018l-4.447-4.481a.433.433,0,0,0-.614,0,.441.441,0,0,0,0,.614l4.455,4.447h-5.018a.441.441,0,0,0-.433.433.432.432,0,0,0,.433.433h5.018l-4.455,4.455a.441.441,0,0,0,0,.614.45.45,0,0,0,.614,0l4.447-4.455V435.4a.432.432,0,1,0,.865,0v-5.009l4.455,4.455a.45.45,0,0,0,.614,0,.441.441,0,0,0,0-.614l-4.455-4.455h5.009a.42.42,0,1,0,0-.839Z" transform="translate(-106.049 -98.092)" fill="#6c63ff"/>
    <path id="Tracé_551"  d="M711.324,428.936h-5.009l4.455-4.447a.442.442,0,0,0,0-.614.433.433,0,0,0-.614,0L705.7,428.33v-5.018a.433.433,0,0,0-.432-.433.441.441,0,0,0-.433.433v5.018l-4.447-4.481a.433.433,0,0,0-.614,0,.441.441,0,0,0,0,.614l4.455,4.447h-5.018a.441.441,0,0,0-.433.433.432.432,0,0,0,.433.433h5.018l-4.455,4.455a.441.441,0,0,0,0,.614.45.45,0,0,0,.614,0l4.447-4.455V435.4a.433.433,0,1,0,.865,0v-5.009l4.455,4.455a.45.45,0,0,0,.614,0,.441.441,0,0,0,0-.614l-4.455-4.455h5.009a.42.42,0,1,0,0-.839Z" transform="translate(-108.882 -98.092)" fill="#6c63ff"/>
    <path id="Tracé_552"  d="M732.324,428.936h-5.009l4.455-4.447a.441.441,0,0,0,0-.614.433.433,0,0,0-.614,0L726.7,428.33v-5.018a.433.433,0,0,0-.433-.433.441.441,0,0,0-.433.433v5.018l-4.447-4.481a.433.433,0,0,0-.614,0,.441.441,0,0,0,0,.614l4.455,4.447h-5.018a.441.441,0,0,0-.433.433.433.433,0,0,0,.433.433h5.018l-4.455,4.455a.441.441,0,0,0,0,.614.45.45,0,0,0,.614,0l4.447-4.455V435.4a.433.433,0,1,0,.865,0v-5.009l4.455,4.455a.45.45,0,0,0,.614,0,.441.441,0,0,0,0-.614l-4.455-4.455h5.009a.42.42,0,1,0,0-.839Z" transform="translate(-111.714 -98.092)" fill="#6c63ff"/>
    <path id="Tracé_553"  d="M753.324,428.936h-5.009l4.455-4.447a.441.441,0,0,0,0-.614.433.433,0,0,0-.614,0L747.7,428.33v-5.018a.433.433,0,0,0-.432-.433.441.441,0,0,0-.433.433v5.018l-4.447-4.481a.433.433,0,0,0-.614,0,.441.441,0,0,0,0,.614l4.455,4.447h-5.018a.441.441,0,0,0-.433.433.433.433,0,0,0,.433.433h5.018l-4.455,4.455a.441.441,0,0,0,0,.614.45.45,0,0,0,.614,0l4.447-4.455V435.4a.433.433,0,1,0,.865,0v-5.009l4.455,4.455a.45.45,0,0,0,.614,0,.441.441,0,0,0,0-.614l-4.455-4.455h5.009a.42.42,0,1,0,0-.839Z" transform="translate(-114.547 -98.092)" fill="#6c63ff"/>
    <path id="Tracé_554"  d="M774.324,428.936h-5.009l4.455-4.447a.441.441,0,0,0,0-.614.433.433,0,0,0-.614,0L768.7,428.33v-5.018a.433.433,0,0,0-.432-.433.441.441,0,0,0-.433.433v5.018l-4.447-4.481a.433.433,0,0,0-.614,0,.441.441,0,0,0,0,.614l4.455,4.447h-5.018a.441.441,0,0,0-.433.433.432.432,0,0,0,.433.433h5.018l-4.455,4.455a.441.441,0,0,0,0,.614.45.45,0,0,0,.614,0l4.447-4.455V435.4a.433.433,0,0,0,.865,0v-5.009l4.455,4.455a.45.45,0,0,0,.614,0,.441.441,0,0,0,0-.614l-4.455-4.455h5.009a.42.42,0,1,0,0-.839Z" transform="translate(-117.379 -98.092)" fill="#6c63ff"/>
    <path id="Tracé_555"  d="M916.792,540.176a15.481,15.481,0,0,0-.389-3.106c-.779-2.924-2.535-6.463-5.424-7.345a45.54,45.54,0,0,1-8.6-3.633c-.519-9.274,1.609-18.765-.709-27.753-.865-3.287-2.293-6.436-2.673-9.8-.476-4.187.666-8.651-1-12.51a12.346,12.346,0,0,0-7.31-6.315,38.954,38.954,0,0,0-9.75-1.73c-4.153-.337-17.6-1.929-22.285,1.782h0a4.895,4.895,0,0,0-.865.865h0a3.452,3.452,0,0,0-.277.45l-.043.069a3.5,3.5,0,0,0-.234.562h0a4.377,4.377,0,0,0-.147.649v1.557c.061.779.173,1.557.173,2.327a5.018,5.018,0,0,1-.1,1.142,8,8,0,0,1-1.436,2.8h0l-.156.225c-.1.138-.19.268-.277.407s-.156.242-.225.363-.138.2-.2.311a4.21,4.21,0,0,0-.225.441c0,.086-.1.164-.13.251a4.269,4.269,0,0,0-.26.727,4.829,4.829,0,0,0-.052,2.3,8.565,8.565,0,0,0,1.185,2.725c.216.355.45.7.692,1.047l.606.822a18.658,18.658,0,0,0-.182,2.422,17.9,17.9,0,0,0,6.832,14.065,52.984,52.984,0,0,1-.11,10.98c-.078.761-.173,1.531-.277,2.293s-.182,1.263-.285,1.895a8.782,8.782,0,0,1-3.781-.285,17.792,17.792,0,0,0-1.73-.666c-2.517-.631-5.087,1.877-7.578,1.116a1.016,1.016,0,0,1-.112.346,3.391,3.391,0,0,0-1.73-.51c-1.479-.069-2.682-1.142-3.755-2.154l-3.3-3.106a3.646,3.646,0,0,1-.571-.64,4.492,4.492,0,0,1-.4-1.064,12.261,12.261,0,0,0-3.192-4.576,2.163,2.163,0,0,0-.943-.683,1.453,1.453,0,0,0-.433,0,3.8,3.8,0,0,0-.285-.346,8.171,8.171,0,0,0-.718-.727c-1.575-1.453-1.73-2.7-3.1-4.326a41.575,41.575,0,0,1-3.235-4.888c-.113-.908-.268-1.843-.459-2.786a35.841,35.841,0,0,0-1.895-6.315l-1.73-3.832-.2.2c-1.254-1.869-2.6-2.889-3.8-2.647-2.016.415-3.011,4.326-2.69,9.438l.692,5.191a1.6,1.6,0,0,0,.1.389,9.583,9.583,0,0,0-.19,1.869c0,.727.675,1.263,1.029,1.912a5.407,5.407,0,0,1,.865,2.95c-.043.372-.156.727-.173,1.09a4.2,4.2,0,0,0,.813,2.249l4.326,7.267.865,1.523.052.069a3.693,3.693,0,0,0,1.159,1.332,15.845,15.845,0,0,0,1.427,5.251c.147.329.312.64.485.952a30.6,30.6,0,0,0,4.083,5.3l2.059,2.31c2.033,2.267,4.066,4.542,6.272,6.635a8.4,8.4,0,0,0,2.8,1.964,3.174,3.174,0,0,0,3.149-.458v3.218a1.808,1.808,0,0,1,1.367,2.846c-1.817,4.663-3.651,9.369-6.4,13.548a28.838,28.838,0,0,1,5.364,4.092,24.12,24.12,0,0,1,2.794,3.781c.078.64.138,1.272.173,1.9.64,10.312-3.348,20.547-6.921,30.374-1.029,2.786-2.154,5.7-2.068,8.6a16.888,16.888,0,0,0-1.938,1.393c.709,1.851.432,3.5.355,5.485a9.718,9.718,0,0,1-.718,3.461,24.35,24.35,0,0,1-1.246,2.223c-2.241,3.954-2.734,8.651-3.184,13.167-.268,2.725.787,6.056-.45,8.5-2.137,4.187-4.031,8.651-4.326,13.305a13.341,13.341,0,0,1-.4,3.106c-.268.865-.744,1.6-.986,2.448a10.473,10.473,0,0,0-.173,3.461,33.117,33.117,0,0,1-1.817,12.207c-1.081,3.088-2.275,6.393-1.427,9.568a13.487,13.487,0,0,0-3.659,8.037,12.675,12.675,0,0,1-.277,2.293,11.157,11.157,0,0,1-1.038,2.206,19.308,19.308,0,0,0-2.353,10.381c-2.6,3.521-3.893,7.864-4.663,12.181s-1.107,8.712-2.094,12.977c-1.315,5.641-3.694,11.342-4.161,17.121-2.8,1.791-4.014,5.26-4.551,8.539s-.623,6.722-2,9.75c-.709,1.575-1.73,2.985-2.405,4.594a21.088,21.088,0,0,0-1.038,3.954,15.427,15.427,0,0,0-.268,6.488,9.782,9.782,0,0,1-2.535,1.929c.138-.536.251-1.073.346-1.618-2.232,2.024-6.281,1.315-8.063,3.746a3.651,3.651,0,0,0,.865,5.009,6.931,6.931,0,0,0,1.791.77c4.326,1.384,8.772,2.777,13.219,2.042a3.945,3.945,0,0,0,1.5-.476,4.816,4.816,0,0,0,1.393-1.609q1-1.583,1.99-3.166a41.081,41.081,0,0,0,4.853,1.133c.164,1.384.285,2.768.346,4.153.865.173,2.024.225,2.431-.58a2.1,2.1,0,0,0,.147-.96c0-.614.087-1.428.138-2.258h.173a16.438,16.438,0,0,0,7.656-1.548c-.926-7.665,2.128-15.157,4.775-22.407,2.794-7.63,5.191-15.4,7.6-23.168,1.73-5.468,3.642-10.762,5.338-16.238q3.2-10.381,6.428-20.763c.934-3.045,1.877-6.056,2.95-9.084a141.509,141.509,0,0,1,8.02-17.847c.865-1.635,1.73-3.253,2.44-4.948.865-2.068,1.479-4.23,2.171-6.367a98.634,98.634,0,0,1,5.433-12.786c.061-.112.1-.216.164-.32.7,2.864,1.4,5.77,1.869,8.651a32.874,32.874,0,0,1,.147,10.693c-.415,2.414-1.2,4.8-1.107,7.25.13,3.383,1.938,6.454,2.829,9.715a36.969,36.969,0,0,1,.969,7.44c.242,3.893,2.353,8.262.865,11.869-4.628,11.428-2.388,24.336-5.026,36.335-1.358,6.16-5.52,11.947-5.191,18.245q.346,6.7,1.177,13.375a12.731,12.731,0,0,0,1.082,4.058,14.9,14.9,0,0,0,1.185,1.938c-.381.147-.7.536-.978,1.358a5.338,5.338,0,0,0,1.921,6.056,8.406,8.406,0,0,0,2.5.865,13.169,13.169,0,0,0,3.616.5,8.451,8.451,0,0,0,1.133-.138,41.221,41.221,0,0,0,4.092,1.471,8.885,8.885,0,0,0,.112,1.064,1.323,1.323,0,0,0,.45.978,1.349,1.349,0,0,0,.692.121h4.7v-1.177a3.867,3.867,0,0,0,2.985-.969,4.62,4.62,0,0,0,.865-1.8q1.921-6.514,3.815-13.037a41.681,41.681,0,0,0,1.86-14.88c-1.67-15.944,2-31.94.8-47.928a114.8,114.8,0,0,1,1.471-28.756c.389-2.146.865-4.326,1.038-6.463.381-4.031-.086-8.106.2-12.112.1-1.4.286-2.794.458-4.187a201.076,201.076,0,0,0,1.86-26.083,82.19,82.19,0,0,0-.536-8.651,4.941,4.941,0,0,0,2.362-1.384c.77-1,.571-2.414.562-3.694,0-3.063,1.289-5.952,2.327-8.841a105.065,105.065,0,0,0,3.27-12.164,42.469,42.469,0,0,0,1.453-10.165q0-.519-.052-1.038a2.683,2.683,0,0,0,.8-.865,5.027,5.027,0,0,0,.415-1.6c.311-2.206.631-4.421.943-6.635q.346-2.379.683-4.75l2.751-19.2c.234-1.67.476-3.331.709-4.992l.718-4.966c.078-.588.164-1.177.225-1.73C919.032,548.9,917.016,544.19,916.792,540.176ZM893.84,612.05c-1.021-2.422-1.973-4.905-1.73-7.518h-.1a3.859,3.859,0,0,0-.112-2.44c-.268-.632-.735-1.168-1.021-1.8a6.591,6.591,0,0,1-.467-2.422,66.044,66.044,0,0,1,1.237-15.693c.112-.606.234-1.22.346-1.825a4.521,4.521,0,0,0,.986-.77,7.014,7.014,0,0,0,1.116-1.73c.978-1.964,1.869-3.962,2.691-6,.268-.657.658-1.419,1.324-1.583-.138,5.061.381,10.226-1.678,14.794a9.362,9.362,0,0,0-.865,2.336c-.19,1.289.346,2.6.156,3.876-.1.666-.38,1.28-.493,1.938a1.9,1.9,0,0,0,.5,1.834,1.514,1.514,0,0,0,.372.19c-.052.346-.1.7-.13,1.038-.069.709-.1,1.376-.147,1.791a55.852,55.852,0,0,0-.234,6.367c0,2.293.087,4.585.052,6.921a4.7,4.7,0,0,1-.329,1.964,3.41,3.41,0,0,1-.657.865,22.469,22.469,0,0,0-.822-2.137Z" transform="translate(-120.571 -104.091)" fill="url(#linear-gradient)"/>
    <ellipse id="Ellipse_114"  cx="4.879" cy="13.816" rx="4.879" ry="13.816" transform="matrix(0.98, -0.201, 0.201, 0.98, 694.657, 381.488)" fill="#fbbebe"/>
    <path id="Tracé_556" d="M878.358,839.408a5.238,5.238,0,0,0,1.921,6,8.548,8.548,0,0,0,2.483.865,13.1,13.1,0,0,0,3.607.493c1.5-.069,2.933-.658,4.429-.865a.692.692,0,0,1,.51.069.735.735,0,0,1,.19.606,22.863,22.863,0,0,0,.19,2.544,1.307,1.307,0,0,0,.45.977,1.351,1.351,0,0,0,.692.121h4.689a45.724,45.724,0,0,0-1.341-12.233,2.736,2.736,0,0,0-.346-.865,2.864,2.864,0,0,0-1.5-.865,8.365,8.365,0,0,0-3.625-.632,10.618,10.618,0,0,0-4.066,1.99,6.2,6.2,0,0,1-4.611,1.116C880.469,838.309,879.162,837,878.358,839.408Z" transform="translate(-133.067 -153.761)" fill="#3f3d56"/>
    <path id="Tracé_557" d="M797.914,835.333a12.976,12.976,0,0,1-4.732,3.218l-.8.381a.553.553,0,0,0-.268.216.468.468,0,0,0,.087.389,5.6,5.6,0,0,0,6.35,2.31,3.365,3.365,0,0,0,1.393-.727,4.567,4.567,0,0,0,1.073-2.786,5.7,5.7,0,0,0-.13-3.192C799.688,832.435,799.247,833.663,797.914,835.333Z" transform="translate(-121.47 -153.484)" fill="#fbbebe"/>
    <path id="Tracé_558" d="M815.066,846.069a2.1,2.1,0,0,1-.147.96c-.406.8-1.54.752-2.422.58a58.23,58.23,0,0,0-1.064-8.738c-1.678-.078-2.889,1.514-3.789,2.941l-2.319,3.677a4.791,4.791,0,0,1-1.384,1.609,4.1,4.1,0,0,1-1.5.476c-4.43.735-8.9-.658-13.176-2.042a6.979,6.979,0,0,1-1.791-.761,3.659,3.659,0,0,1-.865-5c1.791-2.422,5.813-1.73,8.046-3.737a20.143,20.143,0,0,1-1.142,4.127c2.985-.45,4.992-3.184,7.4-5.009a4.552,4.552,0,0,1,2.111-1,4.642,4.642,0,0,1,1.73.182,20.3,20.3,0,0,1,7.613,3.746c.908.718,2.327,1.73,2.725,2.838C815.516,842.236,815.066,844.659,815.066,846.069Z" transform="translate(-120.644 -153.562)" fill="#3f3d56"/>
    <circle id="Ellipse_115" cx="17.873" cy="17.873" r="17.873" transform="translate(736.06 371.323)" fill="#fbbebe"/>
    <path id="Tracé_559"  d="M926.2,618.432a42.394,42.394,0,0,1-1.445,10.113,104.371,104.371,0,0,1-3.27,12.112c-1.03,2.881-2.319,5.77-2.31,8.824,0,1.272.208,2.682-.571,3.685a5.382,5.382,0,0,1-2.526,1.445,3.157,3.157,0,0,0-2.128,1.895,13.368,13.368,0,0,1-1.8-3.962q-2.327-7.129-4.326-14.335a1.859,1.859,0,0,1,.121-1.73,2.144,2.144,0,0,1,.753-.424,7.785,7.785,0,0,0,2.4-1.54,3.5,3.5,0,0,0,.8-1.029,4.661,4.661,0,0,0,.337-1.955c0-2.293,0-4.576-.061-6.869a57.4,57.4,0,0,1,.242-6.341c0-.415.078-1.081.147-1.791.13-1.358.389-2.933,1.125-3.461,1.1-.735,4.386.251,5.632.424,2.146.294,4.326.64,6.419,1.047A17.141,17.141,0,0,1,926.2,618.432Z" transform="translate(-137.057 -123.709)" fill="#3f3d56"/>
    <path id="Tracé_560"  d="M842.618,517.668c-.692,1.384-2.353,2.05-3.634,2.924L834.6,523.6a2.925,2.925,0,0,1-2.172.744,2.855,2.855,0,0,1-1.618-1.514.3.3,0,0,0,0-.069l-.908-1.523-4.326-7.25a4.126,4.126,0,0,1-.8-2.232c0-.372.13-.718.164-1.09a5.234,5.234,0,0,0-.865-2.941c-.346-.649-1.038-1.185-1.021-1.912a6.921,6.921,0,0,1,.485-2.794A5.655,5.655,0,0,1,825.428,501c.407-.294.822-.571,1.254-.865a2.475,2.475,0,0,1,.753-.346c.718-.147,1.427.45,2.154.476,3.123,2.094,4.325,6.056,6.782,8.911,1.384,1.626,1.522,2.872,3.088,4.326.251.225.493.467.727.718a5.032,5.032,0,0,1,.779,1.125C841.251,516.085,842.973,516.959,842.618,517.668Z" transform="translate(-125.643 -108.462)" fill="#3f3d56"/>
    <path id="Tracé_561"  d="M879.874,515.949c1.289,2.725,2.293,5.718,1.921,8.712a5.442,5.442,0,0,1-.753,2.293c-1.246,1.912-3.859,2.258-6.134,2.37a3.616,3.616,0,0,0-2.665.865,2.422,2.422,0,0,0,.164,2.959,6.678,6.678,0,0,0,2.647,1.73c3.6,1.583,7.483,2.89,11.394,2.526,1.817-.173,3.582-.7,5.39-.969a56.614,56.614,0,0,1,5.935-.329c2.353-.087,4.7-.32,7.042-.554l6.212-.614a1.384,1.384,0,0,0,.926-.337c.459-.536-.13-1.324-.7-1.73-3.3-2.44-7.492-4.118-9.369-7.786-.865-1.73-1.133-3.789-1.773-5.658s-1.661-3.556-2.059-5.459a36.2,36.2,0,0,1-.285-5.035,6.757,6.757,0,0,0-1.73-4.6,7.212,7.212,0,0,0-4.706-1.514c-4.135-.182-8.539.8-11.471,3.72-.787.787-1.462,1.73-2.275,2.44s-1.921.917-1.384,1.851,1.592,1.514,2.163,2.336A19.884,19.884,0,0,1,879.874,515.949Z" transform="translate(-132.221 -108.871)" fill="#fbbebe"/>
    <path id="Tracé_562"  d="M912.19,543.623a98.3,98.3,0,0,1-5.295,19.491,73.43,73.43,0,0,0-3.115,8.738c-.666,2.682-.536,5.554-1.151,8.245-.761,3.348-1.523,6.7-2.137,10.079a66.083,66.083,0,0,0-1.229,15.659,6.549,6.549,0,0,0,.467,2.414c.286.623.744,1.159,1.012,1.8a4.325,4.325,0,0,1-.242,3.46,10.016,10.016,0,0,1-1.782,2.7c-8.063,2.405-16.688,1.618-25.088,2.128-7.743.467-15.572,2.059-23.2.735-.865-3.46.58-7.085,1.817-10.459,3.59-9.8,7.561-20.01,6.921-30.279a31.409,31.409,0,0,0-.406-3.573c-1.255-7.276.112-14.811,2.3-21.862,1.358-4.395,1.3-9.075.986-13.652a24.939,24.939,0,0,1-.06-4.473,7.865,7.865,0,0,1,1.626-4.179c0-.061.078-.121.121-.182a1.186,1.186,0,0,1,.649,0h0a.555.555,0,0,0,.432,0l.1-.061a.216.216,0,0,1,.251,0c.2.121.312.536.744.614a17.271,17.271,0,0,0,1.929.182,10.385,10.385,0,0,1,2.3.329h.1a6.757,6.757,0,0,0,3.357-.286,8.921,8.921,0,0,0,2.059-.8c.19-.208,1.384-.4,1.626-.545.787-.476.614-2.708.779-3.625a9.973,9.973,0,0,1,.649-2.682,4.568,4.568,0,0,1,3.7-2.154,19.722,19.722,0,0,1,4.438.4c3.227.459,6.532.381,9.7,1.125,1.592.372,3.331.934,4.793.208.4.1.458.441.458.865a5.546,5.546,0,0,1-.242,1.185c-.554,2.388,1.324,4.585,3.054,6.315a9.794,9.794,0,0,0,2.552,2.033c.865.4,1.73.562,2.6.995a4.722,4.722,0,0,1,1.73,1.583,6.61,6.61,0,0,1,.986,2.517,15.057,15.057,0,0,1-.286,5.009Z" transform="translate(-129.301 -111.378)" fill="#3f3d56"/>
    <path id="Tracé_563"  d="M913.459,545.014a98.288,98.288,0,0,1-5.294,19.491,73.4,73.4,0,0,0-3.114,8.738c-.666,2.682-.536,5.554-1.151,8.245-.761,3.348-1.523,6.7-2.137,10.079-.182.1-.372.2-.562.285a13.278,13.278,0,0,1-3.391,1.09,20.763,20.763,0,0,1-6.333-.208l-12.345-1.652c-4.931-.666-10.182-1.471-13.842-4.81-2.033-1.834-3.365-4.256-4.827-6.592a31.35,31.35,0,0,0-.407-3.573c-1.254-7.276.112-14.811,2.3-21.862,1.358-4.395,1.3-9.075.986-13.652a24.923,24.923,0,0,1-.061-4.473,7.864,7.864,0,0,1,1.626-4.178,6.153,6.153,0,0,1,.77-.173h0a3.821,3.821,0,0,1,.528-.069h.251a3.772,3.772,0,0,1,.865.1,15.657,15.657,0,0,1,1.73.666h.1a6.628,6.628,0,0,0,2.3.329c1.142,0,2.319-.182,3.46-.26a6.385,6.385,0,0,1,4.1.735,24.578,24.578,0,0,1,2.284,2.085,9.805,9.805,0,0,0,2.881,1.566,30.617,30.617,0,0,0,23.029-.484,4.506,4.506,0,0,1,2.31-.588,4.324,4.324,0,0,1,1.661.709c.519.3,1.029.6,1.557.865a6.61,6.61,0,0,1,.986,2.517A15.051,15.051,0,0,1,913.459,545.014Z" transform="translate(-130.57 -112.77)" opacity="0.1"/>
    <path id="Tracé_564"  d="M919.829,539.028a46.174,46.174,0,0,1-9.863-4.326,4.421,4.421,0,0,0-1.661-.709,4.645,4.645,0,0,0-2.318.588,30.6,30.6,0,0,1-23.021.485,10.011,10.011,0,0,1-2.881-1.566,25.857,25.857,0,0,0-2.284-2.085c-2.846-1.843-6.783.32-9.966-.865a17.637,17.637,0,0,0-1.73-.666c-2.517-.632-5.078,1.877-7.553,1.116a42.094,42.094,0,0,0-2.033,7.717,84.086,84.086,0,0,0-.562,9.1c0,1.825-.087,3.651,0,5.476a1.8,1.8,0,0,1,1.367,2.838c-1.808,4.646-3.642,9.343-6.385,13.5a29.347,29.347,0,0,1,5.346,4.083c3.028,3.2,4.516,7.691,7.786,10.65,3.685,3.331,8.937,4.144,13.842,4.8l12.345,1.652a21.1,21.1,0,0,0,6.341.216,13.349,13.349,0,0,0,3.383-1.1,6.055,6.055,0,0,0,1.886-1.246,6.919,6.919,0,0,0,1.116-1.73c.978-1.955,1.869-3.954,2.69-5.978.286-.718.718-1.557,1.5-1.618,4.585-4.135,8.911-8.374,13.5-12.51a29.9,29.9,0,0,0,4.922-5.191c2.275-3.365.208-8.132,0-12.2a15.4,15.4,0,0,0-.389-3.088C924.458,543.432,922.71,539.9,919.829,539.028Z" transform="translate(-129.405 -112.511)" fill="#6c63ff"/>
    <path id="Tracé_565"  d="M843.828,519.9c-.692,1.384-2.353,2.05-3.634,2.924l-4.386,3.011a2.924,2.924,0,0,1-2.171.744,2.855,2.855,0,0,1-1.618-1.514v-.623a5.8,5.8,0,0,1,.277-2.068,6.445,6.445,0,0,1,1.938-2.491,15.866,15.866,0,0,1,5.684-3.461,1.947,1.947,0,0,1,1.038-.1,1.372,1.372,0,0,1,.381.164,5.02,5.02,0,0,1,.779,1.125C842.461,518.314,844.183,519.188,843.828,519.9Z" transform="translate(-126.852 -110.691)" opacity="0.1"/>
    <path id="Tracé_566"  d="M854.324,529.1c-1.471-.069-2.673-1.133-3.746-2.146l-3.279-3.045a3.057,3.057,0,0,1-.571-.64,4.485,4.485,0,0,1-.4-1.064,12.209,12.209,0,0,0-3.184-4.568,2.077,2.077,0,0,0-.943-.675,1.894,1.894,0,0,0-1.047.1,15.821,15.821,0,0,0-5.684,3.46,6.462,6.462,0,0,0-1.938,2.492,5.756,5.756,0,0,0-.277,2.068,15.886,15.886,0,0,0,1.505,6.609c.147.32.312.64.484.952a29.961,29.961,0,0,0,4.066,5.286l2.059,2.3c2.024,2.267,4.049,4.533,6.246,6.618a8.251,8.251,0,0,0,2.8,1.955,3.131,3.131,0,0,0,3.218-.519,4.654,4.654,0,0,0,.917-1.644c1.332-3.461,2.6-7.059,2.673-10.788a40.71,40.71,0,0,0-.19-4.473C856.911,529.812,855.8,529.2,854.324,529.1Z" transform="translate(-127.019 -110.778)" fill="#6c63ff"/>
    <path id="Tracé_567"  d="M902.019,664.784a199.9,199.9,0,0,1-1.851,26.014c-.173,1.393-.363,2.786-.458,4.179-.286,4.04.182,8.1-.2,12.112-.2,2.172-.649,4.326-1.03,6.445a114.609,114.609,0,0,0-1.471,28.679c1.194,15.944-2.466,31.9-.8,47.8a38.638,38.638,0,0,1-.51,9.248,39.2,39.2,0,0,1-1.341,5.589q-1.895,6.5-3.807,12.977a4.5,4.5,0,0,1-.865,1.8,4.1,4.1,0,0,1-3.244.961c-4.992-.156-9.689-2.31-14.223-4.412a4.952,4.952,0,0,1-1.427-.865c-.943-.978-.865-2.518-1.28-3.806s-1.54-2.5-2.18-3.824a12.485,12.485,0,0,1-.943-3.936q-.865-6.644-1.177-13.34c-.329-6.281,3.824-12.06,5.191-18.168,2.6-12.008.4-24.881,5.009-36.274,1.453-3.6-.658-7.959-.865-11.835a37.535,37.535,0,0,0-.969-7.423c-.865-3.253-2.691-6.315-2.82-9.689-.1-2.44.692-4.819,1.1-7.224a32.468,32.468,0,0,0-.147-10.667c-.459-2.907-1.159-5.814-1.86-8.651l-.156.32a97.758,97.758,0,0,0-5.424,12.76c-.692,2.12-1.3,4.282-2.163,6.341-.709,1.73-1.583,3.313-2.44,4.94a141.88,141.88,0,0,0-8,17.778c-1.073,2.993-2.016,6.056-2.95,9.058L842.3,752.43c-1.73,5.459-3.625,10.736-5.321,16.186-2.4,7.786-4.793,15.5-7.578,23.116-2.6,7.224-5.684,14.707-4.758,22.337A16.435,16.435,0,0,1,817,815.618a44.729,44.729,0,0,1-12.977-3.149,10.087,10.087,0,0,1-4.481-2.665c-1.921-2.344-1.445-5.779-.865-8.764a21.177,21.177,0,0,1,1.038-3.945c.658-1.592,1.73-3,2.405-4.576,1.358-3.019,1.445-6.436,1.981-9.715s1.73-6.739,4.533-8.521c.476-5.762,2.846-11.446,4.153-17.077.986-4.265,1.315-8.651,2.094-12.977s2.033-8.651,4.646-12.155a19.265,19.265,0,0,1,2.353-10.382,11.349,11.349,0,0,0,1.029-2.206,12.674,12.674,0,0,0,.277-2.284,13.5,13.5,0,0,1,3.651-8.02c-.865-3.158.337-6.454,1.419-9.516a33.067,33.067,0,0,0,1.817-12.172,10.666,10.666,0,0,1,.164-3.46c.242-.865.718-1.6.995-2.431a13.839,13.839,0,0,0,.389-3.106c.337-4.68,2.232-9.092,4.326-13.271,1.246-2.44.19-5.753.45-8.469.45-4.516.943-9.187,3.184-13.124.415-.744.865-1.453,1.237-2.223a9.623,9.623,0,0,0,.718-3.461c.078-1.981.355-3.625-.355-5.468,4.628-3.85,10.944-4.931,16.965-5.191s12.112.285,18-.995c1.73-.389,3.461-.926,5.286-1.185,4.144-.606,8.348.337,12.44,1.272-.286,2.6.666,5.087,1.73,7.5A80.517,80.517,0,0,1,902.019,664.784Z" transform="translate(-122.287 -125.343)" fill="#33313f"/>
    <path id="Tracé_568"  d="M892.8,673.29l-9.94,22.355c-.459-2.907-1.159-5.813-1.86-8.651l-.156.32v-.467l5.416-11.913Z" transform="translate(-133.438 -131.868)" opacity="0.1"/>
    <path id="Tracé_569"  d="M926.953,618.432a3.737,3.737,0,0,1-1.972.735,9.6,9.6,0,0,1-3.236-.441l-7.786-1.947a3.827,3.827,0,0,1-.709-.251c.13-1.358.389-2.933,1.125-3.461,1.1-.735,4.386.251,5.632.424,2.145.294,4.326.64,6.419,1.047a17.139,17.139,0,0,1,.528,3.893Z" transform="translate(-137.81 -123.708)" opacity="0.1"/>
    <path id="Tracé_570"  d="M933.411,559.379c.164.718.4,1.427.536,2.154a16.434,16.434,0,0,1-.182,5.355l-.709,4.948-.709,4.974L929.6,595.957l-.675,4.741-.952,6.618a4.76,4.76,0,0,1-.415,1.592,3.313,3.313,0,0,1-2.708,1.6,9.81,9.81,0,0,1-3.236-.441l-7.786-1.955a2.44,2.44,0,0,1-.952-.389,1.877,1.877,0,0,1-.5-1.825c.112-.657.4-1.272.493-1.929.19-1.28-.346-2.6-.156-3.867a9.623,9.623,0,0,1,.865-2.327c2.6-5.736,1.09-12.432,1.972-18.661a28.289,28.289,0,0,1,6-13.357,38.34,38.34,0,0,1,6.627-6.506c.969-.753,2.509-2.3,3.729-2.6C933.48,556.326,933.152,558.289,933.411,559.379Z" transform="translate(-137.684 -116.131)" fill="#6c63ff"/>
    <path id="Tracé_571"  d="M867.332,472.985c-.571,1.817.32,3.815-.087,5.667-.441,2.042-2.362,3.461-2.907,5.511-.865,3.123,1.782,5.969,3.72,8.565,7.181,9.637,6.237,22.978,3.781,34.734a179.339,179.339,0,0,1-8.175,27.684c-1.081,2.794-2.275,5.632-4.4,7.726,3.98-1.142,8.21-2.293,12.2-1.185,5.052,1.4,9.413,6.307,14.534,5.191,3.08-.684,5.243-3.417,8.011-4.931,5.191-2.794,11.445-1.038,17.233-.138a6.766,6.766,0,0,0,3.763-.19,6.254,6.254,0,0,0,2.284-2.1,21.333,21.333,0,0,0,4.447-11.506,14.76,14.76,0,0,0-4.248-11.359,24.3,24.3,0,0,1-3.642-3.46,10.745,10.745,0,0,1-1.427-5.243c-.683-9.516,1.635-19.232-.753-28.436-.865-3.279-2.275-6.419-2.656-9.776-.476-4.178.657-8.651-1-12.475a12.234,12.234,0,0,0-7.293-6.3,39.957,39.957,0,0,0-9.724-1.73C886.243,468.833,869.313,466.8,867.332,472.985Z" transform="translate(-130.527 -104.258)" fill="#33313f"/>
    <g id="Groupe_165"  transform="translate(728.733 366.746)" opacity="0.1">
        <path id="Tracé_572"  d="M872.532,529.467a179,179,0,0,1-8.132,27.571c.6-1.185,1.1-2.431,1.575-3.668a178.4,178.4,0,0,0,8.175-27.684c2.466-11.766,3.409-25.088-3.772-34.734-1.73-2.3-3.954-4.793-3.876-7.492a9.218,9.218,0,0,0-1.471,2.716c-.865,3.123,1.782,5.969,3.72,8.565C875.932,504.37,874.989,517.71,872.532,529.467Z" transform="translate(-859.953 -473.009)"/>
        <path id="Tracé_573"  d="M868.575,478.154a8.416,8.416,0,0,0,1.523-2.915,14.816,14.816,0,0,0-.1-3.858,4.161,4.161,0,0,0-1.436,1.981C868.047,474.892,868.635,476.553,868.575,478.154Z" transform="translate(-860.486 -471.38)"/>
        <path id="Tracé_574"  d="M918.91,568.817a6.227,6.227,0,0,1-2.284,2.094,6.608,6.608,0,0,1-3.763.19c-5.788-.865-12.112-2.647-17.233.147-2.777,1.505-4.931,4.239-8.02,4.931-5.113,1.142-9.473-3.763-14.525-5.191-3.582-.995-7.354-.173-10.961.865a15.11,15.11,0,0,1-2.863,4.135c3.98-1.142,8.21-2.292,12.2-1.185,5.052,1.4,9.412,6.307,14.534,5.191,3.08-.683,5.243-3.417,8.011-4.931,5.191-2.794,11.445-1.038,17.233-.138a6.765,6.765,0,0,0,3.763-.19,6.255,6.255,0,0,0,2.284-2.1,23.253,23.253,0,0,0,3.581-6.852A25.171,25.171,0,0,1,918.91,568.817Z" transform="translate(-859.26 -484.113)"/>
    </g>
</svg>
