<svg xmlns="http://www.w3.org/2000/svg" xmlns:xlink="http://www.w3.org/1999/xlink" width="1408" height="585" viewBox="0 0 1408 585">
    <defs>
        <clipPath id="clip-path">
            <rect id="Rectangle_91" data-name="Rectangle 91" width="1408" height="585" transform="translate(0.197 4112.648)" fill="#514c9a"/>
        </clipPath>
    </defs>
    <g id="Groupe_de_masques_2" data-name="Groupe de masques 2" transform="translate(-0.197 -4112.648)" clip-path="url(#clip-path)">
        <g id="undraw_empty_cart_co35" transform="translate(355.892 4114.387)">
            <path id="Tracé_203" data-name="Tracé 203" d="M203.1,821.951c9.663,17.92,30.17,25.612,30.17,25.612s4.841-21.361-4.821-39.281-30.17-25.612-30.17-25.612S193.434,804.031,203.1,821.951Z" transform="translate(-170.728 -267.822)" fill="#2f2e41"/>
            <path id="Tracé_204" data-name="Tracé 204" d="M200.161,825.524c17.445,10.5,24.164,31.343,24.164,31.343s-21.565,3.83-39.01-6.665-24.164-31.343-24.164-31.343S182.716,815.029,200.161,825.524Z" transform="translate(-161.151 -277.291)" fill="#8a8a8a"/>
            <rect id="Rectangle_49" data-name="Rectangle 49" width="108.845" height="1.555" transform="translate(321.287 27.917)" fill="#f2f2f2"/>
            <rect id="Rectangle_50" data-name="Rectangle 50" width="1.555" height="14.383" transform="translate(399.032 29.083)" fill="#f2f2f2"/>
            <rect id="Rectangle_51" data-name="Rectangle 51" width="1.555" height="14.383" transform="translate(351.608 29.083)" fill="#f2f2f2"/>
            <rect id="Rectangle_52" data-name="Rectangle 52" width="108.845" height="1.555" transform="translate(376.487 102.554)" fill="#f2f2f2"/>
            <rect id="Rectangle_53" data-name="Rectangle 53" width="1.555" height="14.383" transform="translate(406.029 88.559)" fill="#f2f2f2"/>
            <rect id="Rectangle_54" data-name="Rectangle 54" width="1.555" height="14.383" transform="translate(453.455 88.559)" fill="#f2f2f2"/>
            <rect id="Rectangle_55" data-name="Rectangle 55" width="108.845" height="1.555" transform="translate(521.094 137.54)" fill="#f2f2f2"/>
            <rect id="Rectangle_56" data-name="Rectangle 56" width="1.555" height="14.383" transform="translate(550.638 123.545)" fill="#f2f2f2"/>
            <rect id="Rectangle_57" data-name="Rectangle 57" width="1.555" height="14.383" transform="translate(598.063 123.545)" fill="#f2f2f2"/>
            <rect id="Rectangle_58" data-name="Rectangle 58" width="108.845" height="1.555" transform="translate(510.21 498.283)" fill="#f2f2f2"/>
            <rect id="Rectangle_59" data-name="Rectangle 59" width="1.555" height="14.383" transform="translate(539.753 484.289)" fill="#f2f2f2"/>
            <rect id="Rectangle_60" data-name="Rectangle 60" width="1.555" height="14.383" transform="translate(587.179 484.289)" fill="#f2f2f2"/>
            <rect id="Rectangle_61" data-name="Rectangle 61" width="108.845" height="1.555" transform="translate(324.396 248.717)" fill="#f2f2f2"/>
            <rect id="Rectangle_62" data-name="Rectangle 62" width="1.555" height="14.383" transform="translate(353.94 234.723)" fill="#f2f2f2"/>
            <rect id="Rectangle_63" data-name="Rectangle 63" width="1.555" height="14.383" transform="translate(401.365 234.723)" fill="#f2f2f2"/>
            <rect id="Rectangle_64" data-name="Rectangle 64" width="108.845" height="1.555" transform="translate(358.605 436.086)" fill="#f2f2f2"/>
            <rect id="Rectangle_65" data-name="Rectangle 65" width="1.555" height="14.383" transform="translate(388.149 422.092)" fill="#f2f2f2"/>
            <rect id="Rectangle_66" data-name="Rectangle 66" width="1.555" height="14.383" transform="translate(435.573 422.092)" fill="#f2f2f2"/>
            <rect id="Rectangle_67" data-name="Rectangle 67" width="108.845" height="1.555" transform="translate(532.756 379.331)" fill="#f2f2f2"/>
            <rect id="Rectangle_68" data-name="Rectangle 68" width="1.555" height="14.383" transform="translate(562.3 365.337)" fill="#f2f2f2"/>
            <rect id="Rectangle_69" data-name="Rectangle 69" width="1.555" height="14.383" transform="translate(609.725 365.337)" fill="#f2f2f2"/>
            <path id="Tracé_205" data-name="Tracé 205" d="M316.908,714.249H132.816v-1.324H315.584V648.691H148.292l-8.127-16.931,1.194-.573,7.766,16.179H316.908Z" transform="translate(-35.419 -168.326)" fill="#2f2e41"/>
            <circle id="Ellipse_39" data-name="Ellipse 39" cx="13.906" cy="13.906" r="13.906" transform="translate(107.992 550.559)" fill="#3f3d56"/>
            <circle id="Ellipse_40" data-name="Ellipse 40" cx="13.906" cy="13.906" r="13.906" transform="translate(245.068 550.559)" fill="#3f3d56"/>
            <circle id="Ellipse_41" data-name="Ellipse 41" cx="8.609" cy="8.609" r="8.609" transform="translate(411.943 260.513)" fill="#3f3d56"/>
            <path id="Tracé_206" data-name="Tracé 206" d="M480.324,652.626H273.4L228.63,506.279h297.8l-.271.861ZM274.383,651.3h204.97l45.275-143.7H230.421Z" transform="translate(-179.146 -194.114)" fill="#2f2e41"/>
            <path id="Tracé_207" data-name="Tracé 207" d="M308.284,567.671H126.538L87.212,437.879H348.783l-.238.764Z" transform="translate(-23.258 -116.774)" fill="#f2f2f2"/>
            <path id="Tracé_208" data-name="Tracé 208" d="M478.178,395.756l-1.28-.34,8.739-32.94h50.838V363.8H486.656Z" transform="translate(-127.18 -96.666)" fill="#2f2e41"/>
            <rect id="Rectangle_70" data-name="Rectangle 70" width="268.453" height="1.324" transform="translate(63.953 356.533)" fill="#2f2e41"/>
            <rect id="Rectangle_71" data-name="Rectangle 71" width="238.152" height="1.324" transform="translate(78.881 405.327)" fill="#2f2e41"/>
            <rect id="Rectangle_72" data-name="Rectangle 72" width="1.324" height="145.023" transform="translate(197.72 312.827)" fill="#2f2e41"/>
            <rect id="Rectangle_73" data-name="Rectangle 73" width="145.331" height="1.325" transform="matrix(0.065, -0.998, 0.998, 0.065, 248.835, 457.806)" fill="#2f2e41"/>
            <rect id="Rectangle_74" data-name="Rectangle 74" width="1.325" height="145.33" transform="matrix(0.998, -0.065, 0.065, 0.998, 137.13, 312.869)" fill="#2f2e41"/>
            <rect id="Rectangle_75" data-name="Rectangle 75" width="696.609" height="1.555" transform="translate(0 579.211)" fill="#2f2e41"/>
            <path id="Tracé_209" data-name="Tracé 209" d="M792.406,145.387s11.365,32.347,4.371,37.324,23.6,45.618,23.6,45.618l36.719-9.953L836.992,184.37s-2.623-34.006-2.623-38.983S792.406,145.387,792.406,145.387Z" transform="translate(-329.495 -97.281)" fill="#a0616a"/>
            <path id="Tracé_210" data-name="Tracé 210" d="M792.406,145.387s11.365,32.347,4.371,37.324,23.6,45.618,23.6,45.618l36.719-9.953L836.992,184.37s-2.623-34.006-2.623-38.983S792.406,145.387,792.406,145.387Z" transform="translate(-329.495 -97.281)" opacity="0.1"/>
            <path id="Tracé_211" data-name="Tracé 211" d="M765.856,451.726s-3.318,41.471,0,63.036,8.294,81.283,8.294,81.283,0,112.8,18.247,114.46,31.518,3.318,33.177-3.318-8.294-9.953-3.318-13.271,6.635-14.93,0-28.2,0-147.637,0-147.637l31.518,84.6s3.318,69.671,6.635,79.624-3.318,28.2,8.294,29.859,24.883-8.294,31.518-11.612-9.953-3.318-6.635-4.976,13.271-6.635,9.953-8.294S896.9,606,896.9,606s-9.124-170.03-20.735-176.666-19.077,4.794-19.077,4.794Z" transform="translate(-322.021 -173.041)" fill="#2f2e41"/>
            <path id="Tracé_212" data-name="Tracé 212" d="M804.7,804.463v13.271s-14.93,36.074,0,36.074,26.542,3.738,26.542-1.238V807.781Z" transform="translate(-331.003 -273.634)" fill="#2f2e41"/>
            <path id="Tracé_213" data-name="Tracé 213" d="M930.921,804.432V817.7s14.93,36.074,0,36.074-26.541,3.738-26.541-1.238V807.749Z" transform="translate(-359.356 -273.626)" fill="#2f2e41"/>
            <circle id="Ellipse_42" data-name="Ellipse 42" cx="29.859" cy="29.859" r="29.859" transform="translate(456.276 12.441)" fill="#a0616a"/>
            <path id="Tracé_214" data-name="Tracé 214" d="M810.427,214.055s8.294,24.883,21.565,19.906l13.271-4.977,23.224,159.249s-18.247,26.541-44.789,9.953S810.427,214.055,810.427,214.055Z" transform="translate(-333.416 -116.183)" fill="#8a8a8a"/>
            <path id="Tracé_215" data-name="Tracé 215" d="M843.3,201.537l7.465-15.759s43.96,20.736,50.595,27.371S908,229.738,908,229.738l-11.612,41.471s3.318,91.236,3.318,94.554,11.612,21.565,3.318,14.93-9.953-13.271-16.588-3.318-21.565,21.565-21.565,21.565Z" transform="translate(-343.068 -108.642)" fill="#3f3d56"/>
            <path id="Tracé_216" data-name="Tracé 216" d="M911.871,370.139l-4.977,46.448s-29.859,26.542-23.224,28.2,9.953-4.977,9.953-4.977,11.612,11.612,18.247,4.977,23.224-69.671,23.224-69.671Z" transform="translate(-353.577 -157.808)" fill="#a0616a"/>
            <path id="Tracé_217" data-name="Tracé 217" d="M812.344,80.691c-6.62-.237-13.7-.354-19.284,3.213a28.235,28.235,0,0,0-6.665,6.524c-5.435,6.872-10.132,15.518-8.113,24.043l2.345-.915a15.357,15.357,0,0,1-1.481,6.579c.33-.96,1.436.593,1.14,1.564l-2.583,8.475a7.979,7.979,0,0,1,10.176,6.072c.3-9.844,1.316-21.131,9.3-26.9,4.027-2.907,9.123-3.794,14.027-4.582,4.524-.727,9.266-1.42,13.6.069s8.022,5.92,7.04,10.4c2-.688,4.232.7,5.22,2.572a13.515,13.515,0,0,1,1.069,6.185c2.13,1.505,4.553-1.484,5.421-3.943,2.037-5.772,3.848-11.917,2.75-17.938s-6-11.777-12.126-11.8a4.251,4.251,0,0,0,1.105-2.992l-5.045-.426a5.576,5.576,0,0,0,3.332-1.757C831.546,87.367,815.62,80.809,812.344,80.691Z" transform="translate(-325.574 -80.59)" fill="#2f2e41"/>
            <path id="Tracé_218" data-name="Tracé 218" d="M798.192,195.951s-13.5-13.233-18.364-12.422-11.5,12.422-11.5,12.422-39.812,13.271-38.153,26.541,19.906,77.965,19.906,77.965,14.93,77.966,1.659,86.26,63.036,29.859,64.695,19.906,4.977-109.483,0-124.413S798.192,195.951,798.192,195.951Z" transform="translate(-312.886 -108.033)" fill="#3f3d56"/>
            <path id="Tracé_219" data-name="Tracé 219" d="M902.118,236.675h20.511s14.324,63.036,15.983,69.672,4.976,38.153,3.318,38.153-34.836-6.635-34.836-1.659Z" transform="translate(-358.753 -122.215)" fill="#3f3d56"/>
            <path id="Tracé_220" data-name="Tracé 220" d="M870.436,412.5H791.912c-7.663-35.25-8.3-69.308,0-101.848h78.524C857.764,342.608,856.972,376.433,870.436,412.5Z" transform="translate(-327.766 -141.944)" fill="#f2f2f2"/>
            <path id="Tracé_221" data-name="Tracé 221" d="M750.556,385.143,773.78,395.1s44.789,6.635,44.789-11.612-44.789-8.294-44.789-8.294l-14.93-4.774Z" transform="translate(-318.334 -157.882)" fill="#a0616a"/>
            <path id="Tracé_222" data-name="Tracé 222" d="M744.136,223.1,724.23,228.08,709.3,316s-4.977,23.224,3.318,24.883,31.518,14.93,31.518,14.93,3.318-24.883,9.953-24.883L737.5,317.657l9.953-58.06Z" transform="translate(-306.937 -118.596)" fill="#3f3d56"/>
            <rect id="Rectangle_76" data-name="Rectangle 76" width="108.845" height="1.555" transform="translate(46.841 274.374)" fill="#f2f2f2"/>
            <rect id="Rectangle_77" data-name="Rectangle 77" width="1.555" height="14.383" transform="translate(76.385 260.379)" fill="#f2f2f2"/>
            <rect id="Rectangle_78" data-name="Rectangle 78" width="1.555" height="14.383" transform="translate(123.811 260.379)" fill="#f2f2f2"/>
            <rect id="Rectangle_79" data-name="Rectangle 79" width="108.845" height="1.555" transform="translate(84.936 44.244)" fill="#f2f2f2"/>
            <rect id="Rectangle_80" data-name="Rectangle 80" width="1.555" height="14.383" transform="translate(162.684 45.41)" fill="#f2f2f2"/>
            <rect id="Rectangle_81" data-name="Rectangle 81" width="1.555" height="14.383" transform="translate(115.258 45.41)" fill="#f2f2f2"/>
            <rect id="Rectangle_82" data-name="Rectangle 82" width="108.845" height="1.555" transform="translate(194.56 197.405)" fill="#f2f2f2"/>
            <rect id="Rectangle_83" data-name="Rectangle 83" width="1.555" height="14.383" transform="translate(272.306 198.571)" fill="#f2f2f2"/>
            <rect id="Rectangle_84" data-name="Rectangle 84" width="1.555" height="14.383" transform="translate(224.881 198.571)" fill="#f2f2f2"/>
            <rect id="Rectangle_85" data-name="Rectangle 85" width="108.845" height="1.555" transform="translate(9.523 196.627)" fill="#f2f2f2"/>
            <rect id="Rectangle_86" data-name="Rectangle 86" width="1.555" height="14.383" transform="translate(87.269 197.793)" fill="#f2f2f2"/>
            <rect id="Rectangle_87" data-name="Rectangle 87" width="1.555" height="14.383" transform="translate(39.844 197.793)" fill="#f2f2f2"/>
            <rect id="Rectangle_88" data-name="Rectangle 88" width="108.845" height="1.555" transform="translate(140.137 118.881)" fill="#f2f2f2"/>
            <rect id="Rectangle_89" data-name="Rectangle 89" width="1.555" height="14.383" transform="translate(169.681 104.886)" fill="#f2f2f2"/>
            <rect id="Rectangle_90" data-name="Rectangle 90" width="1.555" height="14.383" transform="translate(217.106 104.886)" fill="#f2f2f2"/>
        </g>
    </g>
</svg>
