<svg xmlns="http://www.w3.org/2000/svg" width="1081.417" height="656.081" viewBox="0 0 1081.417 656.081">
    <g id="undraw_hire_te5y" transform="translate(0 0)">
        <ellipse id="Ellipse_116" cx="393.672" cy="35.42" rx="393.672" ry="35.42" transform="translate(294.073 585.24)" fill="#3f3d56"/>
        <rect id="Rectangle_107"   width="427.302" height="289.414" transform="translate(922.625 289.414) rotate(180)" fill="#3f3d56" opacity="0.3"/>
        <rect id="Rectangle_108"   width="126.524" height="137.888" transform="translate(768.827 26.517)" fill="#f2f2f2"/>
        <rect id="Rectangle_109"   width="121.978" height="8.334" transform="translate(690.791 34.85) rotate(180)" fill="#f2f2f2"/>
        <rect id="Rectangle_110"   width="43.185" height="8.334" transform="translate(812.012 193.953) rotate(180)" fill="#f2f2f2"/>
        <rect id="Rectangle_111"   width="123.494" height="8.334" transform="translate(893.836 209.105) rotate(180)" fill="#f2f2f2"/>
        <rect id="Rectangle_112"   width="175.77" height="8.334" transform="translate(719.581 65.156) rotate(180)" fill="#f2f2f2"/>
        <rect id="Rectangle_113"   width="175.77" height="8.334" transform="translate(719.581 88.642) rotate(180)" fill="#f2f2f2"/>
        <rect id="Rectangle_114"   width="175.77" height="8.334" transform="translate(719.581 112.129) rotate(180)" fill="#f2f2f2"/>
        <rect id="Rectangle_115"   width="175.77" height="8.334" transform="translate(719.581 135.616) rotate(180)" fill="#f2f2f2"/>
        <rect id="Rectangle_116"   width="175.77" height="8.334" transform="translate(719.581 159.102) rotate(180)" fill="#f2f2f2"/>
        <rect id="Rectangle_117"   width="175.77" height="8.334" transform="translate(719.581 182.588) rotate(180)" fill="#f2f2f2"/>
        <rect id="Rectangle_118"   width="175.77" height="8.334" transform="translate(719.581 206.075) rotate(180)" fill="#f2f2f2"/>
        <path id="Tracé_579"  d="M844.224,230.008a22.38,22.38,0,0,1,6.127-3.072,156.222,156.222,0,0,1,43.167-9.4c12.836-.91,26.747.171,36.772,8.238a12.643,12.643,0,0,1,3.73,4.346c1.261,2.722.879,5.885.471,8.857a10.008,10.008,0,0,1-.859,3.334c-1.349,2.569-4.671,3.468-7.555,3.16s-5.592-1.529-8.438-2.095a37.718,37.718,0,0,0-5.329-.543l-17.847-.966c-11.1-.6-22.342-1.192-33.228,1.048a33.1,33.1,0,0,0-9.6,3.308c-2.486,1.4-4.161,3.4-6.468.821C841.112,242.519,838.87,234.193,844.224,230.008Z" transform="translate(-56.396 -124.754)" fill="#2f2e41"/>
        <path id="Tracé_580"  d="M871.573,237.707s24-10.761,33.11,1.656-4.966,7.45-4.966,7.45l-15.727,4.967-17.383-3.311Z" transform="translate(-56.089 -124.561)" fill="#f2f2f2"/>
        <path id="Tracé_581"  d="M872.741,229.973s3.311,15.727.828,19.866,14.072,9.933,14.072,9.933l15.727-6.622s-4.139-25.66,0-30.627Z" transform="translate(-56.016 -124.691)" fill="#ffb9b9"/>
        <path id="Tracé_582"  d="M872.741,229.973s3.311,15.727.828,19.866,14.072,9.933,14.072,9.933l15.727-6.622s-4.139-25.66,0-30.627Z" transform="translate(-56.016 -124.691)" opacity="0.1"/>
        <path id="Tracé_583"  d="M910.955,214.64a24.853,24.853,0,0,1-24.833,24.833,24.237,24.237,0,0,1-4.412-.4,24.832,24.832,0,1,1,29.245-24.435Z" transform="translate(-56.153 -125.084)" fill="#ffb9b9"/>
        <path id="Tracé_584"  d="M926.122,289.677H846.927l1.8-7.8,7.773-33.873,8.985-6.069.008-.008,4.22-2.856,2.1-1.417s1.242.568,2.674,1.341c.417.235.841.477,1.265.735.008-.007.008,0,.008,0a14.825,14.825,0,0,1,1.955,1.356c.114.106.212.2.311.3,1.576,1.576,6.175,9.94,13.781,5.659a11.609,11.609,0,0,0,1.114-.7,55.119,55.119,0,0,0,5.659-4.493c1.6-1.462,2.637-2.591,3.485-3.372a5.5,5.5,0,0,1,1.288-.955,2.448,2.448,0,0,1,1.159-.28c2.485,0,5.8,4.962,5.8,4.962l.1.288.008.023,10.448,31.366Z" transform="translate(-56.326 -124.514)" fill="#f2f2f2"/>
        <path id="Tracé_585"  d="M847.1,289.739h24a58.416,58.416,0,0,0-.432-8.3c-.735-5.538-2.538-10.872-3.675-16.342a68.744,68.744,0,0,1-1.447-14.577c.008-.674.023-1.356.083-2.038a9.331,9.331,0,0,1,1.311-4.424c.568-.871,1.349-1.614,1.955-2.447a5.612,5.612,0,0,0,.553-.871v-.008a5.039,5.039,0,0,0,.2-.462,3.743,3.743,0,0,0,.227-1.129c.136-2.5-2.129-4.909-4.576-5.94a17.108,17.108,0,0,0-10.72-.432,51.03,51.03,0,0,0-10.077,4.121c-1.083.53-2.159,1.076-3.2,1.682a15.872,15.872,0,0,0-3.387,2.576c-2.576,2.659-3.7,6.364-4.614,9.948a21.03,21.03,0,0,0-.871,8.485c.008.091.03.189.045.28.9,4.72,4.75,8.266,6.8,12.615,2.379,5.046,2.22,10.925,1.273,16.425-.045.28-.1.561-.151.841h6.69Z" transform="translate(-56.501 -124.576)" fill="#2f2e41"/>
        <path id="Tracé_586"  d="M944.017,259.494a187.58,187.58,0,0,0-6.538,30.313H903.265q-1.341-3.659-2.674-7.326a54.879,54.879,0,0,1-1.826-5.637,26.978,26.978,0,0,1-.765-6.788c0-.546.023-1.1.068-1.644a.023.023,0,0,0,0-.03,27.113,27.113,0,0,1,1.977-8.387,31.29,31.29,0,0,1,1.743-3.538c1.591-2.879,3.515-5.591,5.228-8.41a38.594,38.594,0,0,0,2.781-5.394.028.028,0,0,1,.008-.023,19.363,19.363,0,0,0,1.568-7.538c-.053-3.341-5.7-9.167.439-8.607,8.387.758,15.592,5.584,22.161,11.084,1.75,1.47,3.462,2.993,5.137,4.493,2.591,2.334,5.326,4.879,6.106,8.281a8.82,8.82,0,0,1,.22,1.652A22.677,22.677,0,0,1,944.017,259.494Z" transform="translate(-55.712 -124.644)" fill="#2f2e41"/>
        <path id="Tracé_587"  d="M893.131,250.2a18.5,18.5,0,0,0-3.885-6.263,14.412,14.412,0,0,0-5.934-3.006,32.452,32.452,0,0,0-8.7-1.248c-3.506-.022-7.57.918-9.059,4.092-1.182,2.52-.266,5.5.925,8.021a7.863,7.863,0,0,0,2.454,3.315c1.512,1.021,3.467.989,5.259,1.331a24.258,24.258,0,0,1,7.773,3.522l6.14,3.711,10.547,6.375c-.278-.168-.179-7.4-.5-8.586C897.1,257.645,894.75,253.814,893.131,250.2Z" transform="translate(-56.109 -124.485)" fill="#ffb9b9"/>
        <path id="Tracé_588"  d="M910.425,201.851a6.3,6.3,0,0,0-2.734-3.568,14.465,14.465,0,0,0-.577-4.709c-1.5-4.446-5.066-4.191-8.428-6.157-1.458-.853-1.368-1.607-2.128-3.007a11.161,11.161,0,0,0-4.3-4.388c-2.156-1.374-4.433-2.789-6.984-2.963-5.361-.365-9.472,4.677-14.6,6.3-2.259.713-4.686.743-6.956,1.417s-4.536,2.285-4.874,4.629c-.156,1.082.119,2.193-.039,3.275-.315,2.151-2.2,3.657-3.465,5.425-2.793,3.911-2.474,9.437-.24,13.693a19.229,19.229,0,0,0,1.61,2.52,15.5,15.5,0,0,0,1.7,5.757c2.233,4.256,6.077,7.436,10.092,10.078a23.824,23.824,0,0,1-.6-4.3,2.966,2.966,0,0,1,.183-1.424c.447-.935,1.629-1.183,2.529-1.7,1.866-1.06,2.6-3.407,2.651-5.552s-.4-4.294-.176-6.428a3.513,3.513,0,0,1,1.2-2.584,4.153,4.153,0,0,1,2.267-.54c3.823-.156,7.817-.226,11.189-2.034a16.581,16.581,0,0,1,3.483-1.762c2.866-.747,5.794,1.261,7.446,3.719s2.475,5.383,4,7.923,4.156,4.8,7.1,4.5a1.179,1.179,0,0,0,.88-.391,1.319,1.319,0,0,0,.162-.75l.165-11.262a17.021,17.021,0,0,0-.568-5.724Z" transform="translate(-56.249 -125.237)" fill="#2f2e41"/>
        <path id="Tracé_589"  d="M845.269,276.189q.807,6.648.977,13.342H825.411V272.022c.106-.424.22-.841.356-1.258,1.3-4.015,4.038-7.379,6.409-10.872.114-.174.235-.349.349-.523a28.447,28.447,0,0,0,2.591-4.674c.341-.8.886-4.69,1.462-5.023,2.47-1.432,4.478,4.69,4.818,6.053,1.212,4.856,2.265,9.758,3.061,14.706Q844.924,273.306,845.269,276.189Z" transform="translate(-56.584 -124.368)" fill="#2f2e41"/>
        <path id="Tracé_590"  d="M949.806,289.586h-47.83c-.409-.962-.811-1.924-1.235-2.879a84.169,84.169,0,0,0-11.47-18.812,4.978,4.978,0,0,1-1.417-2.811,2.379,2.379,0,0,1,.311-1.265c.727-1.356,2.652-2.152,4.212-2.8a14.514,14.514,0,0,0,4.379-2.758,9.391,9.391,0,0,0,2.53-3.735,8.185,8.185,0,0,0,.318-1.288l.667.871c.538.712,1.083,1.417,1.636,2.121,5.3,6.811,11.13,13.524,18.456,17.562a31.046,31.046,0,0,0,6.031,2.568,1.583,1.583,0,0,0,1.273,0,1.54,1.54,0,0,0,.553-1.015c.652-2.727.879-5.538,1.356-8.3a47.294,47.294,0,0,1,4.993-14.38c1.356-2.523,5.765-11.743,8.561-5.932q1.2,2.511,2.424,5.038c.508,1.068,1.023,2.129,1.538,3.2a19.884,19.884,0,0,1,2.493,11.137Q949.7,277.858,949.806,289.586Z" transform="translate(-55.834 -124.423)" fill="#2f2e41"/>
        <path id="Tracé_591"  d="M847,289.281h4.144l-2.349-7.8-3.387-11.236a36.653,36.653,0,0,1-.326,5.69,37.889,37.889,0,0,1-3.3,11.243c-.326.689-.674,1.386-.955,2.1H847Z" transform="translate(-56.399 -124.118)" opacity="0.1"/>
        <path id="Tracé_592"  d="M930.385,265.38c-.584,1.569-.054,3.3.4,4.918a49.547,49.547,0,0,1,1.806,14.377.523.523,0,0,1-.612.627c-1.911.117-4.1.129-5.394-1.279Z" transform="translate(-55.369 -124.177)" opacity="0.1"/>
        <rect id="Rectangle_119"  width="427.302" height="289.414" transform="translate(0 2.979)" fill="#3f3d56" opacity="0.3"/>
        <rect id="Rectangle_120"  width="126.524" height="137.888" transform="translate(27.275 29.496)" fill="#f2f2f2"/>
        <rect id="Rectangle_121"  width="121.978" height="8.334" transform="translate(231.834 29.496)" fill="#f2f2f2"/>
        <rect id="Rectangle_122"  width="43.185" height="8.334" transform="translate(28.79 188.597)" fill="#f2f2f2"/>
        <rect id="Rectangle_123"  width="123.494" height="8.334" transform="translate(28.79 203.75)" fill="#f2f2f2"/>
        <rect id="Rectangle_124"  width="175.77" height="8.334" transform="translate(203.045 59.801)" fill="#f2f2f2"/>
        <rect id="Rectangle_125"  width="175.77" height="8.334" transform="translate(203.045 83.287)" fill="#f2f2f2"/>
        <rect id="Rectangle_126"  width="175.77" height="8.334" transform="translate(203.045 106.774)" fill="#f2f2f2"/>
        <rect id="Rectangle_127"  width="175.77" height="8.334" transform="translate(203.045 130.26)" fill="#f2f2f2"/>
        <rect id="Rectangle_128"  width="175.77" height="8.334" transform="translate(203.045 153.747)" fill="#f2f2f2"/>
        <rect id="Rectangle_129"  width="175.77" height="8.334" transform="translate(203.045 177.233)" fill="#f2f2f2"/>
        <rect id="Rectangle_130"  width="175.77" height="8.334" transform="translate(203.045 200.72)" fill="#f2f2f2"/>
        <path id="Tracé_593"  d="M214.629,292.567H198.18q-1.9-5.1-3.371-10.334a20.645,20.645,0,0,0-5.364-10.933,20.281,20.281,0,0,1-2.311-3.137,14.731,14.731,0,0,1-1.455-8.932,23.21,23.21,0,0,1,.424-2.531c.72-3.235,1.924-6.341,2.932-9.493a3.6,3.6,0,0,1,2.94-2.432,5.831,5.831,0,0,1,3.212.371,3.988,3.988,0,0,1,.644.333c1.8,1.083,2.727,3.3,3.477,5.319q5.148,13.819,10.289,27.638,1,2.682,2,5.379c.985,2.637,1.962,5.273,2.8,7.963C214.477,292.044,214.553,292.3,214.629,292.567Z" transform="translate(-64.27 -124.425)" fill="#d0cde1"/>
        <path id="Tracé_594"  d="M146.976,172.207c-4.09,1.381-7.795,4.611-8.632,8.846-.388,1.963-.15,4-.477,5.977-.758,4.578-4.351,8.075-7.666,11.322s-6.738,7.021-6.979,11.655c-.265,5.074,3.415,9.828,2.778,14.87-.74,5.857-6.926,9.652-8.455,15.354-1.021,3.808.23,7.909,2.289,11.271,3.923,6.406,10.629,10.755,17.77,13.087s14.746,2.822,22.258,2.9c9.146.1,19.077-.689,25.949-6.726a20.788,20.788,0,0,0,6.9-13.533c.653-6.992-2.266-14.217-.253-20.945,1.267-4.234,4.444-8.1,3.97-12.5-.464-4.3-4.216-7.342-6.79-10.813-2.4-3.241-3.862-7.068-5.291-10.841l-4.891-12.91c-.961-2.538-2.017-5.207-4.16-6.873-4.011-3.118-10.461-2.506-15.151-1.862C155.793,171.088,151.16,170.793,146.976,172.207Z" transform="translate(-65.09 -125.322)" fill="#2f2e41"/>
        <path id="Tracé_595"  d="M150.375,214.254s.479,14.361-.957,15.8,5.744,11.011,5.744,11.011l12.925-.479,6.7-5.266-5.745-7.659s-2.394-12.447-.479-15.319S150.375,214.254,150.375,214.254Z" transform="translate(-64.705 -124.825)" fill="#a0616a"/>
        <path id="Tracé_596"  d="M150.375,214.254s.479,14.361-.957,15.8,5.744,11.011,5.744,11.011l12.925-.479,6.7-5.266-5.745-7.659s-2.394-12.447-.479-15.319S150.375,214.254,150.375,214.254Z" transform="translate(-64.705 -124.825)" opacity="0.1"/>
        <circle id="Ellipse_117"  cx="17.234" cy="17.234" r="17.234" transform="translate(76.334 60.467)" fill="#a0616a"/>
        <path id="Tracé_597"   d="M167.569,292.8H181.54c.523-.947,1.015-1.932,1.583-2.826v-.008a7.734,7.734,0,0,1,2.546-2.667,10.033,10.033,0,0,0,1.886-1.129,4.867,4.867,0,0,0,1.152-2.152,33.344,33.344,0,0,0,1.576-9.288c.023-1.061,0-2.137.061-3.2a13.441,13.441,0,0,1,.318-2.462,19.392,19.392,0,0,1,2.068-4.682q2.841-5.171,5.7-10.342a7.228,7.228,0,0,0,.386-3.031,7.47,7.47,0,0,0-1.227-3.887c-.265-.477-.553-.955-.856-1.417a31.467,31.467,0,0,0-4.061-5.182,32.853,32.853,0,0,0-11.561-7.826,6.71,6.71,0,0,1-1.553-.758,6.447,6.447,0,0,1-1.424-1.7c-1.515-2.28-3.364-4.849-6.1-4.7a3.75,3.75,0,0,0-2.894-.2,3.956,3.956,0,0,0-.424.136,26.927,26.927,0,0,0-3.038,1.583,14.1,14.1,0,0,1-8.182,1.485,2.771,2.771,0,0,1-.955-.242,4.891,4.891,0,0,1-.879-.712,5.052,5.052,0,0,0-5.023-.8,4.561,4.561,0,0,0-2,1.409c-.5.629-.849,1.386-1.4,1.977-1.432,1.53-3.8,1.591-5.887,1.583a54.4,54.4,0,0,0-12.933,1.189,24.584,24.584,0,0,0-10.183,4.925l-.008.008c-.409.349-.788.7-1.167,1.083a8.648,8.648,0,0,0-2.015,2.879c-.576,1.485-.5,3.159-1.023,4.667-.576,1.69-1.856,3.068-2.371,4.765-.394,1.288-.341,2.712-.992,3.879.03.023.053.045.083.068,2.758,2.424,5.114,5.606,7.879,8.008a15.9,15.9,0,0,1,4,4.47,7.383,7.383,0,0,1,.492,1.212,18.641,18.641,0,0,1,.409,4.409c.349,7.084,4.19,13.509,8.485,19.145.083.114.167.227.258.333Z" transform="translate(-65.169 -124.66)" fill="#d0cde1"/>
        <path id="Tracé_598"   d="M122.766,267.381q-.977,6.785-1.97,13.562a59.09,59.09,0,0,1-1.349,7.182c-.394,1.462-.9,2.894-1.258,4.356H98.461a18.9,18.9,0,0,1,.189-2.447,40.457,40.457,0,0,1,2.462-8.493q3.443-9.3,6.879-18.607c.977-2.644,1.818-5.409,2.894-8.031.189-.485.394-.97.614-1.439,1.144-2.515,4.318-1.485,6.667-1.106a6.33,6.33,0,0,1,1.864.53,4.809,4.809,0,0,1,1.75,1.652c2.227,3.3,1.743,7.652,1.167,11.592Q122.857,266.756,122.766,267.381Z" transform="translate(-65.315 -124.339)" fill="#d0cde1"/>
        <path id="Tracé_599"   d="M182.449,289.206c.03.106.356,1.235.894,2.826H166.894c8.152-1.4,15.554-2.833,15.554-2.833Z" transform="translate(-64.493 -123.89)" fill="#2f2e41"/>
        <ellipse id="Ellipse_118" cx="18.67" cy="10.053" rx="18.67" ry="10.053" transform="translate(76.334 57.595)" fill="#2f2e41"/>
        <rect id="Rectangle_131"   width="427.302" height="289.414" transform="translate(273.738 109.522)" fill="#3f3d56"/>
        <ellipse id="Ellipse_119" cx="50.003" cy="5.303" rx="50.003" ry="5.303" transform="translate(588.911 368.63)" opacity="0.1"/>
        <rect id="Rectangle_132"   width="126.524" height="137.888" transform="translate(301.012 136.038)" fill="#f2f2f2"/>
        <path id="Tracé_600" d="M403.552,323.363a1.857,1.857,0,0,0,2.177-.9c1.75-2.757-1.472-6.312-.774-9.5.559-2.556,3.463-4.073,4.057-6.621.577-2.476-1.2-5.266,0-7.507.941-1.755,3.293-2.217,5.261-1.909s3.836,1.172,5.823,1.294c2.649.161,5.174-1,7.764-1.582s5.75-.352,7.273,1.821c1.957,2.79-.028,6.675.653,10.014.541,2.651,2.76,4.846,2.808,7.552.017.962-2.511.187-2.377,1.139s-1.06.114-.105,0a1.892,1.892,0,0,0,1.437-1.71c.114-.793,1.6-1.058,1.587-1.859-.04-1.877,3.354-.612,3.913-2.4a18.18,18.18,0,0,0-.743-12.682,25.4,25.4,0,0,1-2.165-5.158c-.5-2.489.286-5.162-.536-7.564-1.108-3.237-4.776-4.887-8.181-5.222s-6.865.265-10.251-.229c-3.033-.443-5.969-1.757-9.028-1.567-3.671.228-6.865,2.594-9.409,5.249s-4.7,5.71-7.593,7.985a14.889,14.889,0,0,0-2.434,2.1c-1.472,1.794-1.621,4.349-1.212,6.632s1.3,4.462,1.677,6.752c.354,2.152.244,4.35.4,6.525a11.469,11.469,0,0,0,1.914,6.159,5.813,5.813,0,0,0,4.523,2.363c.612.014,1.13-.536,1.748-.393C402.53,322.316,402.866,323.05,403.552,323.363Z" transform="translate(-61.798 -124.016)" fill="#2f2e41"/>
        <path id="Tracé_601" d="M375.913,397.546c.553-7.584.97-13.251.97-13.251l3.576-9.425,11.478,22.676Z" transform="translate(-61.983 -122.862)" fill="#575a89"/>
        <path id="Tracé_602" d="M375.913,397.546c.553-7.584.97-13.251.97-13.251l3.576-9.425,11.478,22.676Z" transform="translate(-61.983 -122.862)" opacity="0.1"/>
        <path id="Tracé_603" d="M402.2,323.676s10.7,27.243,4.541,32.432,34.378-8.757,34.378-8.757l-.973-3.568s-13.3-5.189-6.811-20.108S402.2,323.676,402.2,323.676Z" transform="translate(-61.667 -123.556)" fill="#a0616a"/>
        <path id="Tracé_604" d="M402.2,323.676s10.7,27.243,4.541,32.432,34.378-8.757,34.378-8.757l-.973-3.568s-13.3-5.189-6.811-20.108S402.2,323.676,402.2,323.676Z" transform="translate(-61.667 -123.556)" opacity="0.1"/>
        <circle id="Ellipse_120"  cx="22.703" cy="22.703" r="22.703" transform="translate(333.071 165.741)" fill="#a0616a"/>
        <path id="Tracé_605" d="M472.878,360.683l-.25,4.955c-.326,6.417-.909,18.441-1.492,32.313H383.13a43.634,43.634,0,0,1-5.6-10.023,10.817,10.817,0,0,1-.659-3.227c-.485-8.6,7.22-20.6,12.66-21.744,6.16-1.3,17.835-13.622,17.835-13.622a2.778,2.778,0,0,0,1.485,2.243v.008a6.036,6.036,0,0,0,3.053.667c3.8,0,20.532-7.72,25.9-10.243,1.053-.492,1.667-.788,1.667-.788a125.892,125.892,0,0,0,19.138,6.493,20.354,20.354,0,0,1,14.266,12.971Z" transform="translate(-61.972 -123.266)" fill="#575a89"/>
        <path id="Tracé_606" d="M399.706,321.12a1.857,1.857,0,0,0,2.177-.9c1.75-2.757-1.472-6.312-.774-9.5.559-2.556,3.463-4.073,4.057-6.621.577-2.476-1.2-5.266,0-7.507.941-1.755,3.293-2.217,5.261-1.909s3.836,1.173,5.823,1.294c2.649.161,5.174-1,7.764-1.582s5.75-.352,7.273,1.821c1.957,2.79-.028,6.675.653,10.014.541,2.651,6.7,4.512,7.264,2.719a18.18,18.18,0,0,0-.743-12.682,25.4,25.4,0,0,1-2.165-5.158c-.5-2.489.286-5.162-.537-7.564-1.108-3.237-4.776-4.887-8.181-5.222s-6.865.265-10.251-.229c-3.033-.443-5.969-1.757-9.028-1.567-3.671.229-6.865,2.594-9.409,5.249s-4.7,5.71-7.593,7.985a14.891,14.891,0,0,0-2.435,2.1c-1.472,1.794-1.621,4.349-1.212,6.632s1.3,4.462,1.677,6.752c.354,2.152.244,4.35.4,6.525a11.469,11.469,0,0,0,1.914,6.159,5.813,5.813,0,0,0,4.523,2.363c.613.014,1.13-.536,1.748-.393C398.684,320.072,399.02,320.806,399.706,321.12Z" transform="translate(-61.844 -124.043)" fill="#2f2e41"/>
        <path id="Tracé_607" d="M483.2,397.719H457.519c-1.955-14.334-3.568-29.32-3.568-29.32l5.19-2.273,10.546-5.675s.773,1.833,2.015,4.955C474.353,372.081,479.164,384.643,483.2,397.719Z" transform="translate(-61.046 -123.035)" opacity="0.1"/>
        <path id="Tracé_608" d="M485.539,397.762H456.552c-4.3-15.683-8.531-32.73-8.531-32.73l11.031-8.107,12.971,3.568S479.615,378.564,485.539,397.762Z" transform="translate(-61.117 -123.077)" fill="#575a89"/>
        <rect id="Rectangle_133"  width="121.978" height="8.334" transform="translate(505.572 136.038)" fill="#6c63ff"/>
        <rect id="Rectangle_134"  width="43.185" height="8.334" transform="translate(302.527 295.141)" fill="#6c63ff"/>
        <rect id="Rectangle_135"  width="123.494" height="8.334" transform="translate(302.527 310.293)" fill="#6c63ff"/>
        <rect id="Rectangle_136"  width="175.77" height="8.334" transform="translate(476.782 166.344)" fill="#f2f2f2"/>
        <rect id="Rectangle_137"  width="175.77" height="8.334" transform="translate(476.782 189.831)" fill="#f2f2f2"/>
        <rect id="Rectangle_138"  width="175.77" height="8.334" transform="translate(476.782 213.317)" fill="#f2f2f2"/>
        <rect id="Rectangle_139"  width="175.77" height="8.334" transform="translate(476.782 236.803)" fill="#f2f2f2"/>
        <rect id="Rectangle_140"  width="175.77" height="8.334" transform="translate(476.782 260.29)" fill="#f2f2f2"/>
        <rect id="Rectangle_141"  width="175.77" height="8.334" transform="translate(476.782 283.777)" fill="#f2f2f2"/>
        <rect id="Rectangle_142"  width="175.77" height="8.334" transform="translate(476.782 307.263)" fill="#f2f2f2"/>
        <path id="Tracé_609"  d="M744.948,430.609,696.9,478.657l-20.2-20.195a6.9,6.9,0,0,0-9.763,0l-.725-1.085c-2.7,2.7-1.97,8.152.726,10.848l26.2,26.2a5.267,5.267,0,0,0,7.447,0l54.115-54.058c2.7-2.695,3.676-7.637.98-10.333h0C752.99,427.344,747.643,427.914,744.948,430.609Z" transform="translate(-58.517 -122.22)" fill="#57b894"/>
        <path id="Tracé_610"  d="M744.948,430.609,696.9,478.657l-20.2-20.195a6.9,6.9,0,0,0-9.763,0l-.725-1.085c-2.7,2.7-1.97,8.152.726,10.848l26.2,26.2a5.267,5.267,0,0,0,7.447,0l54.115-54.058c2.7-2.695,3.676-7.637.98-10.333h0C752.99,427.344,747.643,427.914,744.948,430.609Z" transform="translate(-58.517 -122.22)" opacity="0.1"/>
        <path id="Tracé_611"  d="M744.943,428.5l-48.048,48.049-20.2-20.195a6.9,6.9,0,0,0-9.763,0h0a6.9,6.9,0,0,0,0,9.763l26.2,26.2a5.267,5.267,0,0,0,7.447,0L754.7,438.263a6.9,6.9,0,0,0,0-9.763h0a6.9,6.9,0,0,0-9.76,0Z" transform="translate(-58.512 -122.242)" fill="#57b894"/>
        <path id="Tracé_612"  d="M1097.264,704.254c0,54.177-75.516,37.419-167.977,37.419s-166.853,16.758-166.853-37.419,75.505-65.959,167.966-65.959S1097.264,650.078,1097.264,704.254Z" transform="translate(-57.341 -119.698)" opacity="0.1"/>
        <path id="Tracé_613"  d="M1097.264,694.254c0,54.176-75.516,37.419-167.977,37.419s-166.853,16.758-166.853-37.419,75.505-65.959,167.966-65.959S1097.264,640.078,1097.264,694.254Z" transform="translate(-57.341 -119.818)" fill="#3f3d56"/>
        <path id="Tracé_614"  d="M781.878,525.762l-3.422,3.973s-41.606,3.906-39.917,10.66,50.093-9.005,50.093-9.005Z" transform="translate(-57.628 -121.049)" fill="#ffc1c7"/>
        <path id="Tracé_615"  d="M856.7,522.425s-44.464,15.759-68.666,9.005l11.257,22.513s57.409-1.689,67.541-11.82S856.7,522.425,856.7,522.425Z" transform="translate(-57.033 -121.089)" fill="#6c63ff"/>
        <path id="Tracé_616"  d="M856.7,522.425s-44.464,15.759-68.666,9.005l11.257,22.513s57.409-1.689,67.541-11.82S856.7,522.425,856.7,522.425Z" transform="translate(-57.033 -121.089)" opacity="0.1"/>
        <circle id="Ellipse_121"  cx="29.83" cy="29.83" r="29.83" transform="translate(739.727 220.946)" fill="#ffc1c7"/>
        <path id="Tracé_617"  d="M851.815,401.488a23.272,23.272,0,0,0,3.865,5.357A48.793,48.793,0,0,0,870.059,417.6a489.974,489.974,0,0,1-51.232,7.618c1.816-6.395-.574-13.235-3.787-19.055s-7.308-11.245-9.318-17.581l20.163.542c3.658.1,7.328.208,10.986.029,2.734-.134,7.288-1.772,9.84-1.168C852.1,389.264,849.459,396.7,851.815,401.488Z" transform="translate(-56.821 -122.706)" fill="#ffc1c7"/>
        <path id="Tracé_618"  d="M920.77,539.766l16.885,20.262s28.141,65.852-33.208,72.606-106.939-5.066-106.939-5.066-24.765-11.82-25.328-2.814-2.814,34.333-16.322,59.1l-11.82,27.016s-6.191,6.191-4.5,14.634-37.71,11.257-37.147,0c0,0,5.628-9.568,5.628-15.2s9.005-19.137,9.005-19.137l16.322-81.049s-1.126-41.65,37.147-33.77,92.868-1.688,92.868-1.688l12.382-43.339Z" transform="translate(-58.062 -120.982)" fill="#2f2e41"/>
        <path id="Tracé_619"  d="M920.77,539.766l16.885,20.262s28.141,65.852-33.208,72.606-106.939-5.066-106.939-5.066-24.765-11.82-25.328-2.814-2.814,34.333-16.322,59.1l-11.82,27.016s-6.191,6.191-4.5,14.634-37.71,11.257-37.147,0c0,0,5.628-9.568,5.628-15.2s9.005-19.137,9.005-19.137l16.322-81.049s-1.126-41.65,37.147-33.77,92.868-1.688,92.868-1.688l12.382-43.339Z" transform="translate(-58.062 -120.982)" opacity="0.1"/>
        <path id="Tracé_620"  d="M858.067,538.255s51.5-19.343,80.2,21.745c0,0,7.317,63.6-21.951,66.415s-67.541,2.251-76.546-7.317-65.852-36.585-65.852-36.585-28.3-14.434-33.848,4.321-6.114,23.258-6.114,23.258-29.268,21.388-41.087,25.328c0,0-7.88,11.257-12.382,11.257s-32.082,6.191-29.267-14.634l45.59-41.65,45.59-44.464s12.945-19.136,46.153-9.005a686.567,686.567,0,0,0,66.978,16.322Z" transform="translate(-58.679 -120.954)" fill="#2f2e41"/>
        <path id="Tracé_621"  d="M738.379,722.106s10.694,27.016,1.688,30.393-28.142,1.126-28.142,1.126-22.513-2.814-28.142-2.251-28.7-3.94-25.328-12.945,20.825-6.754,20.825-6.754l15.76-7.317s1.689-5.628,5.628-3.377S715.865,731.673,738.379,722.106Z" transform="translate(-58.593 -118.711)" fill="#cbceda"/>
        <path id="Tracé_622"  d="M680.361,643.258s11.82,26.453-7.317,24.2-33.77-6.191-39.4-6.754c-5.414-.541-20.723-5.77-18.374-16.186a9.266,9.266,0,0,0,.153-2.044c0-1.4,1.9-4.142,17.1-3.72,0,0,11.257,0,15.759-7.88C648.28,630.876,665.164,652.264,680.361,643.258Z" transform="translate(-59.111 -119.787)" fill="#cbceda"/>
        <path id="Tracé_623"  d="M805.834,420.782s40.524-25.328,74.295,0,56.284,140.71,56.284,140.71l-78.234-17.448s-3.377-13.508-7.88-15.759-5.066-11.82-5.066-11.82-24.2-7.317-22.513-35.459S805.834,420.782,805.834,420.782Z" transform="translate(-56.819 -122.445)" fill="#6c63ff"/>
        <path id="Tracé_624"  d="M827,421.76H806.18s-12.382,14.071-14.071,49.53l-6.754,28.142s-14.071,33.77-5.628,39.4,24.765,5.066,28.142-6.191,26.453-76.546,26.453-76.546Z" transform="translate(-57.165 -122.298)" fill="#6c63ff"/>
        <path id="Tracé_625"  d="M821.17,335.318a30.154,30.154,0,0,1,31.191,5.114c10.809,9.646,12.99,25.383,15.723,39.611s8.23,30.072,21.639,35.557a56.378,56.378,0,0,1-18.166-.529l20.264,18.16L857.685,422.1c-10.713-3.492-21.965-7.028-33.059-5.056-18.379,3.267-31.174,20.545-48.827,26.615l1.962-9.572L765.917,434a23.2,23.2,0,0,0,6.786-7.95,6.566,6.566,0,0,0-4.53-2.37c-4.937-30.794,13.349-61.234,37.179-81.353,4.687-3.957,9.874-7.758,15.928-8.748s13.121,1.717,15.226,7.479" transform="translate(-57.299 -123.364)" fill="#2f2e41"/>
        <path id="Tracé_626"  d="M310.2,614.159c0,64.785,40.643,117.208,90.869,117.208" transform="translate(-62.772 -119.988)" fill="#3f3d56"/>
        <path id="Tracé_627"  d="M399.987,731.384c0-65.513,45.355-118.525,101.4-118.525" transform="translate(-61.694 -120.003)" fill="#6c63ff"/>
        <path id="Tracé_628"  d="M342.729,619.963c0,61.539,25.917,111.335,57.946,111.335" transform="translate(-62.381 -119.918)" fill="#6c63ff"/>
        <path id="Tracé_629"  d="M399.987,731.774c0-83.711,52.423-151.448,117.208-151.448" transform="translate(-61.694 -120.394)" fill="#3f3d56"/>
        <path id="Tracé_630"  d="M381.1,730.876s12.887-.4,16.771-3.162,19.823-6.068,20.787-1.632,19.366,22.059,4.817,22.177-33.806-2.266-37.682-4.627S381.1,730.876,381.1,730.876Z" transform="translate(-61.921 -118.669)" fill="#a8a8a8"/>
        <path id="Tracé_631"  d="M423.731,746.631c-14.549.117-33.806-2.266-37.682-4.627-2.952-1.8-4.128-8.25-4.522-11.227-.273.012-.43.017-.43.017s.816,10.393,4.693,12.754,23.133,4.745,37.682,4.627c4.2-.034,5.65-1.528,5.571-3.741C428.459,745.771,426.857,746.606,423.731,746.631Z" transform="translate(-61.921 -118.587)" opacity="0.2"/>
    </g>
</svg>
