<svg xmlns="http://www.w3.org/2000/svg" xmlns:xlink="http://www.w3.org/1999/xlink" width="592" height="605" viewBox="0 0 592 605">
    <defs>
        <clipPath id="clip-path">
            <rect id="Rectangle_4" width="592" height="605" transform="translate(-0.133 0.338)" fill="#e0e0e0"/>
        </clipPath>
    </defs>
    <g id="Groupe_de_masques_1" transform="translate(0.133 -0.338)" clip-path="url(#clip-path)">
        <g id="iconfinder-fastwebsiteloadspeed-4417092_116619" transform="translate(0 19.798)">
            <g id="Groupe_102" data-name="Groupe 102" transform="translate(105.971 7.781)">
                <g id="Groupe_84" data-name="Groupe 84" transform="translate(0 43.859)">
                    <g id="Groupe_79" data-name="Groupe 79" transform="translate(0 222.847)">
                        <g id="Groupe_6" data-name="Groupe 6" transform="translate(0.037 0)">
                            <path id="Tracé_34" data-name="Tracé 34" d="M866.883,1156.244l-169.855,98.709a15.947,15.947,0,0,1-14.5.037L394.74,1088.812c-4.014-2.3-4.014-6.058,0-8.4L564.6,981.7a15.984,15.984,0,0,1,14.458,0l287.792,166.141C870.861,1150.186,870.9,1153.94,866.883,1156.244Z" transform="translate(-391.73 -979.975)" fill="#384e85"/>
                        </g>
                        <g id="Groupe_7" data-name="Groupe 7" transform="translate(74.439 99.009)">
                            <path id="Tracé_35" data-name="Tracé 35" d="M783.069,1355.555c2.288,1.321,2.274,3.473,0,4.794l-47.2,27.429a9.139,9.139,0,0,1-8.277.015l-93.011-53.7c-2.288-1.321-2.274-3.473,0-4.794l47.2-27.429a9.139,9.139,0,0,1,8.277-.015Z" transform="translate(-632.873 -1300.872)" fill="#2e4277"/>
                        </g>
                        <g id="Groupe_8" data-name="Groupe 8" transform="translate(0 104.637)">
                            <path id="Tracé_36" data-name="Tracé 36" d="M869.774,1386.582l-.037,15.165c0,1.487-1,3.011-2.973,4.163l-169.855,98.709a16.062,16.062,0,0,1-14.5,0L394.62,1338.477c-2.007-1.152-3.011-2.676-3.011-4.237l.037-15.127c0,1.524,1,3.048,3.011,4.2l287.792,166.179a15.946,15.946,0,0,0,14.5-.037L866.8,1390.745C868.807,1389.593,869.774,1388.106,869.774,1386.582Z" transform="translate(-391.609 -1319.112)" fill="#1b2a4f"/>
                        </g>
                        <g id="Groupe_78" data-name="Groupe 78" transform="translate(106.301 18.846)">
                            <g id="Groupe_9" data-name="Groupe 9" transform="translate(95.09 20.211)">
                                <path id="Tracé_37" data-name="Tracé 37" d="M1062.76,1114.083l-5.4,3.136-13.029-7.522,5.4-3.135Z" transform="translate(-1044.335 -1106.562)" fill="#798ffe"/>
                            </g>
                            <g id="Groupe_10" data-name="Groupe 10" transform="translate(0 31.116)">
                                <path id="Tracé_38" data-name="Tracé 38" d="M778.619,1159.542l-11.936,6.936-30.543-17.634,11.936-6.936Z" transform="translate(-736.141 -1141.908)" fill="#798ffe"/>
                            </g>
                            <g id="Groupe_11" data-name="Groupe 11" transform="translate(15.026 22.385)">
                                <path id="Tracé_39" data-name="Tracé 39" d="M809.807,1121.128l-11.936,6.936-13.029-7.521,11.937-6.936Z" transform="translate(-784.842 -1113.607)" fill="#798ffe"/>
                            </g>
                            <g id="Groupe_12" data-name="Groupe 12" transform="translate(32.541 32.496)">
                                <path id="Tracé_40" data-name="Tracé 40" d="M866.574,1153.9l-11.937,6.938-13.028-7.523,11.936-6.936Z" transform="translate(-841.609 -1146.38)" fill="#798ffe"/>
                            </g>
                            <g id="Groupe_13" data-name="Groupe 13" transform="translate(30.053 13.651)">
                                <path id="Tracé_41" data-name="Tracé 41" d="M876.023,1102.936l-11.936,6.936-30.544-17.634,11.937-6.936Z" transform="translate(-833.544 -1085.302)" fill="#798ffe"/>
                            </g>
                            <g id="Groupe_14" data-name="Groupe 14" transform="translate(65.06 33.862)">
                                <path id="Tracé_42" data-name="Tracé 42" d="M971.97,1158.33l-11.937,6.937L947,1157.744l11.936-6.937Z" transform="translate(-947.005 -1150.807)" fill="#798ffe"/>
                            </g>
                            <g id="Groupe_15" data-name="Groupe 15" transform="translate(86.6 28.904)">
                                <path id="Tracé_43" data-name="Tracé 43" d="M1041.763,1142.259l-11.915,6.924-13.028-7.522,11.913-6.923Z" transform="translate(-1016.821 -1134.738)" fill="#798ffe"/>
                            </g>
                            <g id="Groupe_16" data-name="Groupe 16" transform="translate(69.108 18.805)">
                                <path id="Tracé_44" data-name="Tracé 44" d="M985.069,1109.528l-11.913,6.923-13.029-7.521,11.915-6.924Z" transform="translate(-960.127 -1102.005)" fill="#798ffe"/>
                            </g>
                            <g id="Groupe_17" data-name="Groupe 17" transform="translate(77.599 10.112)">
                                <path id="Tracé_45" data-name="Tracé 45" d="M1006.07,1081.352l-5.4,3.135-13.028-7.521,5.4-3.137Z" transform="translate(-987.645 -1073.829)" fill="#798ffe"/>
                            </g>
                            <g id="Groupe_18" data-name="Groupe 18" transform="translate(45.08 4.932)">
                                <path id="Tracé_46" data-name="Tracé 46" d="M913.705,1068.325l-11.913,6.923-19.543-11.282,11.913-6.924Z" transform="translate(-882.249 -1057.042)" fill="#798ffe"/>
                            </g>
                            <g id="Groupe_19" data-name="Groupe 19" transform="translate(60.084)">
                                <path id="Tracé_47" data-name="Tracé 47" d="M949.3,1048.578l-5.4,3.137-13.029-7.522,5.4-3.135Z" transform="translate(-930.878 -1041.057)" fill="#798ffe"/>
                            </g>
                            <g id="Groupe_20" data-name="Groupe 20" transform="translate(165.102 60.631)">
                                <path id="Tracé_48" data-name="Tracé 48" d="M1289.678,1245.091l-5.4,3.137-13.028-7.522,5.4-3.137Z" transform="translate(-1271.253 -1237.569)" fill="#798ffe"/>
                            </g>
                            <g id="Groupe_21" data-name="Groupe 21" transform="translate(156.612 69.325)">
                                <path id="Tracé_49" data-name="Tracé 49" d="M1268.677,1273.267l-11.913,6.924-13.029-7.522,11.915-6.924Z" transform="translate(-1243.734 -1265.744)" fill="#798ffe"/>
                            </g>
                            <g id="Groupe_22" data-name="Groupe 22" transform="translate(139.121 59.227)">
                                <path id="Tracé_50" data-name="Tracé 50" d="M1211.987,1240.537l-11.915,6.924-13.028-7.523,11.913-6.923Z" transform="translate(-1187.044 -1233.016)" fill="#798ffe"/>
                            </g>
                            <g id="Groupe_23" data-name="Groupe 23" transform="translate(85.039 62.805)">
                                <path id="Tracé_51" data-name="Tracé 51" d="M1036.725,1252.136l-11.937,6.937-13.028-7.523,11.936-6.936Z" transform="translate(-1011.76 -1244.614)" fill="#798ffe"/>
                            </g>
                            <g id="Groupe_24" data-name="Groupe 24" transform="translate(102.552 72.917)">
                                <path id="Tracé_52" data-name="Tracé 52" d="M1093.488,1284.909l-11.936,6.936-13.029-7.521,11.937-6.938Z" transform="translate(-1068.523 -1277.386)" fill="#798ffe"/>
                            </g>
                            <g id="Groupe_33" data-name="Groupe 33" transform="translate(35.028 30.323)">
                                <g id="Groupe_25" data-name="Groupe 25" transform="translate(77.576)">
                                    <path id="Tracé_53" data-name="Tracé 53" d="M1119.527,1146.856l-5.4,3.137-13.028-7.521,5.4-3.137Z" transform="translate(-1101.102 -1139.335)" fill="#798ffe"/>
                                </g>
                                <g id="Groupe_26" data-name="Groupe 26" transform="translate(95.069 10.098)">
                                    <path id="Tracé_54" data-name="Tracé 54" d="M1176.221,1179.586l-5.4,3.137L1157.8,1175.2l5.4-3.137Z" transform="translate(-1157.796 -1172.063)" fill="#798ffe"/>
                                </g>
                                <g id="Groupe_27" data-name="Groupe 27" transform="translate(69.086 8.693)">
                                    <path id="Tracé_55" data-name="Tracé 55" d="M1098.526,1175.032l-11.913,6.924-13.029-7.521,11.915-6.924Z" transform="translate(-1073.583 -1167.51)" fill="#798ffe"/>
                                </g>
                                <g id="Groupe_28" data-name="Groupe 28" transform="translate(47.545 13.651)">
                                    <path id="Tracé_56" data-name="Tracé 56" d="M1028.732,1191.1l-11.936,6.937-13.029-7.523,11.937-6.936Z" transform="translate(-1003.767 -1183.58)" fill="#798ffe"/>
                                </g>
                                <g id="Groupe_29" data-name="Groupe 29" transform="translate(86.578 18.791)">
                                    <path id="Tracé_57" data-name="Tracé 57" d="M1155.22,1207.761l-11.915,6.924-13.028-7.522,11.913-6.924Z" transform="translate(-1130.278 -1200.239)" fill="#798ffe"/>
                                </g>
                                <g id="Groupe_30" data-name="Groupe 30" transform="translate(32.519 22.384)">
                                    <path id="Tracé_58" data-name="Tracé 58" d="M980.031,1219.406l-11.936,6.937-13.029-7.521L967,1211.885Z" transform="translate(-955.066 -1211.885)" fill="#798ffe"/>
                                </g>
                                <g id="Groupe_31" data-name="Groupe 31" transform="translate(65.037 23.751)">
                                    <path id="Tracé_59" data-name="Tracé 59" d="M1085.427,1223.834l-11.937,6.938-13.028-7.522,11.936-6.937Z" transform="translate(-1060.461 -1216.313)" fill="#798ffe"/>
                                </g>
                                <g id="Groupe_32" data-name="Groupe 32" transform="translate(0 21.005)">
                                    <path id="Tracé_60" data-name="Tracé 60" d="M944.625,1255.357l-11.914,6.923-83.041-47.943,11.915-6.924Z" transform="translate(-849.67 -1207.413)" fill="#798ffe"/>
                                </g>
                            </g>
                            <g id="Groupe_34" data-name="Groupe 34" transform="translate(147.61 50.533)">
                                <path id="Tracé_61" data-name="Tracé 61" d="M1232.984,1212.361l-5.4,3.137-13.029-7.522,5.4-3.135Z" transform="translate(-1214.559 -1204.84)" fill="#798ffe"/>
                            </g>
                            <g id="Groupe_35" data-name="Groupe 35" transform="translate(182.593 70.731)">
                                <path id="Tracé_62" data-name="Tracé 62" d="M1346.392,1277.836l-5.4,3.137-13.052-7.535,5.4-3.137Z" transform="translate(-1327.943 -1270.301)" fill="#798ffe"/>
                            </g>
                            <g id="Groupe_36" data-name="Groupe 36" transform="translate(217.6 90.942)">
                                <path id="Tracé_63" data-name="Tracé 63" d="M1459.829,1343.329l-5.4,3.135-13.028-7.521,5.4-3.137Z" transform="translate(-1441.404 -1335.807)" fill="#798ffe"/>
                            </g>
                            <g id="Groupe_39" data-name="Groupe 39" transform="translate(117.58 64.185)">
                                <g id="Groupe_37" data-name="Groupe 37">
                                    <path id="Tracé_64" data-name="Tracé 64" d="M1142.193,1256.608l-11.937,6.937-13.028-7.523,11.936-6.936Z" transform="translate(-1117.228 -1249.086)" fill="#798ffe"/>
                                </g>
                                <g id="Groupe_38" data-name="Groupe 38" transform="translate(17.491 10.099)">
                                    <path id="Tracé_65" data-name="Tracé 65" d="M1198.883,1289.339l-11.936,6.938-13.029-7.522,11.937-6.936Z" transform="translate(-1173.918 -1281.818)" fill="#798ffe"/>
                                </g>
                            </g>
                            <g id="Groupe_40" data-name="Groupe 40" transform="translate(152.563 84.382)">
                                <path id="Tracé_66" data-name="Tracé 66" d="M1255.6,1322.083l-11.937,6.936-13.05-7.535,11.936-6.938Z" transform="translate(-1230.612 -1314.547)" fill="#798ffe"/>
                            </g>
                            <g id="Groupe_41" data-name="Groupe 41" transform="translate(174.127 79.438)">
                                <path id="Tracé_67" data-name="Tracé 67" d="M1325.421,1306.03l-11.914,6.923-13.006-7.509,11.913-6.923Z" transform="translate(-1300.501 -1298.521)" fill="#798ffe"/>
                            </g>
                            <g id="Groupe_42" data-name="Groupe 42" transform="translate(170.077 94.495)">
                                <path id="Tracé_68" data-name="Tracé 68" d="M1312.34,1354.845l-11.936,6.937-13.029-7.521,11.937-6.937Z" transform="translate(-1287.375 -1347.323)" fill="#798ffe"/>
                            </g>
                            <g id="Groupe_43" data-name="Groupe 43" transform="translate(157.515 122.058)">
                                <path id="Tracé_69" data-name="Tracé 69" d="M1271.627,1444.18l-11.936,6.936-13.029-7.521,11.937-6.937Z" transform="translate(-1246.662 -1436.657)" fill="#798ffe"/>
                            </g>
                            <g id="Groupe_44" data-name="Groupe 44" transform="translate(172.543 113.326)">
                                <path id="Tracé_70" data-name="Tracé 70" d="M1320.333,1415.878l-11.937,6.938-13.028-7.523,11.936-6.936Z" transform="translate(-1295.368 -1408.357)" fill="#798ffe"/>
                            </g>
                            <g id="Groupe_45" data-name="Groupe 45" transform="translate(187.569 104.593)">
                                <path id="Tracé_71" data-name="Tracé 71" d="M1386.549,1397.686l-11.937,6.937-30.543-17.634,11.936-6.937Z" transform="translate(-1344.069 -1380.052)" fill="#798ffe"/>
                            </g>
                            <g id="Groupe_48" data-name="Groupe 48" transform="translate(209.11 99.635)">
                                <g id="Groupe_46" data-name="Groupe 46" transform="translate(26.004 1.418)">
                                    <path id="Tracé_72" data-name="Tracé 72" d="M1516.592,1376.1l-5.4,3.137-13.029-7.522,5.4-3.137Z" transform="translate(-1498.167 -1368.579)" fill="#798ffe"/>
                                </g>
                                <g id="Groupe_47" data-name="Groupe 47">
                                    <path id="Tracé_73" data-name="Tracé 73" d="M1449.828,1377.855l-11.915,6.924-24.028-13.873,11.913-6.924Z" transform="translate(-1413.885 -1363.982)" fill="#798ffe"/>
                                </g>
                            </g>
                            <g id="Groupe_49" data-name="Groupe 49" transform="translate(191.618 89.536)">
                                <path id="Tracé_74" data-name="Tracé 74" d="M1382.134,1338.772l-11.913,6.924-13.029-7.522,11.915-6.924Z" transform="translate(-1357.191 -1331.25)" fill="#798ffe"/>
                            </g>
                            <g id="Groupe_50" data-name="Groupe 50" transform="translate(200.108 80.842)">
                                <path id="Tracé_75" data-name="Tracé 75" d="M1403.135,1310.6l-5.4,3.137-13.029-7.522,5.4-3.137Z" transform="translate(-1384.71 -1303.074)" fill="#798ffe"/>
                            </g>
                            <g id="Groupe_51" data-name="Groupe 51" transform="translate(255.147 143.609)">
                                <path id="Tracé_76" data-name="Tracé 76" d="M1588.06,1514.028l-11.937,6.937-13.028-7.521,11.936-6.938Z" transform="translate(-1563.095 -1506.506)" fill="#798ffe"/>
                            </g>
                            <g id="Groupe_52" data-name="Groupe 52" transform="translate(290.153 163.82)">
                                <path id="Tracé_77" data-name="Tracé 77" d="M1701.517,1579.534l-11.937,6.936-13.028-7.523,11.937-6.936Z" transform="translate(-1676.552 -1572.011)" fill="#798ffe"/>
                            </g>
                            <g id="Groupe_53" data-name="Groupe 53" transform="translate(207.58 150.962)">
                                <path id="Tracé_78" data-name="Tracé 78" d="M1433.889,1537.861l-11.936,6.936-13.028-7.523,11.936-6.936Z" transform="translate(-1408.925 -1530.338)" fill="#798ffe"/>
                            </g>
                            <g id="Groupe_64" data-name="Groupe 64" transform="translate(222.606 119.846)">
                                <g id="Groupe_54" data-name="Groupe 54" transform="translate(45.058)">
                                    <path id="Tracé_79" data-name="Tracé 79" d="M1622.088,1437.01l-5.4,3.135-13.028-7.521,5.4-3.137Z" transform="translate(-1603.663 -1429.487)" fill="#798ffe"/>
                                </g>
                                <g id="Groupe_55" data-name="Groupe 55" transform="translate(30.053 4.932)">
                                    <path id="Tracé_80" data-name="Tracé 80" d="M1579.972,1453l-11.913,6.923-13.029-7.521,11.915-6.924Z" transform="translate(-1555.03 -1445.473)" fill="#798ffe"/>
                                </g>
                                <g id="Groupe_56" data-name="Groupe 56" transform="translate(62.571 10.112)">
                                    <path id="Tracé_81" data-name="Tracé 81" d="M1678.852,1469.783l-5.4,3.135-13.029-7.521,5.4-3.137Z" transform="translate(-1660.426 -1462.26)" fill="#798ffe"/>
                                </g>
                                <g id="Groupe_57" data-name="Groupe 57" transform="translate(15.026 13.651)">
                                    <path id="Tracé_82" data-name="Tracé 82" d="M1531.293,1481.255l-11.936,6.937-13.029-7.523,11.937-6.936Z" transform="translate(-1506.328 -1473.733)" fill="#798ffe"/>
                                </g>
                                <g id="Groupe_58" data-name="Groupe 58" transform="translate(47.567 15.044)">
                                    <path id="Tracé_83" data-name="Tracé 83" d="M1636.739,1485.768l-11.913,6.924-13.029-7.522,11.913-6.924Z" transform="translate(-1611.797 -1478.245)" fill="#798ffe"/>
                                </g>
                                <g id="Groupe_59" data-name="Groupe 59" transform="translate(0 22.385)">
                                    <path id="Tracé_84" data-name="Tracé 84" d="M1482.592,1509.56l-11.937,6.936-13.028-7.522,11.936-6.936Z" transform="translate(-1457.627 -1502.038)" fill="#798ffe"/>
                                </g>
                                <g id="Groupe_60" data-name="Groupe 60" transform="translate(65.06 25.143)">
                                    <path id="Tracé_85" data-name="Tracé 85" d="M1693.433,1518.5l-11.915,6.923-13.028-7.521,11.913-6.924Z" transform="translate(-1668.491 -1510.978)" fill="#798ffe"/>
                                </g>
                                <g id="Groupe_61" data-name="Groupe 61" transform="translate(17.513 32.496)">
                                    <path id="Tracé_86" data-name="Tracé 86" d="M1539.354,1542.333l-11.936,6.936-13.029-7.523,11.937-6.936Z" transform="translate(-1514.39 -1534.811)" fill="#798ffe"/>
                                </g>
                                <g id="Groupe_62" data-name="Groupe 62" transform="translate(50.032 33.862)">
                                    <path id="Tracé_87" data-name="Tracé 87" d="M1644.75,1546.761l-11.936,6.937-13.029-7.522,11.937-6.937Z" transform="translate(-1619.785 -1539.238)" fill="#798ffe"/>
                                </g>
                                <g id="Groupe_63" data-name="Groupe 63" transform="translate(35.006 42.595)">
                                    <path id="Tracé_88" data-name="Tracé 88" d="M1596.049,1575.064,1584.113,1582l-13.029-7.521,11.936-6.937Z" transform="translate(-1571.084 -1567.543)" fill="#798ffe"/>
                                </g>
                            </g>
                            <g id="Groupe_65" data-name="Groupe 65" transform="translate(50.032 42.594)">
                                <path id="Tracé_89" data-name="Tracé 89" d="M923.264,1186.631l-11.936,6.937-13.029-7.521,11.937-6.938Z" transform="translate(-898.299 -1179.108)" fill="#798ffe"/>
                            </g>
                            <g id="Groupe_66" data-name="Groupe 66" transform="translate(122.509 101.848)">
                                <path id="Tracé_90" data-name="Tracé 90" d="M1158.193,1378.691l-11.936,6.936-13.052-7.535,11.937-6.936Z" transform="translate(-1133.205 -1371.156)" fill="#798ffe"/>
                            </g>
                            <g id="Groupe_67" data-name="Groupe 67" transform="translate(137.536 93.115)">
                                <path id="Tracé_91" data-name="Tracé 91" d="M1206.894,1350.386l-11.936,6.937-13.052-7.535,11.937-6.937Z" transform="translate(-1181.907 -1342.851)" fill="#798ffe"/>
                            </g>
                            <g id="Groupe_68" data-name="Groupe 68" transform="translate(140.024 111.96)">
                                <path id="Tracé_92" data-name="Tracé 92" d="M1214.937,1411.45,1203,1418.388l-13.028-7.522,11.936-6.937Z" transform="translate(-1189.972 -1403.929)" fill="#798ffe"/>
                            </g>
                            <g id="Groupe_69" data-name="Groupe 69" transform="translate(155.05 103.227)">
                                <path id="Tracé_93" data-name="Tracé 93" d="M1263.638,1383.147l-11.936,6.936-13.029-7.522,11.937-6.936Z" transform="translate(-1238.674 -1375.624)" fill="#798ffe"/>
                            </g>
                            <g id="Groupe_70" data-name="Groupe 70" transform="translate(120.045 83.016)">
                                <path id="Tracé_94" data-name="Tracé 94" d="M1150.182,1317.641l-11.937,6.936-13.028-7.522,11.936-6.937Z" transform="translate(-1125.217 -1310.119)" fill="#798ffe"/>
                            </g>
                            <g id="Groupe_71" data-name="Groupe 71" transform="translate(175.03 132.171)">
                                <path id="Tracé_95" data-name="Tracé 95" d="M1328.394,1476.955l-11.937,6.936-13.028-7.521,11.936-6.937Z" transform="translate(-1303.429 -1469.434)" fill="#798ffe"/>
                            </g>
                            <g id="Groupe_72" data-name="Groupe 72" transform="translate(305.179 155.1)">
                                <path id="Tracé_96" data-name="Tracé 96" d="M1750.2,1551.273l-11.913,6.924-13.029-7.523,11.915-6.924Z" transform="translate(-1725.253 -1543.751)" fill="#798ffe"/>
                            </g>
                            <g id="Groupe_73" data-name="Groupe 73" transform="translate(320.184 150.168)">
                                <path id="Tracé_97" data-name="Tracé 97" d="M1792.312,1535.288l-5.4,3.135-13.028-7.521,5.4-3.136Z" transform="translate(-1773.886 -1527.766)" fill="#798ffe"/>
                            </g>
                            <g id="Groupe_74" data-name="Groupe 74" transform="translate(302.669 140.057)">
                                <path id="Tracé_98" data-name="Tracé 98" d="M1735.545,1502.514l-5.4,3.137-13.028-7.521,5.4-3.137Z" transform="translate(-1717.12 -1494.993)" fill="#798ffe"/>
                            </g>
                            <g id="Groupe_75" data-name="Groupe 75" transform="translate(225.093 161.075)">
                                <path id="Tracé_99" data-name="Tracé 99" d="M1490.653,1570.636l-11.936,6.937-13.029-7.521,11.937-6.937Z" transform="translate(-1465.688 -1563.115)" fill="#798ffe"/>
                            </g>
                            <g id="Groupe_76" data-name="Groupe 76" transform="translate(260.099 172.553)">
                                <path id="Tracé_100" data-name="Tracé 100" d="M1619.137,1607.838l-26.963,15.668-13.029-7.521,26.963-15.67Z" transform="translate(-1579.145 -1600.316)" fill="#798ffe"/>
                            </g>
                            <g id="Groupe_77" data-name="Groupe 77" transform="translate(242.585 171.173)">
                                <path id="Tracé_101" data-name="Tracé 101" d="M1547.347,1603.366l-11.937,6.937-13.028-7.522,11.936-6.937Z" transform="translate(-1522.382 -1595.844)" fill="#798ffe"/>
                            </g>
                        </g>
                    </g>
                    <g id="Groupe_83" data-name="Groupe 83" transform="translate(180.123)">
                        <g id="Groupe_80" data-name="Groupe 80" transform="translate(0 4.417)">
                            <path id="Tracé_102" data-name="Tracé 102" d="M1266.848,436.763a15.952,15.952,0,0,1,7.238,12.536l-.513,202.475c-.013,4.581-3.275,6.467-7.285,4.152L982.643,492.18a15.994,15.994,0,0,1-7.238-12.536l.513-202.475c.013-4.608,3.275-6.467,7.285-4.152Z" transform="translate(-975.405 -272.022)" fill="#1b2a4f"/>
                        </g>
                        <g id="Groupe_81" data-name="Groupe 81" transform="translate(2.63)">
                            <path id="Tracé_103" data-name="Tracé 103" d="M1287.6,434.988l-.521,202.467c0,2.267-.818,3.9-2.119,4.646l-7.607,4.424c1.3-.743,2.119-2.379,2.119-4.646l.52-202.467a16.074,16.074,0,0,0-7.248-12.563L989.1,263.121c-2.007-1.152-3.828-1.264-5.166-.52l7.607-4.424c1.3-.743,3.159-.632,5.166.52L1280.35,422.463A15.948,15.948,0,0,1,1287.6,434.988Z" transform="translate(-983.929 -257.706)" fill="#384e85"/>
                        </g>
                        <g id="Groupe_82" data-name="Groupe 82" transform="translate(10.238 18.905)">
                            <path id="Tracé_104" data-name="Tracé 104" d="M1286.793,479.3l-.494,195.6L1008.586,514.58l.494-195.6Z" transform="translate(-1008.586 -318.978)" fill="#d9ddf6"/>
                        </g>
                    </g>
                </g>
                <g id="Groupe_89" data-name="Groupe 89" transform="translate(212.793)">
                    <path id="Tracé_105" data-name="Tracé 105" d="M1798.786,636.415l-.454,154.25c-.007,2.532-.9,4.312-2.339,5.148l9.943-5.778c1.439-.836,2.332-2.616,2.339-5.148l.454-154.252Z" transform="translate(-1575.48 -471.714)" fill="#4466fb"/>
                    <g id="Groupe_85" data-name="Groupe 85" transform="translate(0 36.037)">
                        <path id="Tracé_106" data-name="Tracé 106" d="M1304.6,361.02l-.455,154.252c-.014,5.092-3.611,7.142-8.024,4.593L1089.281,400.447c-4.431-2.558-8-8.747-7.99-13.84l.455-154.252Z" transform="translate(-1081.291 -232.356)" fill="#6bb5fb"/>
                        <path id="Tracé_107" data-name="Tracé 107" d="M1109.958,281.246l-.408,143.35,205.42,118.6.432-143.344Z" transform="translate(-1100.831 -266.161)" fill="#fff"/>
                    </g>
                    <g id="Groupe_88" data-name="Groupe 88" transform="translate(0.454)">
                        <g id="Groupe_86" data-name="Groupe 86" transform="translate(2.412)">
                            <path id="Tracé_108" data-name="Tracé 108" d="M1321.056,249.884l-.063,24.607-9.963,5.739.063-24.544a17.564,17.564,0,0,0-8.009-13.809l-206.83-119.432c-2.207-1.261-4.225-1.387-5.675-.568l9.9-5.8c1.514-.82,3.531-.694,5.739.567l206.829,119.432C1317.462,238.66,1321.056,244.838,1321.056,249.884Z" transform="translate(-1090.579 -115.556)" fill="#384e85"/>
                        </g>
                        <g id="Groupe_87" data-name="Groupe 87" transform="translate(0 5.787)">
                            <path id="Tracé_109" data-name="Tracé 109" d="M1297.708,254.834c4.414,2.548,7.987,8.737,7.972,13.808l-.066,24.585L1082.762,164.563l.066-24.585c.014-5.071,3.611-7.121,8.042-4.562Z" transform="translate(-1082.762 -134.314)" fill="#2e4277"/>
                        </g>
                    </g>
                </g>
                <g id="Groupe_93" data-name="Groupe 93" transform="translate(380.176 109.065)">
                    <g id="Groupe_90" data-name="Groupe 90" transform="translate(35.275 20.361)">
                        <path id="Tracé_110" data-name="Tracé 110" d="M1743.642,535.793c-3.037-1.754-5.511-.344-5.52,3.146a12.059,12.059,0,0,0,5.484,9.481c3.022,1.745,5.495.354,5.5-3.137A12.09,12.09,0,0,0,1743.642,535.793Z" transform="translate(-1738.122 -535.039)" fill="#b7c5fd"/>
                    </g>
                    <g id="Groupe_91" data-name="Groupe 91" transform="translate(0 0)">
                        <path id="Tracé_111" data-name="Tracé 111" d="M1629.314,469.8c-3.037-1.754-5.51-.344-5.521,3.146a12.061,12.061,0,0,0,5.485,9.481c3.022,1.745,5.495.353,5.5-3.137A12.083,12.083,0,0,0,1629.314,469.8Z" transform="translate(-1623.793 -469.046)" fill="#b7c5fd"/>
                    </g>
                    <g id="Groupe_92" data-name="Groupe 92" transform="translate(17.638 10.179)">
                        <path id="Tracé_112" data-name="Tracé 112" d="M1686.48,502.791c-3.037-1.754-5.51-.344-5.52,3.146a12.06,12.06,0,0,0,5.485,9.482c3.038,1.754,5.495.353,5.5-3.137A12.06,12.06,0,0,0,1686.48,502.791Z" transform="translate(-1680.96 -502.036)" fill="#b7c5fd"/>
                    </g>
                </g>
                <g id="Groupe_101" data-name="Groupe 101" transform="translate(245.421 118.488)">
                    <g id="Groupe_99" data-name="Groupe 99" transform="translate(0 0)">
                        <g id="Groupe_94" data-name="Groupe 94" transform="translate(0 9.529)">
                            <path id="Tracé_113" data-name="Tracé 113" d="M1200.965,530.471l8.392,14.535c-9.966,3.116-17.353,11.375-20.6,23.961l-1.716-.991C1187.479,551.158,1192.64,538.447,1200.965,530.471Z" transform="translate(-1187.042 -530.471)" fill="#d9ddf6"/>
                        </g>
                        <g id="Groupe_95" data-name="Groupe 95" transform="translate(13.925)">
                            <path id="Tracé_114" data-name="Tracé 114" d="M1286.73,508.412l-.083,29.358a87.317,87.317,0,0,0-11.071-7.659c-13.179-7.609-25.337-9.485-35.011-6.461l-8.392-14.535C1244.661,497.131,1264.385,495.959,1286.73,508.412Z" transform="translate(-1232.172 -499.586)" fill="#b7c5fd"/>
                        </g>
                        <g id="Groupe_98" data-name="Groupe 98" transform="translate(68.398 8.826)">
                            <g id="Groupe_96" data-name="Groupe 96" transform="translate(33.932 60.955)">
                                <path id="Tracé_115" data-name="Tracé 115" d="M1539.692,725.753c9.418,18.743,15.2,38.852,15.568,57.439l-26.229-15.144a125.4,125.4,0,0,0-10.326-30.3Z" transform="translate(-1518.705 -725.753)" fill="#9aadfd"/>
                            </g>
                            <g id="Groupe_97" data-name="Groupe 97">
                                <path id="Tracé_116" data-name="Tracé 116" d="M1410.041,528.827c21.664,12.507,40.931,35.11,53.606,60.318l-20.987,12c-8.287-16.972-20.212-32.578-33.933-43.593l.083-29.358C1409.2,528.415,1409.62,528.585,1410.041,528.827Z" transform="translate(-1408.727 -528.191)" fill="#aabafd"/>
                            </g>
                        </g>
                    </g>
                    <g id="Groupe_100" data-name="Groupe 100" transform="translate(45.12 54.186)">
                        <path id="Tracé_117" data-name="Tracé 117" d="M1401.4,675.208l-49.567,33.073c1.362,4.754.625,9.013-2.182,10.613-1.876,1.069-4.328.731-6.781-.685a19.607,19.607,0,0,1-6.806-7.188c-3.734-6.468-3.714-13.47.044-15.612,1.875-1.068,4.337-.727,6.789.689a16.209,16.209,0,0,1,3.483,2.769Z" transform="translate(-1333.281 -675.208)" fill="#535d88"/>
                    </g>
                </g>
            </g>
            <g id="Groupe_139" data-name="Groupe 139" transform="translate(0 0)">
                <path id="Tracé_118" data-name="Tracé 118" d="M282.553,303.727l-.074,205.347c-.007,2.974-1.961,5.941-5.863,8.206l-87.637,50.932c-7.856,4.563-20.633,4.567-28.538,0L54.107,506.822c-3.979-2.3-5.965-5.311-5.958-8.323l.074-205.33c0,3,1.986,6.012,5.955,8.3l106.334,61.394c7.909,4.564,20.686,4.564,28.542,0l87.637-50.927C280.591,309.664,282.546,306.7,282.553,303.727Z" transform="translate(-48.148 -230.588)" fill="#4466fb"/>
                <path id="Tracé_119" data-name="Tracé 119" d="M276.761,155.155c7.907,4.565,7.948,11.965.093,16.53l-87.638,50.93c-7.855,4.565-20.632,4.566-28.539,0L54.343,161.223c-7.907-4.565-7.946-11.966-.091-16.531l87.638-50.93c7.855-4.565,20.63-4.565,28.537,0Z" transform="translate(-48.313 -90.339)" fill="#6bb5fb"/>
                <path id="Tracé_120" data-name="Tracé 120" d="M326.748,208.572c3.5,2.019,3.514,5.292.039,7.311l-61.379,35.669a13.905,13.905,0,0,1-12.622,0l-79.9-46.132c-3.5-2.019-3.516-5.293-.041-7.312l61.379-35.669a13.91,13.91,0,0,1,12.624,0Z" transform="translate(-132.576 -139.147)" fill="#4466fb"/>
                <g id="Groupe_111" data-name="Groupe 111" transform="translate(9.155 90.067)">
                    <g id="Groupe_104" data-name="Groupe 104">
                        <g id="Groupe_103" data-name="Groupe 103">
                            <path id="Tracé_121" data-name="Tracé 121" d="M173.235,435.276,82.069,382.639a2.832,2.832,0,0,0-4.248,2.453v18.634a5.665,5.665,0,0,0,2.832,4.906l91.166,52.634a2.832,2.832,0,0,0,4.248-2.453V440.181A5.664,5.664,0,0,0,173.235,435.276Z" transform="translate(-77.82 -382.255)" fill="#3955d1"/>
                            <path id="Tracé_122" data-name="Tracé 122" d="M99.971,425.5a6.867,6.867,0,0,1,3.118,5.4c-.006,1.987-1.409,2.79-3.139,1.791a6.877,6.877,0,0,1-3.12-5.4C96.836,425.3,98.242,424.505,99.971,425.5Z" transform="translate(-90.965 -411.862)"/>
                            <path id="Tracé_123" data-name="Tracé 123" d="M132.646,444.367a6.871,6.871,0,0,1,3.118,5.4c-.006,1.987-1.412,2.788-3.139,1.791a6.877,6.877,0,0,1-3.12-5.4C129.511,444.167,130.917,443.369,132.646,444.367Z" transform="translate(-113.558 -424.906)"/>
                            <path id="Tracé_124" data-name="Tracé 124" d="M165.32,463.232a6.871,6.871,0,0,1,3.118,5.4c-.006,1.987-1.412,2.788-3.139,1.791a6.877,6.877,0,0,1-3.12-5.4C162.185,463.033,163.591,462.234,165.32,463.232Z" transform="translate(-136.152 -437.95)"/>
                            <path id="Tracé_125" data-name="Tracé 125" d="M314.291,541.372l-23.38-13.5v8.854l23.38,13.5Z" transform="translate(-225.164 -482.945)"/>
                        </g>
                    </g>
                    <g id="Groupe_110" data-name="Groupe 110" transform="translate(128.223 13.119)">
                        <g id="Groupe_105" data-name="Groupe 105" transform="translate(0 43.987)">
                            <path id="Tracé_126" data-name="Tracé 126" d="M497.764,567.94a9.609,9.609,0,0,0-4.359,7.551l.087,22.544c.008,2.775,1.973,3.895,4.388,2.5a9.609,9.609,0,0,0,4.359-7.551l-.087-22.544C502.144,567.665,500.179,566.545,497.764,567.94Z" transform="translate(-493.404 -567.34)" fill="#1b2a4f"/>
                            <path id="Tracé_127" data-name="Tracé 127" d="M501.478,591.9l-.087-22.544a3.881,3.881,0,0,0-.489-2.016c1.5-.064,2.54,1.077,2.546,3.1l.087,22.544a9.609,9.609,0,0,1-4.359,7.551c-1.7.979-3.168.717-3.9-.485a4.083,4.083,0,0,0,1.842-.6A9.611,9.611,0,0,0,501.478,591.9Z" transform="translate(-494.699 -567.342)" fill="#6bb5fb"/>
                        </g>
                        <g id="Groupe_106" data-name="Groupe 106" transform="translate(75.694)">
                            <path id="Tracé_128" data-name="Tracé 128" d="M743.094,425.373a9.609,9.609,0,0,0-4.359,7.551l.087,22.544c.008,2.775,1.973,3.895,4.388,2.5a9.609,9.609,0,0,0,4.359-7.551l-.087-22.544C747.474,425.1,745.509,423.98,743.094,425.373Z" transform="translate(-738.735 -424.774)" fill="#1b2a4f"/>
                            <path id="Tracé_129" data-name="Tracé 129" d="M746.8,449.341l-.087-22.544a3.882,3.882,0,0,0-.49-2.016c1.5-.064,2.54,1.077,2.546,3.1l.087,22.544a9.609,9.609,0,0,1-4.359,7.551c-1.7.979-3.168.717-3.9-.485a4.085,4.085,0,0,0,1.842-.6A9.612,9.612,0,0,0,746.8,449.341Z" transform="translate(-740.026 -424.777)" fill="#6bb5fb"/>
                        </g>
                        <g id="Groupe_107" data-name="Groupe 107" transform="translate(56.771 10.997)">
                            <path id="Tracé_130" data-name="Tracé 130" d="M681.762,461.016a9.609,9.609,0,0,0-4.359,7.551l.087,22.544c.008,2.775,1.973,3.895,4.388,2.5a9.609,9.609,0,0,0,4.359-7.551l-.087-22.544C686.142,460.741,684.177,459.621,681.762,461.016Z" transform="translate(-677.403 -460.416)" fill="#1b2a4f"/>
                            <path id="Tracé_131" data-name="Tracé 131" d="M685.473,484.981l-.087-22.544a3.883,3.883,0,0,0-.49-2.016c1.5-.064,2.54,1.077,2.546,3.1l.087,22.544a9.609,9.609,0,0,1-4.359,7.551c-1.7.979-3.168.717-3.9-.485a4.084,4.084,0,0,0,1.842-.6A9.609,9.609,0,0,0,685.473,484.981Z" transform="translate(-678.695 -460.417)" fill="#6bb5fb"/>
                        </g>
                        <g id="Groupe_108" data-name="Groupe 108" transform="translate(37.847 21.993)">
                            <path id="Tracé_132" data-name="Tracé 132" d="M620.431,496.656a9.609,9.609,0,0,0-4.359,7.551l.087,22.544c.008,2.775,1.973,3.895,4.388,2.5a9.609,9.609,0,0,0,4.359-7.551l-.087-22.544C624.81,496.381,622.846,495.261,620.431,496.656Z" transform="translate(-616.071 -496.056)" fill="#1b2a4f"/>
                            <path id="Tracé_133" data-name="Tracé 133" d="M624.141,520.625l-.087-22.544a3.881,3.881,0,0,0-.49-2.016c1.5-.064,2.54,1.077,2.546,3.1l.087,22.544a9.609,9.609,0,0,1-4.359,7.551c-1.7.979-3.168.717-3.9-.485a4.085,4.085,0,0,0,1.842-.6A9.611,9.611,0,0,0,624.141,520.625Z" transform="translate(-617.363 -496.06)" fill="#6bb5fb"/>
                        </g>
                        <g id="Groupe_109" data-name="Groupe 109" transform="translate(18.923 32.99)">
                            <path id="Tracé_134" data-name="Tracé 134" d="M559.1,532.3a9.609,9.609,0,0,0-4.359,7.551l.087,22.544c.008,2.775,1.973,3.895,4.388,2.5a9.609,9.609,0,0,0,4.359-7.551l-.087-22.544C563.476,532.024,561.51,530.9,559.1,532.3Z" transform="translate(-554.736 -531.698)" fill="#1b2a4f"/>
                            <path id="Tracé_135" data-name="Tracé 135" d="M562.81,556.265l-.087-22.544a3.882,3.882,0,0,0-.49-2.016c1.5-.064,2.54,1.077,2.546,3.1l.087,22.544a9.609,9.609,0,0,1-4.359,7.551c-1.7.979-3.168.717-3.9-.485a4.085,4.085,0,0,0,1.842-.6A9.611,9.611,0,0,0,562.81,556.265Z" transform="translate(-556.03 -531.701)" fill="#6bb5fb"/>
                        </g>
                    </g>
                </g>
                <g id="Groupe_120" data-name="Groupe 120" transform="translate(9.155 138.796)">
                    <g id="Groupe_113" data-name="Groupe 113">
                        <g id="Groupe_112" data-name="Groupe 112">
                            <path id="Tracé_136" data-name="Tracé 136" d="M173.235,593.209,82.069,540.572a2.832,2.832,0,0,0-4.248,2.453v18.634a5.665,5.665,0,0,0,2.832,4.906L171.819,619.2a2.832,2.832,0,0,0,4.248-2.453V598.115A5.664,5.664,0,0,0,173.235,593.209Z" transform="translate(-77.82 -540.188)" fill="#3955d1"/>
                            <path id="Tracé_137" data-name="Tracé 137" d="M99.971,583.435a6.867,6.867,0,0,1,3.118,5.4c-.006,1.987-1.409,2.789-3.139,1.791a6.877,6.877,0,0,1-3.12-5.4C96.836,583.235,98.242,582.437,99.971,583.435Z" transform="translate(-90.965 -569.794)"/>
                            <path id="Tracé_138" data-name="Tracé 138" d="M132.646,602.3a6.871,6.871,0,0,1,3.118,5.4c-.006,1.987-1.412,2.788-3.139,1.791a6.877,6.877,0,0,1-3.12-5.4C129.511,602.1,130.917,601.3,132.646,602.3Z" transform="translate(-113.558 -582.839)"/>
                            <path id="Tracé_139" data-name="Tracé 139" d="M165.32,621.164a6.871,6.871,0,0,1,3.118,5.4c-.006,1.987-1.412,2.788-3.139,1.791a6.877,6.877,0,0,1-3.12-5.4C162.185,620.965,163.591,620.166,165.32,621.164Z" transform="translate(-136.152 -595.883)"/>
                            <path id="Tracé_140" data-name="Tracé 140" d="M314.291,699.3l-23.38-13.5v8.854l23.38,13.5Z" transform="translate(-225.164 -640.877)"/>
                        </g>
                    </g>
                    <g id="Groupe_119" data-name="Groupe 119" transform="translate(128.223 13.118)">
                        <g id="Groupe_114" data-name="Groupe 114" transform="translate(0 43.986)">
                            <path id="Tracé_141" data-name="Tracé 141" d="M497.764,725.87a9.609,9.609,0,0,0-4.359,7.551l.087,22.544c.008,2.775,1.973,3.895,4.388,2.5a9.609,9.609,0,0,0,4.359-7.551l-.087-22.544C502.144,725.6,500.179,724.476,497.764,725.87Z" transform="translate(-493.404 -725.27)" fill="#1b2a4f"/>
                            <path id="Tracé_142" data-name="Tracé 142" d="M501.478,749.837l-.087-22.544a3.881,3.881,0,0,0-.489-2.016c1.5-.064,2.54,1.077,2.546,3.1l.087,22.544a9.609,9.609,0,0,1-4.359,7.551c-1.7.979-3.168.717-3.9-.485a4.084,4.084,0,0,0,1.842-.6A9.609,9.609,0,0,0,501.478,749.837Z" transform="translate(-494.699 -725.273)" fill="#6bb5fb"/>
                        </g>
                        <g id="Groupe_115" data-name="Groupe 115" transform="translate(75.694)">
                            <path id="Tracé_143" data-name="Tracé 143" d="M743.094,583.306a9.609,9.609,0,0,0-4.359,7.551l.087,22.544c.008,2.775,1.973,3.895,4.388,2.5a9.609,9.609,0,0,0,4.359-7.551l-.087-22.544C747.474,583.032,745.509,581.912,743.094,583.306Z" transform="translate(-738.735 -582.706)" fill="#1b2a4f"/>
                            <path id="Tracé_144" data-name="Tracé 144" d="M746.8,607.273l-.087-22.544a3.882,3.882,0,0,0-.49-2.016c1.5-.064,2.54,1.077,2.546,3.1l.087,22.544A9.609,9.609,0,0,1,744.5,615.9c-1.7.979-3.168.717-3.9-.485a4.085,4.085,0,0,0,1.842-.6A9.612,9.612,0,0,0,746.8,607.273Z" transform="translate(-740.026 -582.709)" fill="#6bb5fb"/>
                        </g>
                        <g id="Groupe_116" data-name="Groupe 116" transform="translate(56.771 10.997)">
                            <path id="Tracé_145" data-name="Tracé 145" d="M681.762,618.948A9.609,9.609,0,0,0,677.4,626.5l.087,22.544c.008,2.775,1.973,3.895,4.388,2.5a9.61,9.61,0,0,0,4.359-7.551l-.087-22.544C686.142,618.673,684.177,617.553,681.762,618.948Z" transform="translate(-677.403 -618.348)" fill="#1b2a4f"/>
                            <path id="Tracé_146" data-name="Tracé 146" d="M685.473,642.913l-.087-22.544a3.883,3.883,0,0,0-.49-2.016c1.5-.064,2.54,1.077,2.546,3.1l.087,22.544a9.609,9.609,0,0,1-4.359,7.551c-1.7.979-3.168.717-3.9-.485a4.084,4.084,0,0,0,1.842-.6A9.61,9.61,0,0,0,685.473,642.913Z" transform="translate(-678.695 -618.35)" fill="#6bb5fb"/>
                        </g>
                        <g id="Groupe_117" data-name="Groupe 117" transform="translate(37.847 21.993)">
                            <path id="Tracé_147" data-name="Tracé 147" d="M620.431,654.588a9.609,9.609,0,0,0-4.359,7.551l.087,22.544c.008,2.775,1.973,3.895,4.388,2.5a9.61,9.61,0,0,0,4.359-7.551l-.087-22.544C624.81,654.313,622.846,653.193,620.431,654.588Z" transform="translate(-616.071 -653.988)" fill="#1b2a4f"/>
                            <path id="Tracé_148" data-name="Tracé 148" d="M624.141,678.557l-.087-22.544a3.881,3.881,0,0,0-.49-2.016c1.5-.064,2.54,1.077,2.546,3.1l.087,22.544a9.609,9.609,0,0,1-4.359,7.551c-1.7.979-3.168.717-3.9-.485a4.083,4.083,0,0,0,1.842-.6A9.613,9.613,0,0,0,624.141,678.557Z" transform="translate(-617.363 -653.993)" fill="#6bb5fb"/>
                        </g>
                        <g id="Groupe_118" data-name="Groupe 118" transform="translate(18.923 32.99)">
                            <path id="Tracé_149" data-name="Tracé 149" d="M559.1,690.23a9.609,9.609,0,0,0-4.359,7.551l.087,22.544c.008,2.775,1.973,3.895,4.388,2.5a9.61,9.61,0,0,0,4.359-7.551l-.087-22.544C563.476,689.956,561.51,688.836,559.1,690.23Z" transform="translate(-554.736 -689.63)" fill="#1b2a4f"/>
                            <path id="Tracé_150" data-name="Tracé 150" d="M562.81,714.2l-.087-22.544a3.883,3.883,0,0,0-.49-2.016c1.5-.064,2.54,1.077,2.546,3.1l.087,22.544a9.608,9.608,0,0,1-4.359,7.551c-1.7.979-3.168.717-3.9-.485a4.085,4.085,0,0,0,1.842-.6A9.612,9.612,0,0,0,562.81,714.2Z" transform="translate(-556.03 -689.633)" fill="#6bb5fb"/>
                        </g>
                    </g>
                </g>
                <g id="Groupe_129" data-name="Groupe 129" transform="translate(9.155 187.524)">
                    <g id="Groupe_122" data-name="Groupe 122">
                        <g id="Groupe_121" data-name="Groupe 121">
                            <path id="Tracé_151" data-name="Tracé 151" d="M173.235,751.142,82.069,698.5a2.832,2.832,0,0,0-4.248,2.453v18.634a5.665,5.665,0,0,0,2.832,4.906l91.166,52.634a2.832,2.832,0,0,0,4.248-2.453V756.047A5.664,5.664,0,0,0,173.235,751.142Z" transform="translate(-77.82 -698.121)" fill="#3955d1"/>
                            <path id="Tracé_152" data-name="Tracé 152" d="M99.971,741.367a6.867,6.867,0,0,1,3.118,5.4c-.006,1.987-1.409,2.789-3.139,1.791a6.877,6.877,0,0,1-3.12-5.4C96.836,741.167,98.242,740.369,99.971,741.367Z" transform="translate(-90.965 -727.727)"/>
                            <path id="Tracé_153" data-name="Tracé 153" d="M132.646,760.232a6.871,6.871,0,0,1,3.118,5.4c-.006,1.987-1.412,2.788-3.139,1.791a6.877,6.877,0,0,1-3.12-5.4C129.511,760.031,130.917,759.234,132.646,760.232Z" transform="translate(-113.558 -740.771)"/>
                            <path id="Tracé_154" data-name="Tracé 154" d="M165.32,779.1a6.871,6.871,0,0,1,3.118,5.4c-.006,1.987-1.412,2.788-3.139,1.791a6.877,6.877,0,0,1-3.12-5.4C162.185,778.9,163.591,778.1,165.32,779.1Z" transform="translate(-136.152 -753.815)"/>
                            <path id="Tracé_155" data-name="Tracé 155" d="M314.291,857.237l-23.38-13.5v8.854l23.38,13.5Z" transform="translate(-225.164 -798.81)"/>
                        </g>
                    </g>
                    <g id="Groupe_128" data-name="Groupe 128" transform="translate(128.223 13.118)">
                        <g id="Groupe_123" data-name="Groupe 123" transform="translate(0 43.987)">
                            <path id="Tracé_156" data-name="Tracé 156" d="M497.764,883.8a9.609,9.609,0,0,0-4.359,7.551l.087,22.544c.008,2.775,1.973,3.895,4.388,2.5a9.609,9.609,0,0,0,4.359-7.551l-.087-22.544C502.144,883.529,500.179,882.409,497.764,883.8Z" transform="translate(-493.404 -883.204)" fill="#1b2a4f"/>
                            <path id="Tracé_157" data-name="Tracé 157" d="M501.478,907.769l-.087-22.544a3.881,3.881,0,0,0-.489-2.016c1.5-.064,2.54,1.077,2.546,3.1l.087,22.544a9.609,9.609,0,0,1-4.359,7.551c-1.7.979-3.168.717-3.9-.485a4.084,4.084,0,0,0,1.842-.6A9.611,9.611,0,0,0,501.478,907.769Z" transform="translate(-494.699 -883.206)" fill="#6bb5fb"/>
                        </g>
                        <g id="Groupe_124" data-name="Groupe 124" transform="translate(75.694)">
                            <path id="Tracé_158" data-name="Tracé 158" d="M743.094,741.238a9.609,9.609,0,0,0-4.359,7.551l.087,22.544c.008,2.775,1.973,3.895,4.388,2.5a9.609,9.609,0,0,0,4.359-7.551l-.087-22.544C747.474,740.964,745.509,739.844,743.094,741.238Z" transform="translate(-738.735 -740.638)" fill="#1b2a4f"/>
                            <path id="Tracé_159" data-name="Tracé 159" d="M746.8,765.206l-.087-22.544a3.882,3.882,0,0,0-.49-2.016c1.5-.064,2.54,1.077,2.546,3.1l.087,22.544a9.609,9.609,0,0,1-4.359,7.551c-1.7.979-3.168.717-3.9-.485a4.084,4.084,0,0,0,1.842-.6A9.612,9.612,0,0,0,746.8,765.206Z" transform="translate(-740.026 -740.642)" fill="#6bb5fb"/>
                        </g>
                        <g id="Groupe_125" data-name="Groupe 125" transform="translate(56.771 10.997)">
                            <path id="Tracé_160" data-name="Tracé 160" d="M681.762,776.88a9.609,9.609,0,0,0-4.359,7.551l.087,22.544c.008,2.775,1.973,3.895,4.388,2.5a9.61,9.61,0,0,0,4.359-7.551l-.087-22.544C686.142,776.605,684.177,775.485,681.762,776.88Z" transform="translate(-677.403 -776.28)" fill="#1b2a4f"/>
                            <path id="Tracé_161" data-name="Tracé 161" d="M685.473,800.845l-.087-22.544a3.882,3.882,0,0,0-.49-2.016c1.5-.064,2.54,1.077,2.546,3.1l.087,22.544a9.609,9.609,0,0,1-4.359,7.551c-1.7.979-3.168.717-3.9-.485a4.085,4.085,0,0,0,1.842-.6A9.61,9.61,0,0,0,685.473,800.845Z" transform="translate(-678.695 -776.282)" fill="#6bb5fb"/>
                        </g>
                        <g id="Groupe_126" data-name="Groupe 126" transform="translate(37.847 21.993)">
                            <path id="Tracé_162" data-name="Tracé 162" d="M620.431,812.52a9.609,9.609,0,0,0-4.359,7.551l.087,22.544c.008,2.775,1.973,3.895,4.388,2.5a9.609,9.609,0,0,0,4.359-7.551l-.087-22.544C624.81,812.245,622.846,811.125,620.431,812.52Z" transform="translate(-616.071 -811.92)" fill="#1b2a4f"/>
                            <path id="Tracé_163" data-name="Tracé 163" d="M624.141,836.485l-.087-22.544a3.881,3.881,0,0,0-.49-2.016c1.5-.064,2.54,1.077,2.546,3.1l.087,22.544a9.609,9.609,0,0,1-4.359,7.551c-1.7.979-3.168.717-3.9-.485a4.083,4.083,0,0,0,1.842-.6A9.609,9.609,0,0,0,624.141,836.485Z" transform="translate(-617.363 -811.922)" fill="#6bb5fb"/>
                        </g>
                        <g id="Groupe_127" data-name="Groupe 127" transform="translate(18.923 32.99)">
                            <path id="Tracé_164" data-name="Tracé 164" d="M559.1,848.161a9.609,9.609,0,0,0-4.359,7.551l.087,22.544c.008,2.775,1.973,3.895,4.388,2.5a9.609,9.609,0,0,0,4.359-7.551l-.087-22.544C563.476,847.886,561.51,846.768,559.1,848.161Z" transform="translate(-554.736 -847.562)" fill="#1b2a4f"/>
                            <path id="Tracé_165" data-name="Tracé 165" d="M562.81,872.129l-.087-22.544a3.883,3.883,0,0,0-.49-2.016c1.5-.064,2.54,1.077,2.546,3.1l.087,22.544a9.609,9.609,0,0,1-4.359,7.551c-1.7.979-3.168.717-3.9-.485a4.085,4.085,0,0,0,1.842-.6A9.612,9.612,0,0,0,562.81,872.129Z" transform="translate(-556.03 -847.565)" fill="#6bb5fb"/>
                        </g>
                    </g>
                </g>
                <g id="Groupe_138" data-name="Groupe 138" transform="translate(9.155 236.251)">
                    <g id="Groupe_131" data-name="Groupe 131">
                        <g id="Groupe_130" data-name="Groupe 130">
                            <path id="Tracé_166" data-name="Tracé 166" d="M173.235,909.07,82.069,856.433a2.832,2.832,0,0,0-4.248,2.453v18.634a5.665,5.665,0,0,0,2.832,4.906l91.166,52.634a2.832,2.832,0,0,0,4.248-2.453V913.975A5.667,5.667,0,0,0,173.235,909.07Z" transform="translate(-77.82 -856.049)" fill="#3955d1"/>
                            <path id="Tracé_167" data-name="Tracé 167" d="M99.971,899.3a6.867,6.867,0,0,1,3.118,5.4c-.006,1.987-1.409,2.789-3.139,1.791a6.877,6.877,0,0,1-3.12-5.4C96.836,899.1,98.242,898.3,99.971,899.3Z" transform="translate(-90.965 -885.656)"/>
                            <path id="Tracé_168" data-name="Tracé 168" d="M132.646,918.163a6.871,6.871,0,0,1,3.118,5.4c-.006,1.987-1.412,2.788-3.139,1.791a6.877,6.877,0,0,1-3.12-5.4C129.511,917.963,130.917,917.164,132.646,918.163Z" transform="translate(-113.558 -898.701)"/>
                            <path id="Tracé_169" data-name="Tracé 169" d="M165.32,937.027a6.871,6.871,0,0,1,3.118,5.4c-.006,1.987-1.412,2.788-3.139,1.791a6.877,6.877,0,0,1-3.12-5.4C162.185,936.827,163.591,936.028,165.32,937.027Z" transform="translate(-136.152 -911.745)"/>
                            <path id="Tracé_170" data-name="Tracé 170" d="M314.291,1015.166l-23.38-13.5v8.855l23.38,13.5Z" transform="translate(-225.164 -956.738)"/>
                        </g>
                    </g>
                    <g id="Groupe_137" data-name="Groupe 137" transform="translate(128.223 13.12)">
                        <g id="Groupe_132" data-name="Groupe 132" transform="translate(0 43.986)">
                            <path id="Tracé_171" data-name="Tracé 171" d="M497.764,1041.734a9.609,9.609,0,0,0-4.359,7.55l.087,22.544c.008,2.775,1.973,3.895,4.388,2.5a9.609,9.609,0,0,0,4.359-7.551l-.087-22.544C502.144,1041.46,500.179,1040.341,497.764,1041.734Z" transform="translate(-493.404 -1041.135)" fill="#1b2a4f"/>
                            <path id="Tracé_172" data-name="Tracé 172" d="M501.478,1065.7l-.087-22.544a3.881,3.881,0,0,0-.489-2.016c1.5-.064,2.54,1.077,2.546,3.1l.087,22.544a9.609,9.609,0,0,1-4.359,7.551c-1.7.979-3.168.717-3.9-.485a4.082,4.082,0,0,0,1.842-.6A9.611,9.611,0,0,0,501.478,1065.7Z" transform="translate(-494.699 -1041.138)" fill="#6bb5fb"/>
                        </g>
                        <g id="Groupe_133" data-name="Groupe 133" transform="translate(75.694)">
                            <path id="Tracé_173" data-name="Tracé 173" d="M743.094,899.17a9.609,9.609,0,0,0-4.359,7.551l.087,22.544c.008,2.775,1.973,3.895,4.388,2.5a9.609,9.609,0,0,0,4.359-7.551l-.087-22.544C747.474,898.9,745.509,897.776,743.094,899.17Z" transform="translate(-738.735 -898.571)" fill="#1b2a4f"/>
                            <path id="Tracé_174" data-name="Tracé 174" d="M746.8,923.138l-.087-22.544a3.882,3.882,0,0,0-.49-2.016c1.5-.064,2.54,1.077,2.546,3.1l.087,22.544a9.609,9.609,0,0,1-4.359,7.551c-1.7.979-3.168.717-3.9-.485a4.084,4.084,0,0,0,1.842-.6A9.612,9.612,0,0,0,746.8,923.138Z" transform="translate(-740.026 -898.574)" fill="#6bb5fb"/>
                        </g>
                        <g id="Groupe_134" data-name="Groupe 134" transform="translate(56.771 10.997)">
                            <path id="Tracé_175" data-name="Tracé 175" d="M681.762,934.812a9.609,9.609,0,0,0-4.359,7.551l.087,22.544c.008,2.775,1.973,3.895,4.388,2.5a9.609,9.609,0,0,0,4.359-7.551l-.087-22.544C686.142,934.537,684.177,933.418,681.762,934.812Z" transform="translate(-677.403 -934.212)" fill="#1b2a4f"/>
                            <path id="Tracé_176" data-name="Tracé 176" d="M685.473,958.778l-.087-22.544a3.882,3.882,0,0,0-.49-2.016c1.5-.064,2.54,1.077,2.546,3.1l.087,22.544a9.609,9.609,0,0,1-4.359,7.551c-1.7.979-3.168.717-3.9-.485a4.084,4.084,0,0,0,1.842-.6A9.61,9.61,0,0,0,685.473,958.778Z" transform="translate(-678.695 -934.214)" fill="#6bb5fb"/>
                        </g>
                        <g id="Groupe_135" data-name="Groupe 135" transform="translate(37.847 21.993)">
                            <path id="Tracé_177" data-name="Tracé 177" d="M620.431,970.452A9.609,9.609,0,0,0,616.071,978l.087,22.544c.008,2.775,1.973,3.895,4.388,2.5a9.609,9.609,0,0,0,4.359-7.551l-.087-22.544C624.81,970.177,622.846,969.058,620.431,970.452Z" transform="translate(-616.071 -969.852)" fill="#1b2a4f"/>
                            <path id="Tracé_178" data-name="Tracé 178" d="M624.141,994.417l-.087-22.544a3.881,3.881,0,0,0-.49-2.016c1.5-.065,2.54,1.077,2.546,3.1L626.2,995.5a9.609,9.609,0,0,1-4.359,7.551c-1.7.979-3.168.717-3.9-.485a4.084,4.084,0,0,0,1.842-.6A9.609,9.609,0,0,0,624.141,994.417Z" transform="translate(-617.363 -969.854)" fill="#6bb5fb"/>
                        </g>
                        <g id="Groupe_136" data-name="Groupe 136" transform="translate(18.923 32.99)">
                            <path id="Tracé_179" data-name="Tracé 179" d="M559.1,1006.093a9.609,9.609,0,0,0-4.359,7.551l.087,22.544c.008,2.775,1.973,3.895,4.388,2.5a9.61,9.61,0,0,0,4.359-7.551l-.087-22.544C563.476,1005.819,561.51,1004.7,559.1,1006.093Z" transform="translate(-554.736 -1005.493)" fill="#1b2a4f"/>
                            <path id="Tracé_180" data-name="Tracé 180" d="M562.81,1030.062l-.087-22.544a3.882,3.882,0,0,0-.49-2.015c1.5-.064,2.54,1.077,2.546,3.1l.087,22.544a9.608,9.608,0,0,1-4.359,7.551c-1.7.979-3.168.717-3.9-.485a4.083,4.083,0,0,0,1.842-.6A9.612,9.612,0,0,0,562.81,1030.062Z" transform="translate(-556.03 -1005.497)" fill="#6bb5fb"/>
                        </g>
                    </g>
                </g>
            </g>
        </g>
    </g>
</svg>
