<svg id="undraw_Wishlist_re_m7tv" xmlns="http://www.w3.org/2000/svg" width="587.532" height="422.363" viewBox="0 0 587.532 422.363">
    <path id="Tracé_4" d="M859.4,610.092H506.886a13.729,13.729,0,0,1-13.713-13.713V201.918a13.729,13.729,0,0,1,13.713-13.713H859.4a13.729,13.729,0,0,1,13.713,13.713v394.46A13.729,13.729,0,0,1,859.4,610.092ZM506.886,189.818a12.114,12.114,0,0,0-12.1,12.1v394.46a12.114,12.114,0,0,0,12.1,12.1H859.4a12.114,12.114,0,0,0,12.1-12.1V201.918a12.114,12.114,0,0,0-12.1-12.1Z" transform="translate(-285.581 -188.205)" fill="#3f3d56"/>
    <rect id="Rectangle_5" width="378.327" height="1.613" transform="translate(208.399 33.549)" fill="#3f3d56"/>
    <circle id="Ellipse_4" cx="6.453" cy="6.453" r="6.453" transform="translate(220.499 11.293)" fill="#6c63ff"/>
    <circle id="Ellipse_5" cx="6.453" cy="6.453" r="6.453" transform="translate(240.666 11.293)" fill="#6c63ff"/>
    <circle id="Ellipse_6" cx="6.453" cy="6.453" r="6.453" transform="translate(260.832 11.293)" fill="#6c63ff"/>
    <path id="Tracé_5"  d="M821.84,298.178H570.16a10.487,10.487,0,1,1,0-20.973H821.84a10.487,10.487,0,1,1,0,20.973Zm-251.68-19.36a8.873,8.873,0,0,0,0,17.747H821.84a8.873,8.873,0,1,0,0-17.747Z" transform="translate(-298.437 -205.412)" fill="#3f3d56"/>
    <path id="Tracé_6"  d="M778.528,402.7H663.981a6.453,6.453,0,1,1,0-12.907H778.528a6.453,6.453,0,1,1,0,12.907Z" transform="translate(-317.356 -227.179)" fill="#ccc"/>
    <path id="Tracé_7"  d="M844.675,429.7H663.981a6.453,6.453,0,1,1,0-12.907H844.675a6.453,6.453,0,0,1,0,12.907Z" transform="translate(-317.356 -232.399)" fill="#ccc"/>
    <path id="Tracé_8"  d="M602.169,425.4H567.482a7.672,7.672,0,0,1-7.663-7.663v-21.78a7.672,7.672,0,0,1,7.663-7.663h34.687a7.672,7.672,0,0,1,7.663,7.663v21.78a7.672,7.672,0,0,1-7.663,7.663Zm-34.687-35.493a6.057,6.057,0,0,0-6.05,6.05v21.78a6.057,6.057,0,0,0,6.05,6.05h34.687a6.057,6.057,0,0,0,6.05-6.05v-21.78a6.057,6.057,0,0,0-6.05-6.05Z" transform="translate(-298.465 -226.889)" fill="#ccc"/>
    <path id="Tracé_9"  d="M778.528,497.7H663.981a6.453,6.453,0,1,1,0-12.907H778.528a6.453,6.453,0,1,1,0,12.907Z" transform="translate(-317.356 -245.546)" fill="#ccc"/>
    <path id="Tracé_10"  d="M844.675,524.7H663.981a6.453,6.453,0,1,1,0-12.907H844.675a6.453,6.453,0,0,1,0,12.907Z" transform="translate(-317.356 -250.766)" fill="#ccc"/>
    <path id="Tracé_11"  d="M602.169,520.4H567.482a7.672,7.672,0,0,1-7.663-7.663v-21.78a7.672,7.672,0,0,1,7.663-7.663h34.687a7.672,7.672,0,0,1,7.663,7.663v21.78A7.672,7.672,0,0,1,602.169,520.4Zm-34.687-35.493a6.057,6.057,0,0,0-6.05,6.05v21.78a6.057,6.057,0,0,0,6.05,6.05h34.687a6.057,6.057,0,0,0,6.05-6.05v-21.78a6.057,6.057,0,0,0-6.05-6.05Z" transform="translate(-298.465 -245.256)" fill="#ccc"/>
    <path id="Tracé_12"  d="M778.528,592.7H663.981a6.453,6.453,0,1,1,0-12.907H778.528a6.453,6.453,0,1,1,0,12.907Z" transform="translate(-317.356 -263.912)" fill="#f2f2f2"/>
    <path id="Tracé_13"  d="M844.675,619.7H663.981a6.453,6.453,0,1,1,0-12.907H844.675a6.453,6.453,0,0,1,0,12.907Z" transform="translate(-317.356 -269.132)" fill="#f2f2f2"/>
    <path id="Tracé_14"  d="M602.169,615.4H567.482a7.672,7.672,0,0,1-7.663-7.663v-21.78a7.672,7.672,0,0,1,7.663-7.663h34.687a7.672,7.672,0,0,1,7.663,7.663v21.78a7.672,7.672,0,0,1-7.663,7.663Z" transform="translate(-298.465 -263.622)" fill="#f2f2f2"/>
    <path id="Tracé_15"  d="M587.732,420.335l-1.868-1.685c-6.633-6.09-11.012-10.042-11.012-14.966a7,7,0,0,1,7.084-7.127,7.619,7.619,0,0,1,5.8,2.721,7.619,7.619,0,0,1,5.8-2.721,7,7,0,0,1,7.084,7.127c0,4.924-4.379,8.876-11.012,14.966Z" transform="translate(-301.372 -228.486)" fill="#6c63ff"/>
    <path id="Tracé_16"  d="M587.732,515.335l-1.868-1.685c-6.633-6.09-11.012-10.042-11.012-14.966a7,7,0,0,1,7.084-7.127,7.619,7.619,0,0,1,5.8,2.721,7.619,7.619,0,0,1,5.8-2.721,7,7,0,0,1,7.084,7.127c0,4.924-4.379,8.876-11.012,14.966Z" transform="translate(-301.372 -246.853)" fill="#6c63ff"/>
    <path id="Tracé_17"  d="M399.007,496.159H364.32a7.672,7.672,0,0,1-7.663-7.663v-21.78a7.672,7.672,0,0,1,7.663-7.663h34.687a7.672,7.672,0,0,1,7.663,7.663V488.5a7.672,7.672,0,0,1-7.663,7.663ZM364.32,460.665a6.057,6.057,0,0,0-6.05,6.05V488.5a6.057,6.057,0,0,0,6.05,6.05h34.687a6.057,6.057,0,0,0,6.05-6.05v-21.78a6.057,6.057,0,0,0-6.05-6.05Z" transform="translate(-259.187 -240.569)" fill="#3f3d56"/>
    <path id="Tracé_18"  d="M384.57,491.092l-1.868-1.685c-6.633-6.09-11.012-10.042-11.012-14.966a7,7,0,0,1,7.084-7.127,7.619,7.619,0,0,1,5.8,2.721,7.619,7.619,0,0,1,5.8-2.721,7,7,0,0,1,7.084,7.127c0,4.924-4.379,8.876-11.012,14.966Z" transform="translate(-262.094 -242.166)" fill="#6c63ff"/>
    <path id="Tracé_19"  d="M124.992,503.057l8.972-2.134L130,465.3l-13.241,3.15Z" transform="translate(-22.574 -89.959)" fill="#ffb8b8"/>
    <path id="Tracé_20"  d="M0,0H28.983V11.2H11.2A11.2,11.2,0,0,1,0,0H0Z" transform="matrix(-0.973, 0.231, -0.231, -0.973, 130.674, 415.182)" fill="#2f2e41"/>
    <path id="Tracé_21"  d="M347.2,654.424,327.72,587.643l24.349-6.04,14.284,70.726a3.63,3.63,0,0,1-3.45,4.347l-12.106.36-.109,0a3.63,3.63,0,0,1-3.484-2.613Z" transform="translate(-253.593 -264.262)" fill="#2f2e41"/>
    <path id="Tracé_22"  d="M58.089,503.859h9.222L71.7,468.287l-13.611,0Z" transform="translate(-11.23 -90.536)" fill="#ffb8b8"/>
    <path id="Tracé_23"  d="M0,0H28.983V11.2H11.2A11.2,11.2,0,0,1,0,0H0Z" transform="translate(73.868 421.884) rotate(179.995)" fill="#2f2e41"/>
    <path id="Tracé_24"  d="M289.635,665.978a3.562,3.562,0,0,1-1.085-2.524l-8.4-66.619a3.635,3.635,0,0,1,3.6-3.648l18.754-.136h.027a3.64,3.64,0,0,1,3.629,3.574l1,65.626a3.628,3.628,0,0,1-3.546,3.683l-11.384,1.082h-.053a3.6,3.6,0,0,1-2.541-1.039Z" transform="translate(-244.396 -266.475)" fill="#2f2e41"/>
    <circle id="Ellipse_7" cx="19.813" cy="19.813" r="19.813" transform="translate(29.446 139.381)" fill="#ffb8b8"/>
    <path id="Tracé_25"  d="M261.887,559.321C249,549.249,249.133,537.5,253.532,521.8c1.239-4.421,2.577-8.9,3.992-13.647,6.578-22.042,14.034-47.025,11.2-67.654l.4-.055-.4.055a20.321,20.321,0,0,1,36.244-15.484c3.945,4.906,5.828,22.156,6.386,24.628,2.562,11.347,4.109,18.2,5.218,29.123,1.312,12.917,17.023,51.539,22.029,58.015a15.327,15.327,0,0,1,2.966,12.207,14.363,14.363,0,0,1-6.821,9.789,82,82,0,0,1-26.383,10.383,64.672,64.672,0,0,1-12.283,1.182C283.294,570.346,271.071,566.5,261.887,559.321Z" transform="translate(-238.73 -232.442)" fill="#6c63ff"/>
    <path id="Tracé_26"  d="M358.577,498.25a7.564,7.564,0,0,0-11.332-2.471l-15.013-8.567-7.431,7.854,21.371,11.8a7.605,7.605,0,0,0,12.405-8.616Z" transform="translate(-253.028 -246.013)" fill="#ffb8b8"/>
    <path id="Tracé_27"  d="M328.476,493.034l-26.908-8.453a18.522,18.522,0,0,1-12.914-16.8L287.5,441.634a10.948,10.948,0,1,1,21.879-.147l-.74,24.055,28.638,11.679a3.63,3.63,0,0,1,1.6,5.453l-6.338,8.989a3.621,3.621,0,0,1-4.055,1.371Z" transform="translate(-245.814 -234.991)" fill="#2f2e41"/>
    <path id="Tracé_28"  d="M257.249,402.648a97.267,97.267,0,0,0,.84-16.5c-.009-1.477-.018-2.955-.008-4.429.042-6.852.467-14.114,3.268-20.8,3.049-7.276,8.694-12.53,15.1-14.054,7.224-1.72,15.063,2.083,17.423,8.345a12.106,12.106,0,1,1,7.38,22.562l-.3.027-2.361-6.135c-.013.107-.026.216-.039.326-.15,1.272-.306,2.587-1.356,3.347h0c-1.311.948-2.944,4.07-2.467,7.232a27.267,27.267,0,0,0,1.325,4.744,26.038,26.038,0,0,1,1.405,5.227,8.926,8.926,0,0,1-1.672,6.464,4.99,4.99,0,0,1-3.419,1.962l-26.61,2.752-1.19-8.888L257,404.153Z" transform="translate(-239.92 -218.799)" fill="#2f2e41"/>
    <path id="Tracé_29"  d="M391.514,711.408H236.634a.807.807,0,0,1,0-1.613h154.88a.807.807,0,1,1,0,1.613Z" transform="translate(-235.827 -289.046)" fill="#ccc"/>
</svg>
